<svg width="423" height="402" viewBox="0 0 423 402" fill="none" xmlns="http://www.w3.org/2000/svg">
<g filter="url(#filter0_d_696_32)">
<rect x="8" y="8" width="407" height="386" rx="12" fill="#141516"/>
<rect x="8.5" y="8.5" width="406" height="385" rx="11.5" stroke="white" stroke-opacity="0.08"/>
<g clip-path="url(#clip0_696_32)">
<path d="M47.2656 44.1625C47.7312 43.9468 48.2688 43.9468 48.7344 44.1625L55.5656 47.3187C55.8313 47.4406 56 47.7062 56 48C56 48.2937 55.8313 48.5593 55.5656 48.6812L48.7344 51.8375C48.2688 52.0531 47.7312 52.0531 47.2656 51.8375L40.4344 48.6812C40.1687 48.5562 40 48.2906 40 48C40 47.7093 40.1687 47.4406 40.4344 47.3187L47.2656 44.1625ZM41.5031 50.825L46.6375 53.1968C47.5031 53.5968 48.5 53.5968 49.3656 53.1968L54.5 50.825L55.5656 51.3187C55.8313 51.4406 56 51.7062 56 52C56 52.2937 55.8313 52.5593 55.5656 52.6812L48.7344 55.8375C48.2688 56.0531 47.7312 56.0531 47.2656 55.8375L40.4344 52.6812C40.1687 52.5562 40 52.2906 40 52C40 51.7093 40.1687 51.4406 40.4344 51.3187L41.5 50.825H41.5031ZM40.4344 55.3187L41.5 54.825L46.6344 57.1968C47.5 57.5968 48.4969 57.5968 49.3625 57.1968L54.4969 54.825L55.5625 55.3187C55.8281 55.4406 55.9969 55.7062 55.9969 56C55.9969 56.2937 55.8281 56.5593 55.5625 56.6812L48.7312 59.8375C48.2656 60.0531 47.7281 60.0531 47.2625 59.8375L40.4344 56.6812C40.1687 56.5562 40 56.2906 40 56C40 55.7093 40.1687 55.4406 40.4344 55.3187Z" fill="#10B981"/>
</g>
<path d="M70.2955 58.1534C69.6098 58.1534 68.9962 57.9773 68.4545 57.625C67.9129 57.2727 67.4848 56.7614 67.1705 56.0909C66.8561 55.4205 66.6989 54.6061 66.6989 53.6477C66.6989 52.678 66.858 51.8598 67.1761 51.1932C67.4981 50.5227 67.9318 50.017 68.4773 49.6761C69.0227 49.3314 69.6307 49.1591 70.3011 49.1591C70.8125 49.1591 71.233 49.2462 71.5625 49.4205C71.892 49.5909 72.1534 49.7973 72.3466 50.0398C72.5398 50.2784 72.6894 50.5038 72.7955 50.7159H72.8807V46.3636H74.9432V58H72.9205V56.625H72.7955C72.6894 56.8371 72.536 57.0625 72.3352 57.3011C72.1345 57.536 71.8693 57.7367 71.5398 57.9034C71.2102 58.0701 70.7955 58.1534 70.2955 58.1534ZM70.8693 56.4659C71.3049 56.4659 71.6761 56.3485 71.983 56.1136C72.2898 55.875 72.5227 55.5436 72.6818 55.1193C72.8409 54.6951 72.9205 54.2008 72.9205 53.6364C72.9205 53.072 72.8409 52.5814 72.6818 52.1648C72.5265 51.7481 72.2955 51.4242 71.9886 51.1932C71.6856 50.9621 71.3125 50.8466 70.8693 50.8466C70.411 50.8466 70.0284 50.9659 69.7216 51.2045C69.4148 51.4432 69.1837 51.7727 69.0284 52.1932C68.8731 52.6136 68.7955 53.0947 68.7955 53.6364C68.7955 54.1818 68.8731 54.6686 69.0284 55.0966C69.1875 55.5208 69.4205 55.8561 69.7273 56.1023C70.0379 56.3447 70.4186 56.4659 70.8693 56.4659ZM77.1349 58V49.2727H79.1293V50.7273H79.2202C79.3793 50.2235 79.652 49.8352 80.0384 49.5625C80.4285 49.286 80.8736 49.1477 81.3736 49.1477C81.4872 49.1477 81.6141 49.1534 81.7543 49.1648C81.8982 49.1723 82.0175 49.1856 82.1122 49.2045V51.0966C82.0251 51.0663 81.8868 51.0398 81.6974 51.017C81.5118 50.9905 81.3319 50.9773 81.1577 50.9773C80.7827 50.9773 80.4455 51.0587 80.1463 51.2216C79.8509 51.3807 79.6179 51.6023 79.4474 51.8864C79.277 52.1705 79.1918 52.4981 79.1918 52.8693V58H77.1349ZM86.9261 58.1705C86.0739 58.1705 85.3352 57.983 84.7102 57.608C84.0852 57.233 83.6004 56.7083 83.2557 56.0341C82.9148 55.3598 82.7443 54.572 82.7443 53.6705C82.7443 52.7689 82.9148 51.9792 83.2557 51.3011C83.6004 50.6231 84.0852 50.0966 84.7102 49.7216C85.3352 49.3466 86.0739 49.1591 86.9261 49.1591C87.7784 49.1591 88.517 49.3466 89.142 49.7216C89.767 50.0966 90.25 50.6231 90.5909 51.3011C90.9356 51.9792 91.108 52.7689 91.108 53.6705C91.108 54.572 90.9356 55.3598 90.5909 56.0341C90.25 56.7083 89.767 57.233 89.142 57.608C88.517 57.983 87.7784 58.1705 86.9261 58.1705ZM86.9375 56.5227C87.3996 56.5227 87.786 56.3958 88.0966 56.142C88.4072 55.8845 88.6383 55.5398 88.7898 55.108C88.9451 54.6761 89.0227 54.1951 89.0227 53.6648C89.0227 53.1307 88.9451 52.6477 88.7898 52.2159C88.6383 51.7803 88.4072 51.4337 88.0966 51.1761C87.786 50.9186 87.3996 50.7898 86.9375 50.7898C86.464 50.7898 86.0701 50.9186 85.7557 51.1761C85.4451 51.4337 85.2121 51.7803 85.0568 52.2159C84.9053 52.6477 84.8295 53.1307 84.8295 53.6648C84.8295 54.1951 84.9053 54.6761 85.0568 55.108C85.2121 55.5398 85.4451 55.8845 85.7557 56.142C86.0701 56.3958 86.464 56.5227 86.9375 56.5227ZM94.9105 52.8864V58H92.8537V49.2727H94.8196V50.7557H94.9219C95.1226 50.267 95.4427 49.8788 95.8821 49.5909C96.3253 49.303 96.8726 49.1591 97.5241 49.1591C98.1264 49.1591 98.651 49.2879 99.098 49.5455C99.5488 49.803 99.8973 50.1761 100.143 50.6648C100.393 51.1534 100.517 51.7462 100.513 52.4432V58H98.456V52.7614C98.456 52.178 98.3045 51.7216 98.0014 51.392C97.7022 51.0625 97.2874 50.8977 96.7571 50.8977C96.3973 50.8977 96.0772 50.9773 95.7969 51.1364C95.5204 51.2917 95.3026 51.517 95.1435 51.8125C94.9882 52.108 94.9105 52.4659 94.9105 52.8864ZM106.467 58.1705C105.592 58.1705 104.837 57.9886 104.2 57.625C103.568 57.2576 103.081 56.7386 102.74 56.0682C102.399 55.3939 102.229 54.6004 102.229 53.6875C102.229 52.7898 102.399 52.0019 102.74 51.3239C103.085 50.642 103.566 50.1117 104.183 49.733C104.801 49.3504 105.526 49.1591 106.359 49.1591C106.897 49.1591 107.405 49.2462 107.882 49.4205C108.363 49.5909 108.787 49.8561 109.155 50.2159C109.526 50.5758 109.818 51.0341 110.03 51.5909C110.242 52.1439 110.348 52.803 110.348 53.5682V54.1989H103.195V52.8125H108.376C108.373 52.4186 108.287 52.0682 108.121 51.7614C107.954 51.4508 107.721 51.2064 107.422 51.0284C107.126 50.8504 106.782 50.7614 106.388 50.7614C105.967 50.7614 105.598 50.8636 105.28 51.0682C104.962 51.2689 104.714 51.5341 104.536 51.8636C104.361 52.1894 104.272 52.5473 104.268 52.9375V54.1477C104.268 54.6553 104.361 55.0909 104.547 55.4545C104.732 55.8144 104.992 56.0909 105.325 56.2841C105.659 56.4735 106.049 56.5682 106.496 56.5682C106.795 56.5682 107.066 56.5265 107.308 56.4432C107.551 56.3561 107.761 56.2292 107.939 56.0625C108.117 55.8958 108.251 55.6894 108.342 55.4432L110.263 55.6591C110.142 56.1667 109.911 56.6098 109.57 56.9886C109.232 57.3636 108.801 57.6553 108.274 57.8636C107.748 58.0682 107.145 58.1705 106.467 58.1705ZM117.378 52.3068V54H112.139V52.3068H117.378ZM122.053 58.1761C121.5 58.1761 121.001 58.0777 120.558 57.8807C120.119 57.6799 119.77 57.3845 119.513 56.9943C119.259 56.6042 119.132 56.1231 119.132 55.5511C119.132 55.0587 119.223 54.6515 119.405 54.3295C119.587 54.0076 119.835 53.75 120.149 53.5568C120.464 53.3636 120.818 53.2178 121.212 53.1193C121.609 53.017 122.02 52.9432 122.445 52.8977C122.956 52.8447 123.371 52.7973 123.689 52.7557C124.007 52.7102 124.238 52.642 124.382 52.5511C124.53 52.4564 124.604 52.3106 124.604 52.1136V52.0795C124.604 51.6515 124.477 51.3201 124.223 51.0852C123.969 50.8504 123.604 50.733 123.126 50.733C122.623 50.733 122.223 50.8428 121.928 51.0625C121.636 51.2822 121.439 51.5417 121.337 51.8409L119.416 51.5682C119.568 51.0379 119.818 50.5947 120.166 50.2386C120.515 49.8788 120.941 49.6098 121.445 49.4318C121.948 49.25 122.505 49.1591 123.115 49.1591C123.536 49.1591 123.954 49.2083 124.371 49.3068C124.787 49.4053 125.168 49.5682 125.513 49.7955C125.857 50.0189 126.134 50.3239 126.342 50.7102C126.554 51.0966 126.661 51.5795 126.661 52.1591V58H124.683V56.8011H124.615C124.49 57.0436 124.314 57.2708 124.087 57.483C123.863 57.6913 123.581 57.8598 123.24 57.9886C122.903 58.1136 122.507 58.1761 122.053 58.1761ZM122.587 56.6648C123 56.6648 123.357 56.5833 123.661 56.4205C123.964 56.2538 124.196 56.0341 124.359 55.7614C124.526 55.4886 124.609 55.1913 124.609 54.8693V53.8409C124.545 53.8939 124.435 53.9432 124.28 53.9886C124.128 54.0341 123.958 54.0739 123.768 54.108C123.579 54.142 123.392 54.1723 123.206 54.1989C123.02 54.2254 122.859 54.2481 122.723 54.267C122.416 54.3087 122.142 54.3769 121.899 54.4716C121.657 54.5663 121.465 54.6989 121.325 54.8693C121.185 55.036 121.115 55.2519 121.115 55.517C121.115 55.8958 121.253 56.1818 121.53 56.375C121.806 56.5682 122.159 56.6648 122.587 56.6648ZM132.524 61.4545C131.786 61.4545 131.151 61.3542 130.621 61.1534C130.09 60.9564 129.664 60.6913 129.342 60.358C129.02 60.0246 128.797 59.6553 128.672 59.25L130.524 58.8011C130.607 58.9716 130.729 59.1402 130.888 59.3068C131.047 59.4773 131.261 59.6174 131.53 59.7273C131.803 59.8409 132.145 59.8977 132.558 59.8977C133.142 59.8977 133.625 59.7557 134.007 59.4716C134.39 59.1913 134.581 58.7292 134.581 58.0852V56.4318H134.479C134.373 56.6439 134.217 56.8617 134.013 57.0852C133.812 57.3087 133.545 57.4962 133.212 57.6477C132.882 57.7992 132.467 57.875 131.967 57.875C131.297 57.875 130.689 57.7178 130.143 57.4034C129.602 57.0852 129.17 56.6117 128.848 55.983C128.53 55.3504 128.371 54.5587 128.371 53.608C128.371 52.6496 128.53 51.8409 128.848 51.1818C129.17 50.5189 129.604 50.017 130.149 49.6761C130.695 49.3314 131.303 49.1591 131.973 49.1591C132.484 49.1591 132.905 49.2462 133.234 49.4205C133.568 49.5909 133.833 49.7973 134.03 50.0398C134.227 50.2784 134.376 50.5038 134.479 50.7159H134.592V49.2727H136.621V58.142C136.621 58.8883 136.443 59.5057 136.087 59.9943C135.731 60.483 135.244 60.8485 134.626 61.0909C134.009 61.3333 133.308 61.4545 132.524 61.4545ZM132.541 56.2614C132.977 56.2614 133.348 56.1553 133.655 55.9432C133.962 55.7311 134.195 55.4261 134.354 55.0284C134.513 54.6307 134.592 54.1534 134.592 53.5966C134.592 53.0473 134.513 52.5663 134.354 52.1534C134.198 51.7405 133.967 51.4205 133.661 51.1932C133.357 50.9621 132.984 50.8466 132.541 50.8466C132.083 50.8466 131.7 50.9659 131.393 51.2045C131.087 51.4432 130.856 51.7708 130.7 52.1875C130.545 52.6004 130.467 53.0701 130.467 53.5966C130.467 54.1307 130.545 54.5985 130.7 55C130.859 55.3977 131.092 55.7083 131.399 55.9318C131.71 56.1515 132.09 56.2614 132.541 56.2614ZM142.592 58.1705C141.717 58.1705 140.962 57.9886 140.325 57.625C139.693 57.2576 139.206 56.7386 138.865 56.0682C138.524 55.3939 138.354 54.6004 138.354 53.6875C138.354 52.7898 138.524 52.0019 138.865 51.3239C139.21 50.642 139.691 50.1117 140.308 49.733C140.926 49.3504 141.651 49.1591 142.484 49.1591C143.022 49.1591 143.53 49.2462 144.007 49.4205C144.488 49.5909 144.912 49.8561 145.28 50.2159C145.651 50.5758 145.943 51.0341 146.155 51.5909C146.367 52.1439 146.473 52.803 146.473 53.5682V54.1989H139.32V52.8125H144.501C144.498 52.4186 144.412 52.0682 144.246 51.7614C144.079 51.4508 143.846 51.2064 143.547 51.0284C143.251 50.8504 142.907 50.7614 142.513 50.7614C142.092 50.7614 141.723 50.8636 141.405 51.0682C141.087 51.2689 140.839 51.5341 140.661 51.8636C140.486 52.1894 140.397 52.5473 140.393 52.9375V54.1477C140.393 54.6553 140.486 55.0909 140.672 55.4545C140.857 55.8144 141.117 56.0909 141.45 56.2841C141.784 56.4735 142.174 56.5682 142.621 56.5682C142.92 56.5682 143.191 56.5265 143.433 56.4432C143.676 56.3561 143.886 56.2292 144.064 56.0625C144.242 55.8958 144.376 55.6894 144.467 55.4432L146.388 55.6591C146.267 56.1667 146.036 56.6098 145.695 56.9886C145.357 57.3636 144.926 57.6553 144.399 57.8636C143.873 58.0682 143.27 58.1705 142.592 58.1705ZM150.27 52.8864V58H148.213V49.2727H150.179V50.7557H150.281C150.482 50.267 150.802 49.8788 151.241 49.5909C151.685 49.303 152.232 49.1591 152.884 49.1591C153.486 49.1591 154.01 49.2879 154.457 49.5455C154.908 49.803 155.257 50.1761 155.503 50.6648C155.753 51.1534 155.876 51.7462 155.872 52.4432V58H153.815V52.7614C153.815 52.178 153.664 51.7216 153.361 51.392C153.062 51.0625 152.647 50.8977 152.116 50.8977C151.757 50.8977 151.437 50.9773 151.156 51.1364C150.88 51.2917 150.662 51.517 150.503 51.8125C150.348 52.108 150.27 52.4659 150.27 52.8864ZM162.321 49.2727V50.8636H157.304V49.2727H162.321ZM158.543 47.1818H160.599V55.375C160.599 55.6515 160.641 55.8636 160.724 56.0114C160.812 56.1553 160.925 56.2538 161.065 56.3068C161.205 56.3598 161.361 56.3864 161.531 56.3864C161.66 56.3864 161.777 56.3769 161.884 56.358C161.993 56.339 162.077 56.322 162.134 56.3068L162.48 57.9148C162.37 57.9527 162.213 57.9943 162.009 58.0398C161.808 58.0852 161.562 58.1117 161.27 58.1193C160.755 58.1345 160.291 58.0568 159.878 57.8864C159.465 57.7121 159.137 57.4432 158.895 57.0795C158.656 56.7159 158.539 56.2614 158.543 55.7159V47.1818ZM169.05 52.3068V54H163.811V52.3068H169.05ZM175.491 58.2216C174.556 58.2216 173.753 57.9848 173.082 57.5114C172.416 57.0341 171.902 56.3466 171.543 55.4489C171.187 54.5473 171.009 53.4621 171.009 52.1932C171.012 50.9242 171.192 49.8447 171.548 48.9545C171.908 48.0606 172.421 47.3788 173.088 46.9091C173.759 46.4394 174.56 46.2045 175.491 46.2045C176.423 46.2045 177.224 46.4394 177.895 46.9091C178.565 47.3788 179.079 48.0606 179.435 48.9545C179.795 49.8485 179.974 50.928 179.974 52.1932C179.974 53.4659 179.795 54.553 179.435 55.4545C179.079 56.3523 178.565 57.0379 177.895 57.5114C177.228 57.9848 176.427 58.2216 175.491 58.2216ZM175.491 56.4432C176.219 56.4432 176.793 56.0852 177.213 55.3693C177.637 54.6496 177.849 53.5909 177.849 52.1932C177.849 51.2689 177.753 50.4924 177.56 49.8636C177.366 49.2348 177.094 48.7614 176.741 48.4432C176.389 48.1212 175.973 47.9602 175.491 47.9602C174.768 47.9602 174.196 48.3201 173.776 49.0398C173.355 49.7557 173.143 50.8068 173.139 52.1932C173.135 53.1212 173.228 53.9015 173.418 54.5341C173.611 55.1667 173.884 55.6439 174.236 55.9659C174.588 56.2841 175.007 56.4432 175.491 56.4432ZM181.976 58L186.925 48.2045V48.125H181.18V46.3636H189.107V48.1648L184.163 58H181.976Z" fill="#F7F8F8"/>
<path d="M45.8295 94.4545C45.7784 94.0227 45.571 93.6875 45.2074 93.4489C44.8438 93.2102 44.3977 93.0909 43.8693 93.0909C43.483 93.0909 43.1449 93.1534 42.8551 93.2784C42.5682 93.4034 42.3438 93.5753 42.1818 93.794C42.0227 94.0128 41.9432 94.2614 41.9432 94.5398C41.9432 94.7727 41.9986 94.973 42.1094 95.1406C42.223 95.3054 42.3679 95.4432 42.544 95.554C42.7202 95.6619 42.9048 95.7514 43.098 95.8224C43.2912 95.8906 43.4688 95.946 43.6307 95.9886L44.517 96.2273C44.7443 96.2869 44.9972 96.3693 45.2756 96.4744C45.5568 96.5795 45.8253 96.723 46.081 96.9048C46.3395 97.0838 46.5526 97.3139 46.7202 97.5952C46.8878 97.8764 46.9716 98.2216 46.9716 98.6307C46.9716 99.1023 46.848 99.5284 46.6009 99.9091C46.3565 100.29 45.9986 100.592 45.527 100.817C45.0582 101.041 44.4886 101.153 43.8182 101.153C43.1932 101.153 42.652 101.053 42.1946 100.851C41.7401 100.649 41.3821 100.368 41.1207 100.007C40.8622 99.6463 40.7159 99.2273 40.6818 98.75H41.7727C41.8011 99.0795 41.9119 99.3523 42.1051 99.5682C42.3011 99.7812 42.5483 99.9403 42.8466 100.045C43.1477 100.148 43.4716 100.199 43.8182 100.199C44.2216 100.199 44.5838 100.134 44.9048 100.003C45.2259 99.8693 45.4801 99.6847 45.6676 99.4489C45.8551 99.2102 45.9489 98.9318 45.9489 98.6136C45.9489 98.3239 45.8679 98.0881 45.706 97.9062C45.544 97.7244 45.331 97.5767 45.0668 97.4631C44.8026 97.3494 44.517 97.25 44.2102 97.1648L43.1364 96.858C42.4545 96.6619 41.9148 96.3821 41.517 96.0185C41.1193 95.6548 40.9205 95.179 40.9205 94.5909C40.9205 94.1023 41.0526 93.6761 41.3168 93.3125C41.5838 92.946 41.9418 92.6619 42.3906 92.4602C42.8423 92.2557 43.3466 92.1534 43.9034 92.1534C44.4659 92.1534 44.9659 92.2543 45.4034 92.456C45.8409 92.6548 46.1875 92.9276 46.4432 93.2741C46.7017 93.6207 46.8381 94.0142 46.8523 94.4545H45.8295ZM51.4194 94.4545V95.3068H48.0273V94.4545H51.4194ZM49.016 92.8864H50.0217V99.125C50.0217 99.4091 50.0629 99.6222 50.1452 99.7642C50.2305 99.9034 50.3384 99.9972 50.4691 100.045C50.6026 100.091 50.7433 100.114 50.891 100.114C51.0018 100.114 51.0927 100.108 51.1637 100.097C51.2347 100.082 51.2915 100.071 51.3342 100.062L51.5387 100.966C51.4705 100.991 51.3754 101.017 51.2532 101.043C51.131 101.071 50.9762 101.085 50.7887 101.085C50.5046 101.085 50.2262 101.024 49.9535 100.902C49.6836 100.78 49.4592 100.594 49.2802 100.344C49.104 100.094 49.016 99.7784 49.016 99.3977V92.8864ZM54.8583 101.153C54.4435 101.153 54.0671 101.075 53.729 100.919C53.391 100.76 53.1225 100.531 52.9237 100.233C52.7248 99.9318 52.6254 99.5682 52.6254 99.142C52.6254 98.767 52.6992 98.4631 52.8469 98.2301C52.9947 97.9943 53.1921 97.8097 53.4393 97.6761C53.6864 97.5426 53.9592 97.4432 54.2575 97.3778C54.5586 97.3097 54.8612 97.2557 55.1651 97.2159C55.5629 97.1648 55.8853 97.1264 56.1325 97.1009C56.3825 97.0724 56.5643 97.0256 56.6779 96.9602C56.7944 96.8949 56.8526 96.7812 56.8526 96.6193V96.5852C56.8526 96.1648 56.7376 95.8381 56.5075 95.6051C56.2802 95.3722 55.935 95.2557 55.4719 95.2557C54.9918 95.2557 54.6154 95.3608 54.3427 95.571C54.07 95.7812 53.8782 96.0057 53.7674 96.2443L52.8129 95.9034C52.9833 95.5057 53.2106 95.196 53.4947 94.9744C53.7816 94.75 54.0941 94.5937 54.4322 94.5057C54.7731 94.4148 55.1083 94.3693 55.4379 94.3693C55.6481 94.3693 55.8896 94.3949 56.1623 94.446C56.4379 94.4943 56.7035 94.5952 56.9592 94.7486C57.2177 94.902 57.4322 95.1335 57.6026 95.4432C57.7731 95.7528 57.8583 96.1676 57.8583 96.6875V101H56.8526V100.114H56.8015C56.7333 100.256 56.6197 100.408 56.4606 100.57C56.3015 100.732 56.0898 100.869 55.8256 100.983C55.5614 101.097 55.239 101.153 54.8583 101.153ZM55.0117 100.25C55.4094 100.25 55.7447 100.172 56.0174 100.016C56.293 99.8594 56.5004 99.6577 56.6396 99.4105C56.7816 99.1634 56.8526 98.9034 56.8526 98.6307V97.7102C56.81 97.7614 56.7163 97.8082 56.5714 97.8509C56.4293 97.8906 56.2646 97.9261 56.0771 97.9574C55.8924 97.9858 55.712 98.0114 55.5359 98.0341C55.3626 98.054 55.2219 98.071 55.114 98.0852C54.8526 98.1193 54.6083 98.1747 54.381 98.2514C54.1566 98.3253 53.9748 98.4375 53.8356 98.5881C53.6992 98.7358 53.631 98.9375 53.631 99.1932C53.631 99.5426 53.7603 99.8068 54.0188 99.9858C54.2802 100.162 54.6112 100.25 55.0117 100.25ZM62.5405 94.4545V95.3068H59.1484V94.4545H62.5405ZM60.1371 92.8864H61.1428V99.125C61.1428 99.4091 61.1839 99.6222 61.2663 99.7642C61.3516 99.9034 61.4595 99.9972 61.5902 100.045C61.7237 100.091 61.8643 100.114 62.0121 100.114C62.1229 100.114 62.2138 100.108 62.2848 100.097C62.3558 100.082 62.4126 100.071 62.4553 100.062L62.6598 100.966C62.5916 100.991 62.4964 101.017 62.3743 101.043C62.2521 101.071 62.0973 101.085 61.9098 101.085C61.6257 101.085 61.3473 101.024 61.0746 100.902C60.8047 100.78 60.5803 100.594 60.4013 100.344C60.2251 100.094 60.1371 99.7784 60.1371 99.3977V92.8864ZM68.1783 98.3239V94.4545H69.1839V101H68.1783V99.892H68.1101C67.9567 100.224 67.718 100.507 67.3942 100.74C67.0703 100.97 66.6612 101.085 66.1669 101.085C65.7578 101.085 65.3942 100.996 65.076 100.817C64.7578 100.635 64.5078 100.362 64.326 99.9986C64.1442 99.6321 64.0533 99.1705 64.0533 98.6136V94.4545H65.0589V98.5455C65.0589 99.0227 65.1925 99.4034 65.4595 99.6875C65.7294 99.9716 66.0732 100.114 66.4908 100.114C66.7408 100.114 66.995 100.05 67.2536 99.9219C67.5149 99.794 67.7337 99.598 67.9098 99.3338C68.0888 99.0696 68.1783 98.733 68.1783 98.3239ZM75.6623 95.9205L74.7589 96.1761C74.7021 96.0256 74.6183 95.8793 74.5075 95.7372C74.3995 95.5923 74.2518 95.473 74.0643 95.3793C73.8768 95.2855 73.6367 95.2386 73.3441 95.2386C72.9435 95.2386 72.6097 95.331 72.3427 95.5156C72.0785 95.6974 71.9464 95.929 71.9464 96.2102C71.9464 96.4602 72.0373 96.6577 72.2191 96.8026C72.4009 96.9474 72.685 97.0682 73.0714 97.1648L74.043 97.4034C74.6282 97.5455 75.0643 97.7628 75.3512 98.0554C75.6381 98.3452 75.7816 98.7187 75.7816 99.1761C75.7816 99.5511 75.6737 99.8864 75.4577 100.182C75.2447 100.477 74.9464 100.71 74.5629 100.881C74.1793 101.051 73.7333 101.136 73.2248 101.136C72.5572 101.136 72.0046 100.991 71.5671 100.702C71.1296 100.412 70.8526 99.9886 70.7362 99.4318L71.6907 99.1932C71.7816 99.5455 71.9535 99.8097 72.2063 99.9858C72.462 100.162 72.7958 100.25 73.2077 100.25C73.6765 100.25 74.0487 100.151 74.3242 99.9517C74.6026 99.75 74.7418 99.5085 74.7418 99.2273C74.7418 99 74.6623 98.8097 74.5032 98.6562C74.3441 98.5 74.0998 98.3835 73.7702 98.3068L72.6793 98.0511C72.0799 97.9091 71.6396 97.6889 71.3583 97.3906C71.0799 97.0895 70.9407 96.7131 70.9407 96.2614C70.9407 95.892 71.0444 95.5653 71.2518 95.2812C71.462 94.9972 71.7475 94.7741 72.1083 94.6122C72.4719 94.4503 72.8839 94.3693 73.3441 94.3693C73.9918 94.3693 74.5004 94.5114 74.8697 94.7955C75.2418 95.0795 75.506 95.4545 75.6623 95.9205Z" fill="#8A8F98"/>
<path d="M45.8295 116.455C45.7784 116.023 45.571 115.688 45.2074 115.449C44.8438 115.21 44.3977 115.091 43.8693 115.091C43.483 115.091 43.1449 115.153 42.8551 115.278C42.5682 115.403 42.3438 115.575 42.1818 115.794C42.0227 116.013 41.9432 116.261 41.9432 116.54C41.9432 116.773 41.9986 116.973 42.1094 117.141C42.223 117.305 42.3679 117.443 42.544 117.554C42.7202 117.662 42.9048 117.751 43.098 117.822C43.2912 117.891 43.4688 117.946 43.6307 117.989L44.517 118.227C44.7443 118.287 44.9972 118.369 45.2756 118.474C45.5568 118.58 45.8253 118.723 46.081 118.905C46.3395 119.084 46.5526 119.314 46.7202 119.595C46.8878 119.876 46.9716 120.222 46.9716 120.631C46.9716 121.102 46.848 121.528 46.6009 121.909C46.3565 122.29 45.9986 122.592 45.527 122.817C45.0582 123.041 44.4886 123.153 43.8182 123.153C43.1932 123.153 42.652 123.053 42.1946 122.851C41.7401 122.649 41.3821 122.368 41.1207 122.007C40.8622 121.646 40.7159 121.227 40.6818 120.75H41.7727C41.8011 121.08 41.9119 121.352 42.1051 121.568C42.3011 121.781 42.5483 121.94 42.8466 122.045C43.1477 122.148 43.4716 122.199 43.8182 122.199C44.2216 122.199 44.5838 122.134 44.9048 122.003C45.2259 121.869 45.4801 121.685 45.6676 121.449C45.8551 121.21 45.9489 120.932 45.9489 120.614C45.9489 120.324 45.8679 120.088 45.706 119.906C45.544 119.724 45.331 119.577 45.0668 119.463C44.8026 119.349 44.517 119.25 44.2102 119.165L43.1364 118.858C42.4545 118.662 41.9148 118.382 41.517 118.018C41.1193 117.655 40.9205 117.179 40.9205 116.591C40.9205 116.102 41.0526 115.676 41.3168 115.312C41.5838 114.946 41.9418 114.662 42.3906 114.46C42.8423 114.256 43.3466 114.153 43.9034 114.153C44.4659 114.153 44.9659 114.254 45.4034 114.456C45.8409 114.655 46.1875 114.928 46.4432 115.274C46.7017 115.621 46.8381 116.014 46.8523 116.455H45.8295ZM51.2319 123.136C50.6183 123.136 50.0898 122.991 49.6467 122.702C49.2035 122.412 48.8626 122.013 48.6239 121.504C48.3853 120.996 48.266 120.415 48.266 119.761C48.266 119.097 48.3881 118.51 48.6325 118.001C48.8796 117.49 49.2234 117.091 49.6637 116.804C50.1069 116.514 50.6239 116.369 51.2148 116.369C51.6751 116.369 52.0898 116.455 52.4592 116.625C52.8285 116.795 53.131 117.034 53.3668 117.341C53.6026 117.648 53.7489 118.006 53.8058 118.415H52.8001C52.7234 118.116 52.5529 117.852 52.2887 117.622C52.0273 117.389 51.6751 117.273 51.2319 117.273C50.8398 117.273 50.4961 117.375 50.2006 117.58C49.908 117.781 49.6793 118.067 49.5146 118.436C49.3526 118.803 49.2717 119.233 49.2717 119.727C49.2717 120.233 49.3512 120.673 49.5103 121.048C49.6722 121.423 49.8995 121.714 50.1921 121.922C50.4876 122.129 50.8342 122.233 51.2319 122.233C51.4933 122.233 51.7305 122.188 51.9435 122.097C52.1566 122.006 52.337 121.875 52.4847 121.705C52.6325 121.534 52.7376 121.33 52.8001 121.091H53.8058C53.7489 121.477 53.6083 121.825 53.3839 122.135C53.1623 122.442 52.8683 122.686 52.5018 122.868C52.1381 123.047 51.7148 123.136 51.2319 123.136ZM57.2021 123.153C56.7873 123.153 56.4109 123.075 56.0728 122.919C55.7347 122.76 55.4663 122.531 55.2674 122.233C55.0685 121.932 54.9691 121.568 54.9691 121.142C54.9691 120.767 55.043 120.463 55.1907 120.23C55.3384 119.994 55.5359 119.81 55.783 119.676C56.0302 119.543 56.3029 119.443 56.6012 119.378C56.9023 119.31 57.2049 119.256 57.5089 119.216C57.9066 119.165 58.229 119.126 58.4762 119.101C58.7262 119.072 58.908 119.026 59.0217 118.96C59.1381 118.895 59.1964 118.781 59.1964 118.619V118.585C59.1964 118.165 59.0813 117.838 58.8512 117.605C58.6239 117.372 58.2788 117.256 57.8157 117.256C57.3356 117.256 56.9592 117.361 56.6864 117.571C56.4137 117.781 56.2219 118.006 56.1112 118.244L55.1566 117.903C55.3271 117.506 55.5543 117.196 55.8384 116.974C56.1254 116.75 56.4379 116.594 56.7759 116.506C57.1168 116.415 57.4521 116.369 57.7816 116.369C57.9918 116.369 58.2333 116.395 58.506 116.446C58.7816 116.494 59.0472 116.595 59.3029 116.749C59.5614 116.902 59.7759 117.134 59.9464 117.443C60.1168 117.753 60.2021 118.168 60.2021 118.688V123H59.1964V122.114H59.1452C59.0771 122.256 58.9634 122.408 58.8043 122.57C58.6452 122.732 58.4336 122.869 58.1694 122.983C57.9052 123.097 57.5827 123.153 57.2021 123.153ZM57.3555 122.25C57.7532 122.25 58.0884 122.172 58.3612 122.016C58.6367 121.859 58.8441 121.658 58.9833 121.411C59.1254 121.163 59.1964 120.903 59.1964 120.631V119.71C59.1538 119.761 59.06 119.808 58.9151 119.851C58.7731 119.891 58.6083 119.926 58.4208 119.957C58.2362 119.986 58.0558 120.011 57.8796 120.034C57.7063 120.054 57.5657 120.071 57.4577 120.085C57.1964 120.119 56.9521 120.175 56.7248 120.251C56.5004 120.325 56.3185 120.437 56.1793 120.588C56.043 120.736 55.9748 120.937 55.9748 121.193C55.9748 121.543 56.104 121.807 56.3626 121.986C56.6239 122.162 56.9549 122.25 57.3555 122.25ZM63.0433 119.062V123H62.0376V116.455H63.0092V117.477H63.0945C63.2479 117.145 63.4808 116.878 63.7933 116.676C64.1058 116.472 64.5092 116.369 65.0036 116.369C65.4467 116.369 65.8345 116.46 66.1669 116.642C66.4993 116.821 66.7578 117.094 66.9425 117.46C67.1271 117.824 67.2195 118.284 67.2195 118.841V123H66.2138V118.909C66.2138 118.395 66.0803 117.994 65.8132 117.707C65.5462 117.418 65.1797 117.273 64.7138 117.273C64.3928 117.273 64.1058 117.342 63.853 117.482C63.603 117.621 63.4055 117.824 63.2607 118.091C63.1158 118.358 63.0433 118.682 63.0433 119.062ZM70.0629 119.062V123H69.0572V116.455H70.0288V117.477H70.114C70.2674 117.145 70.5004 116.878 70.8129 116.676C71.1254 116.472 71.5288 116.369 72.0231 116.369C72.4663 116.369 72.854 116.46 73.1864 116.642C73.5188 116.821 73.7773 117.094 73.962 117.46C74.1467 117.824 74.239 118.284 74.239 118.841V123H73.2333V118.909C73.2333 118.395 73.0998 117.994 72.8327 117.707C72.5657 117.418 72.1992 117.273 71.7333 117.273C71.4123 117.273 71.1254 117.342 70.8725 117.482C70.6225 117.621 70.4251 117.824 70.2802 118.091C70.1353 118.358 70.0629 118.682 70.0629 119.062ZM76.0767 123V116.455H77.0824V123H76.0767ZM76.5881 115.364C76.392 115.364 76.223 115.297 76.081 115.163C75.9418 115.03 75.8722 114.869 75.8722 114.682C75.8722 114.494 75.9418 114.334 76.081 114.2C76.223 114.067 76.392 114 76.5881 114C76.7841 114 76.9517 114.067 77.0909 114.2C77.233 114.334 77.304 114.494 77.304 114.682C77.304 114.869 77.233 115.03 77.0909 115.163C76.9517 115.297 76.7841 115.364 76.5881 115.364ZM79.93 119.062V123H78.9244V116.455H79.896V117.477H79.9812C80.1346 117.145 80.3675 116.878 80.68 116.676C80.9925 116.472 81.396 116.369 81.8903 116.369C82.3335 116.369 82.7212 116.46 83.0536 116.642C83.386 116.821 83.6445 117.094 83.8292 117.46C84.0138 117.824 84.1062 118.284 84.1062 118.841V123H83.1005V118.909C83.1005 118.395 82.967 117.994 82.6999 117.707C82.4329 117.418 82.0664 117.273 81.6005 117.273C81.2795 117.273 80.9925 117.342 80.7397 117.482C80.4897 117.621 80.2923 117.824 80.1474 118.091C80.0025 118.358 79.93 118.682 79.93 119.062ZM88.5859 125.591C88.1001 125.591 87.6825 125.528 87.3331 125.403C86.9837 125.281 86.6925 125.119 86.4595 124.918C86.2294 124.719 86.0462 124.506 85.9098 124.278L86.7109 123.716C86.8018 123.835 86.9169 123.972 87.0561 124.125C87.1953 124.281 87.3857 124.416 87.6271 124.53C87.8714 124.646 88.1911 124.705 88.5859 124.705C89.1143 124.705 89.5504 124.577 89.8942 124.321C90.2379 124.065 90.4098 123.665 90.4098 123.119V121.79H90.3246C90.2507 121.909 90.1456 122.057 90.0092 122.233C89.8757 122.406 89.6825 122.561 89.4297 122.697C89.1797 122.831 88.8416 122.898 88.4155 122.898C87.8871 122.898 87.4126 122.773 86.9922 122.523C86.5746 122.273 86.2436 121.909 85.9993 121.432C85.7578 120.955 85.6371 120.375 85.6371 119.693C85.6371 119.023 85.755 118.439 85.9908 117.942C86.2266 117.442 86.5547 117.055 86.9751 116.783C87.3956 116.507 87.8814 116.369 88.4325 116.369C88.8587 116.369 89.1967 116.44 89.4467 116.582C89.6996 116.722 89.8928 116.881 90.0263 117.06C90.1626 117.236 90.2678 117.381 90.3416 117.494H90.4439V116.455H91.4155V123.188C91.4155 123.75 91.2876 124.207 91.032 124.56C90.7791 124.915 90.4382 125.175 90.0092 125.339C89.5831 125.507 89.1087 125.591 88.5859 125.591ZM88.5518 121.994C88.9553 121.994 89.2962 121.902 89.5746 121.717C89.853 121.533 90.0646 121.267 90.2095 120.92C90.3544 120.574 90.4268 120.159 90.4268 119.676C90.4268 119.205 90.3558 118.788 90.2138 118.428C90.0717 118.067 89.8615 117.784 89.5831 117.58C89.3047 117.375 88.9609 117.273 88.5518 117.273C88.1257 117.273 87.7706 117.381 87.4865 117.597C87.2053 117.812 86.9936 118.102 86.8516 118.466C86.7124 118.83 86.6428 119.233 86.6428 119.676C86.6428 120.131 86.7138 120.533 86.8558 120.882C87.0007 121.229 87.2138 121.501 87.495 121.7C87.7791 121.896 88.1314 121.994 88.5518 121.994Z" fill="#F7F8F8"/>
<path d="M135.415 101H134.307L137.511 92.2727H138.602L141.807 101H140.699L138.091 93.6534H138.023L135.415 101ZM135.824 97.5909H140.29V98.5284H135.824V97.5909ZM144.036 92.2727V101H143.03V92.2727H144.036ZM148.724 94.4545V95.3068H145.332V94.4545H148.724ZM146.321 92.8864H147.326V99.125C147.326 99.4091 147.368 99.6222 147.45 99.7642C147.535 99.9034 147.643 99.9972 147.774 100.045C147.907 100.091 148.048 100.114 148.196 100.114C148.306 100.114 148.397 100.108 148.468 100.097C148.539 100.082 148.596 100.071 148.639 100.062L148.843 100.966C148.775 100.991 148.68 101.017 148.558 101.043C148.436 101.071 148.281 101.085 148.093 101.085C147.809 101.085 147.531 101.024 147.258 100.902C146.988 100.78 146.764 100.594 146.585 100.344C146.409 100.094 146.321 99.7784 146.321 99.3977V92.8864ZM150.237 101V94.4545H151.243V101H150.237ZM150.748 93.3636C150.552 93.3636 150.383 93.2969 150.241 93.1634C150.102 93.0298 150.032 92.8693 150.032 92.6818C150.032 92.4943 150.102 92.3338 150.241 92.2003C150.383 92.0668 150.552 92 150.748 92C150.944 92 151.112 92.0668 151.251 92.2003C151.393 92.3338 151.464 92.4943 151.464 92.6818C151.464 92.8693 151.393 93.0298 151.251 93.1634C151.112 93.2969 150.944 93.3636 150.748 93.3636ZM155.931 94.4545V95.3068H152.539V94.4545H155.931ZM153.528 92.8864H154.533V99.125C154.533 99.4091 154.575 99.6222 154.657 99.7642C154.742 99.9034 154.85 99.9972 154.981 100.045C155.114 100.091 155.255 100.114 155.403 100.114C155.513 100.114 155.604 100.108 155.675 100.097C155.746 100.082 155.803 100.071 155.846 100.062L156.05 100.966C155.982 100.991 155.887 101.017 155.765 101.043C155.643 101.071 155.488 101.085 155.3 101.085C155.016 101.085 154.738 101.024 154.465 100.902C154.195 100.78 153.971 100.594 153.792 100.344C153.616 100.094 153.528 99.7784 153.528 99.3977V92.8864ZM161.569 98.3239V94.4545H162.575V101H161.569V99.892H161.501C161.347 100.224 161.109 100.507 160.785 100.74C160.461 100.97 160.052 101.085 159.558 101.085C159.148 101.085 158.785 100.996 158.467 100.817C158.148 100.635 157.898 100.362 157.717 99.9986C157.535 99.6321 157.444 99.1705 157.444 98.6136V94.4545H158.45V98.5455C158.45 99.0227 158.583 99.4034 158.85 99.6875C159.12 99.9716 159.464 100.114 159.881 100.114C160.131 100.114 160.386 100.05 160.644 99.9219C160.906 99.794 161.124 99.598 161.3 99.3338C161.479 99.0696 161.569 98.733 161.569 98.3239ZM166.888 101.136C166.343 101.136 165.861 100.999 165.444 100.723C165.026 100.445 164.699 100.053 164.463 99.5469C164.228 99.0384 164.11 98.4375 164.11 97.7443C164.11 97.0568 164.228 96.4602 164.463 95.9545C164.699 95.4489 165.027 95.0582 165.448 94.7827C165.868 94.5071 166.354 94.3693 166.905 94.3693C167.331 94.3693 167.668 94.4403 167.915 94.5824C168.165 94.7216 168.355 94.8807 168.486 95.0597C168.62 95.2358 168.723 95.3807 168.797 95.4943H168.882V92.2727H169.888V101H168.917V99.9943H168.797C168.723 100.114 168.618 100.264 168.482 100.446C168.346 100.625 168.151 100.786 167.898 100.928C167.645 101.067 167.309 101.136 166.888 101.136ZM167.025 100.233C167.428 100.233 167.769 100.128 168.047 99.9176C168.326 99.7045 168.537 99.4105 168.682 99.0355C168.827 98.6577 168.9 98.2216 168.9 97.7273C168.9 97.2386 168.828 96.8111 168.686 96.4446C168.544 96.0753 168.334 95.7884 168.056 95.5838C167.777 95.3764 167.434 95.2727 167.025 95.2727C166.598 95.2727 166.243 95.3821 165.959 95.6009C165.678 95.8168 165.466 96.1108 165.324 96.483C165.185 96.8523 165.115 97.267 165.115 97.7273C165.115 98.1932 165.186 98.6165 165.328 98.9972C165.473 99.375 165.686 99.6761 165.968 99.9006C166.252 100.122 166.604 100.233 167.025 100.233ZM174.614 101.136C173.983 101.136 173.439 100.997 172.982 100.719C172.527 100.438 172.176 100.045 171.929 99.5426C171.685 99.0369 171.563 98.4489 171.563 97.7784C171.563 97.108 171.685 96.517 171.929 96.0057C172.176 95.4915 172.52 95.0909 172.961 94.804C173.404 94.5142 173.921 94.3693 174.512 94.3693C174.853 94.3693 175.189 94.4261 175.522 94.5398C175.854 94.6534 176.157 94.8381 176.429 95.0938C176.702 95.3466 176.919 95.6818 177.081 96.0994C177.243 96.517 177.324 97.0312 177.324 97.642V98.0682H172.279V97.1989H176.301C176.301 96.8295 176.228 96.5 176.08 96.2102C175.935 95.9205 175.728 95.6918 175.458 95.5241C175.191 95.3565 174.875 95.2727 174.512 95.2727C174.111 95.2727 173.765 95.3722 173.472 95.571C173.182 95.767 172.959 96.0227 172.803 96.3381C172.647 96.6534 172.569 96.9915 172.569 97.3523V97.9318C172.569 98.4261 172.654 98.8452 172.824 99.1889C172.998 99.5298 173.238 99.7898 173.544 99.9688C173.851 100.145 174.208 100.233 174.614 100.233C174.878 100.233 175.117 100.196 175.33 100.122C175.546 100.045 175.732 99.9318 175.888 99.7812C176.044 99.6278 176.165 99.4375 176.25 99.2102L177.222 99.483C177.12 99.8125 176.948 100.102 176.706 100.352C176.465 100.599 176.167 100.793 175.811 100.932C175.456 101.068 175.057 101.136 174.614 101.136Z" fill="#8A8F98"/>
<path d="M137.852 123.119C137.29 123.119 136.788 123.023 136.348 122.83C135.911 122.636 135.563 122.368 135.304 122.024C135.048 121.678 134.909 121.276 134.886 120.818H135.96C135.983 121.099 136.08 121.342 136.25 121.547C136.42 121.749 136.643 121.905 136.919 122.016C137.195 122.126 137.5 122.182 137.835 122.182C138.21 122.182 138.543 122.116 138.832 121.986C139.122 121.855 139.349 121.673 139.514 121.44C139.679 121.207 139.761 120.938 139.761 120.631C139.761 120.31 139.682 120.027 139.523 119.783C139.364 119.536 139.131 119.342 138.824 119.203C138.517 119.064 138.142 118.994 137.699 118.994H137V118.057H137.699C138.045 118.057 138.349 117.994 138.611 117.869C138.875 117.744 139.081 117.568 139.229 117.341C139.379 117.114 139.455 116.847 139.455 116.54C139.455 116.244 139.389 115.987 139.259 115.768C139.128 115.55 138.943 115.379 138.705 115.257C138.469 115.135 138.19 115.074 137.869 115.074C137.568 115.074 137.284 115.129 137.017 115.24C136.753 115.348 136.537 115.506 136.369 115.713C136.202 115.918 136.111 116.165 136.097 116.455H135.074C135.091 115.997 135.229 115.597 135.487 115.253C135.746 114.906 136.084 114.636 136.501 114.443C136.922 114.25 137.384 114.153 137.886 114.153C138.426 114.153 138.889 114.263 139.276 114.482C139.662 114.697 139.959 114.983 140.166 115.338C140.374 115.693 140.477 116.077 140.477 116.489C140.477 116.98 140.348 117.399 140.089 117.746C139.834 118.092 139.486 118.332 139.045 118.466V118.534C139.597 118.625 140.027 118.859 140.337 119.237C140.646 119.612 140.801 120.077 140.801 120.631C140.801 121.105 140.672 121.531 140.413 121.909C140.158 122.284 139.808 122.58 139.365 122.795C138.922 123.011 138.418 123.119 137.852 123.119ZM145.271 123.119C144.771 123.119 144.321 123.02 143.92 122.821C143.52 122.622 143.199 122.349 142.957 122.003C142.716 121.656 142.584 121.261 142.561 120.818H143.584C143.624 121.213 143.803 121.54 144.121 121.798C144.442 122.054 144.825 122.182 145.271 122.182C145.629 122.182 145.947 122.098 146.226 121.93C146.507 121.763 146.727 121.533 146.886 121.24C147.048 120.945 147.129 120.611 147.129 120.239C147.129 119.858 147.045 119.518 146.878 119.22C146.713 118.919 146.486 118.682 146.196 118.509C145.906 118.335 145.575 118.247 145.203 118.244C144.936 118.241 144.662 118.283 144.381 118.368C144.099 118.45 143.868 118.557 143.686 118.688L142.697 118.568L143.226 114.273H147.76V115.21H144.112L143.805 117.784H143.857C144.036 117.642 144.26 117.524 144.53 117.43C144.8 117.337 145.081 117.29 145.374 117.29C145.908 117.29 146.384 117.418 146.801 117.673C147.222 117.926 147.551 118.273 147.79 118.713C148.031 119.153 148.152 119.656 148.152 120.222C148.152 120.778 148.027 121.276 147.777 121.713C147.53 122.148 147.189 122.491 146.754 122.744C146.32 122.994 145.825 123.119 145.271 123.119ZM152.691 123.119C152.049 123.119 151.502 122.945 151.051 122.595C150.599 122.243 150.254 121.733 150.015 121.065C149.777 120.395 149.657 119.585 149.657 118.636C149.657 117.693 149.777 116.888 150.015 116.22C150.257 115.55 150.603 115.038 151.055 114.686C151.51 114.331 152.055 114.153 152.691 114.153C153.328 114.153 153.872 114.331 154.324 114.686C154.778 115.038 155.125 115.55 155.363 116.22C155.605 116.888 155.725 117.693 155.725 118.636C155.725 119.585 155.606 120.395 155.368 121.065C155.129 121.733 154.784 122.243 154.332 122.595C153.88 122.945 153.333 123.119 152.691 123.119ZM152.691 122.182C153.328 122.182 153.822 121.875 154.174 121.261C154.527 120.648 154.703 119.773 154.703 118.636C154.703 117.881 154.622 117.237 154.46 116.706C154.301 116.175 154.071 115.77 153.77 115.491C153.471 115.213 153.112 115.074 152.691 115.074C152.061 115.074 151.568 115.385 151.213 116.007C150.858 116.626 150.68 117.503 150.68 118.636C150.68 119.392 150.76 120.034 150.919 120.562C151.078 121.091 151.306 121.493 151.605 121.768C151.906 122.044 152.268 122.182 152.691 122.182ZM160.277 116.455V117.307H156.748V116.455H160.277ZM157.805 123V115.551C157.805 115.176 157.893 114.864 158.069 114.614C158.245 114.364 158.474 114.176 158.755 114.051C159.037 113.926 159.333 113.864 159.646 113.864C159.893 113.864 160.095 113.884 160.251 113.923C160.407 113.963 160.524 114 160.6 114.034L160.311 114.903C160.26 114.886 160.189 114.865 160.098 114.839C160.01 114.814 159.893 114.801 159.748 114.801C159.416 114.801 159.176 114.885 159.028 115.053C158.883 115.22 158.811 115.466 158.811 115.79V123H157.805ZM164.533 116.455V117.307H161.141V116.455H164.533ZM162.129 114.886H163.135V121.125C163.135 121.409 163.176 121.622 163.259 121.764C163.344 121.903 163.452 121.997 163.582 122.045C163.716 122.091 163.857 122.114 164.004 122.114C164.115 122.114 164.206 122.108 164.277 122.097C164.348 122.082 164.405 122.071 164.447 122.062L164.652 122.966C164.584 122.991 164.489 123.017 164.366 123.043C164.244 123.071 164.089 123.085 163.902 123.085C163.618 123.085 163.339 123.024 163.067 122.902C162.797 122.78 162.572 122.594 162.393 122.344C162.217 122.094 162.129 121.778 162.129 121.398V114.886Z" fill="#B8392D"/>
<path d="M229.057 101V92.2727H232.006C232.688 92.2727 233.247 92.3892 233.685 92.6222C234.122 92.8523 234.446 93.169 234.656 93.5724C234.866 93.9759 234.972 94.4347 234.972 94.9489C234.972 95.4631 234.866 95.919 234.656 96.3168C234.446 96.7145 234.124 97.027 233.689 97.2543C233.254 97.4787 232.699 97.5909 232.023 97.5909H229.636V96.6364H231.989C232.455 96.6364 232.83 96.5682 233.114 96.4318C233.401 96.2955 233.608 96.1023 233.736 95.8523C233.866 95.5994 233.932 95.2983 233.932 94.9489C233.932 94.5994 233.866 94.294 233.736 94.0327C233.605 93.7713 233.396 93.5696 233.109 93.4276C232.822 93.2827 232.443 93.2102 231.972 93.2102H230.114V101H229.057ZM233.165 97.0795L235.312 101H234.085L231.972 97.0795H233.165ZM239.27 101.136C238.64 101.136 238.096 100.997 237.638 100.719C237.184 100.438 236.833 100.045 236.586 99.5426C236.341 99.0369 236.219 98.4489 236.219 97.7784C236.219 97.108 236.341 96.517 236.586 96.0057C236.833 95.4915 237.176 95.0909 237.617 94.804C238.06 94.5142 238.577 94.3693 239.168 94.3693C239.509 94.3693 239.846 94.4261 240.178 94.5398C240.51 94.6534 240.813 94.8381 241.086 95.0938C241.358 95.3466 241.576 95.6818 241.738 96.0994C241.9 96.517 241.98 97.0312 241.98 97.642V98.0682H236.935V97.1989H240.958C240.958 96.8295 240.884 96.5 240.736 96.2102C240.591 95.9205 240.384 95.6918 240.114 95.5241C239.847 95.3565 239.532 95.2727 239.168 95.2727C238.767 95.2727 238.421 95.3722 238.128 95.571C237.838 95.767 237.615 96.0227 237.459 96.3381C237.303 96.6534 237.225 96.9915 237.225 97.3523V97.9318C237.225 98.4261 237.31 98.8452 237.48 99.1889C237.654 99.5298 237.894 99.7898 238.201 99.9688C238.507 100.145 238.864 100.233 239.27 100.233C239.534 100.233 239.773 100.196 239.986 100.122C240.202 100.045 240.388 99.9318 240.544 99.7812C240.701 99.6278 240.821 99.4375 240.907 99.2102L241.878 99.483C241.776 99.8125 241.604 100.102 241.363 100.352C241.121 100.599 240.823 100.793 240.468 100.932C240.113 101.068 239.713 101.136 239.27 101.136ZM247.976 103.455V99.9943H247.891C247.817 100.114 247.712 100.264 247.576 100.446C247.439 100.625 247.245 100.786 246.992 100.928C246.739 101.067 246.402 101.136 245.982 101.136C245.436 101.136 244.955 100.999 244.537 100.723C244.12 100.445 243.793 100.053 243.557 99.5469C243.321 99.0384 243.203 98.4375 243.203 97.7443C243.203 97.0568 243.321 96.4602 243.557 95.9545C243.793 95.4489 244.121 95.0582 244.542 94.7827C244.962 94.5071 245.448 94.3693 245.999 94.3693C246.425 94.3693 246.762 94.4403 247.009 94.5824C247.259 94.7216 247.449 94.8807 247.58 95.0597C247.713 95.2358 247.817 95.3807 247.891 95.4943H248.01V94.4545H248.982V103.455H247.976ZM246.118 100.233C246.522 100.233 246.863 100.128 247.141 99.9176C247.419 99.7045 247.631 99.4105 247.776 99.0355C247.921 98.6577 247.993 98.2216 247.993 97.7273C247.993 97.2386 247.922 96.8111 247.78 96.4446C247.638 96.0753 247.428 95.7884 247.15 95.5838C246.871 95.3764 246.527 95.2727 246.118 95.2727C245.692 95.2727 245.337 95.3821 245.053 95.6009C244.772 95.8168 244.56 96.1108 244.418 96.483C244.279 96.8523 244.209 97.267 244.209 97.7273C244.209 98.1932 244.28 98.6165 244.422 98.9972C244.567 99.375 244.78 99.6761 245.061 99.9006C245.346 100.122 245.698 100.233 246.118 100.233ZM254.948 98.3239V94.4545H255.953V101H254.948V99.892H254.88C254.726 100.224 254.488 100.507 254.164 100.74C253.84 100.97 253.431 101.085 252.936 101.085C252.527 101.085 252.164 100.996 251.846 100.817C251.527 100.635 251.277 100.362 251.096 99.9986C250.914 99.6321 250.823 99.1705 250.823 98.6136V94.4545H251.828V98.5455C251.828 99.0227 251.962 99.4034 252.229 99.6875C252.499 99.9716 252.843 100.114 253.26 100.114C253.51 100.114 253.765 100.05 254.023 99.9219C254.284 99.794 254.503 99.598 254.679 99.3338C254.858 99.0696 254.948 98.733 254.948 98.3239ZM257.795 101V94.4545H258.801V101H257.795ZM258.307 93.3636C258.111 93.3636 257.942 93.2969 257.8 93.1634C257.661 93.0298 257.591 92.8693 257.591 92.6818C257.591 92.4943 257.661 92.3338 257.8 92.2003C257.942 92.0668 258.111 92 258.307 92C258.503 92 258.67 92.0668 258.81 92.2003C258.952 92.3338 259.023 92.4943 259.023 92.6818C259.023 92.8693 258.952 93.0298 258.81 93.1634C258.67 93.2969 258.503 93.3636 258.307 93.3636ZM260.643 101V94.4545H261.615V95.4432H261.683C261.802 95.1193 262.018 94.8565 262.331 94.6548C262.643 94.4531 262.995 94.3523 263.387 94.3523C263.461 94.3523 263.554 94.3537 263.664 94.3565C263.775 94.3594 263.859 94.3636 263.916 94.3693V95.392C263.882 95.3835 263.804 95.3707 263.681 95.3537C263.562 95.3338 263.436 95.3239 263.302 95.3239C262.984 95.3239 262.7 95.3906 262.45 95.5241C262.203 95.6548 262.007 95.8366 261.862 96.0696C261.72 96.2997 261.649 96.5625 261.649 96.858V101H260.643ZM267.653 101.136C267.022 101.136 266.478 100.997 266.021 100.719C265.566 100.438 265.216 100.045 264.968 99.5426C264.724 99.0369 264.602 98.4489 264.602 97.7784C264.602 97.108 264.724 96.517 264.968 96.0057C265.216 95.4915 265.559 95.0909 266 94.804C266.443 94.5142 266.96 94.3693 267.551 94.3693C267.892 94.3693 268.228 94.4261 268.561 94.5398C268.893 94.6534 269.196 94.8381 269.468 95.0938C269.741 95.3466 269.958 95.6818 270.12 96.0994C270.282 96.517 270.363 97.0312 270.363 97.642V98.0682H265.318V97.1989H269.341C269.341 96.8295 269.267 96.5 269.119 96.2102C268.974 95.9205 268.767 95.6918 268.497 95.5241C268.23 95.3565 267.914 95.2727 267.551 95.2727C267.15 95.2727 266.804 95.3722 266.511 95.571C266.221 95.767 265.998 96.0227 265.842 96.3381C265.686 96.6534 265.608 96.9915 265.608 97.3523V97.9318C265.608 98.4261 265.693 98.8452 265.863 99.1889C266.037 99.5298 266.277 99.7898 266.583 99.9688C266.89 100.145 267.247 100.233 267.653 100.233C267.917 100.233 268.156 100.196 268.369 100.122C268.585 100.045 268.771 99.9318 268.927 99.7812C269.083 99.6278 269.204 99.4375 269.289 99.2102L270.261 99.483C270.159 99.8125 269.987 100.102 269.745 100.352C269.504 100.599 269.206 100.793 268.85 100.932C268.495 101.068 268.096 101.136 267.653 101.136ZM274.365 101.136C273.819 101.136 273.338 100.999 272.92 100.723C272.502 100.445 272.176 100.053 271.94 99.5469C271.704 99.0384 271.586 98.4375 271.586 97.7443C271.586 97.0568 271.704 96.4602 271.94 95.9545C272.176 95.4489 272.504 95.0582 272.924 94.7827C273.345 94.5071 273.831 94.3693 274.382 94.3693C274.808 94.3693 275.145 94.4403 275.392 94.5824C275.642 94.7216 275.832 94.8807 275.963 95.0597C276.096 95.2358 276.2 95.3807 276.274 95.4943H276.359V92.2727H277.365V101H276.393V99.9943H276.274C276.2 100.114 276.095 100.264 275.958 100.446C275.822 100.625 275.627 100.786 275.375 100.928C275.122 101.067 274.785 101.136 274.365 101.136ZM274.501 100.233C274.904 100.233 275.245 100.128 275.524 99.9176C275.802 99.7045 276.014 99.4105 276.159 99.0355C276.304 98.6577 276.376 98.2216 276.376 97.7273C276.376 97.2386 276.305 96.8111 276.163 96.4446C276.021 96.0753 275.811 95.7884 275.532 95.5838C275.254 95.3764 274.91 95.2727 274.501 95.2727C274.075 95.2727 273.72 95.3821 273.436 95.6009C273.154 95.8168 272.943 96.1108 272.801 96.483C272.662 96.8523 272.592 97.267 272.592 97.7273C272.592 98.1932 272.663 98.6165 272.805 98.9972C272.95 99.375 273.163 99.6761 273.444 99.9006C273.728 100.122 274.081 100.233 274.501 100.233Z" fill="#8A8F98"/>
<path d="M234.699 119.114L229.21 121.909V120.818L233.42 118.79L233.386 118.858V118.688L233.42 118.756L229.21 116.727V115.636L234.699 118.432V119.114ZM237.24 117.835V116.915H242.49V117.835H237.24ZM237.24 120.358V119.438H242.49V120.358H237.24ZM250.826 123.119C250.326 123.119 249.876 123.02 249.475 122.821C249.075 122.622 248.754 122.349 248.512 122.003C248.271 121.656 248.138 121.261 248.116 120.818H249.138C249.178 121.213 249.357 121.54 249.675 121.798C249.996 122.054 250.38 122.182 250.826 122.182C251.184 122.182 251.502 122.098 251.781 121.93C252.062 121.763 252.282 121.533 252.441 121.24C252.603 120.945 252.684 120.611 252.684 120.239C252.684 119.858 252.6 119.518 252.433 119.22C252.268 118.919 252.04 118.682 251.751 118.509C251.461 118.335 251.13 118.247 250.758 118.244C250.491 118.241 250.217 118.283 249.935 118.368C249.654 118.45 249.423 118.557 249.241 118.688L248.252 118.568L248.781 114.273H253.315V115.21H249.667L249.36 117.784H249.411C249.59 117.642 249.815 117.524 250.085 117.43C250.354 117.337 250.636 117.29 250.928 117.29C251.462 117.29 251.938 117.418 252.356 117.673C252.776 117.926 253.106 118.273 253.344 118.713C253.586 119.153 253.707 119.656 253.707 120.222C253.707 120.778 253.582 121.276 253.332 121.713C253.085 122.148 252.744 122.491 252.309 122.744C251.874 122.994 251.38 123.119 250.826 123.119ZM258.246 123.119C257.604 123.119 257.057 122.945 256.605 122.595C256.154 122.243 255.809 121.733 255.57 121.065C255.331 120.395 255.212 119.585 255.212 118.636C255.212 117.693 255.331 116.888 255.57 116.22C255.811 115.55 256.158 115.038 256.61 114.686C257.064 114.331 257.61 114.153 258.246 114.153C258.882 114.153 259.426 114.331 259.878 114.686C260.333 115.038 260.679 115.55 260.918 116.22C261.159 116.888 261.28 117.693 261.28 118.636C261.28 119.585 261.161 120.395 260.922 121.065C260.684 121.733 260.338 122.243 259.887 122.595C259.435 122.945 258.888 123.119 258.246 123.119ZM258.246 122.182C258.882 122.182 259.377 121.875 259.729 121.261C260.081 120.648 260.257 119.773 260.257 118.636C260.257 117.881 260.176 117.237 260.015 116.706C259.855 116.175 259.625 115.77 259.324 115.491C259.026 115.213 258.667 115.074 258.246 115.074C257.615 115.074 257.123 115.385 256.767 116.007C256.412 116.626 256.235 117.503 256.235 118.636C256.235 119.392 256.314 120.034 256.473 120.562C256.632 121.091 256.861 121.493 257.159 121.768C257.461 122.044 257.823 122.182 258.246 122.182ZM265.746 123.119C265.104 123.119 264.557 122.945 264.105 122.595C263.654 122.243 263.309 121.733 263.07 121.065C262.831 120.395 262.712 119.585 262.712 118.636C262.712 117.693 262.831 116.888 263.07 116.22C263.311 115.55 263.658 115.038 264.11 114.686C264.564 114.331 265.11 114.153 265.746 114.153C266.382 114.153 266.926 114.331 267.378 114.686C267.833 115.038 268.179 115.55 268.418 116.22C268.659 116.888 268.78 117.693 268.78 118.636C268.78 119.585 268.661 120.395 268.422 121.065C268.184 121.733 267.838 122.243 267.387 122.595C266.935 122.945 266.388 123.119 265.746 123.119ZM265.746 122.182C266.382 122.182 266.877 121.875 267.229 121.261C267.581 120.648 267.757 119.773 267.757 118.636C267.757 117.881 267.676 117.237 267.515 116.706C267.355 116.175 267.125 115.77 266.824 115.491C266.526 115.213 266.167 115.074 265.746 115.074C265.115 115.074 264.623 115.385 264.267 116.007C263.912 116.626 263.735 117.503 263.735 118.636C263.735 119.392 263.814 120.034 263.973 120.562C264.132 121.091 264.361 121.493 264.659 121.768C264.961 122.044 265.323 122.182 265.746 122.182ZM273.331 116.455V117.307H269.803V116.455H273.331ZM270.86 123V115.551C270.86 115.176 270.948 114.864 271.124 114.614C271.3 114.364 271.529 114.176 271.81 114.051C272.091 113.926 272.388 113.864 272.701 113.864C272.948 113.864 273.15 113.884 273.306 113.923C273.462 113.963 273.578 114 273.655 114.034L273.365 114.903C273.314 114.886 273.243 114.865 273.152 114.839C273.064 114.814 272.948 114.801 272.803 114.801C272.471 114.801 272.23 114.885 272.083 115.053C271.938 115.22 271.865 115.466 271.865 115.79V123H270.86ZM277.587 116.455V117.307H274.195V116.455H277.587ZM275.184 114.886H276.19V121.125C276.19 121.409 276.231 121.622 276.313 121.764C276.398 121.903 276.506 121.997 276.637 122.045C276.771 122.091 276.911 122.114 277.059 122.114C277.17 122.114 277.261 122.108 277.332 122.097C277.403 122.082 277.46 122.071 277.502 122.062L277.707 122.966C277.638 122.991 277.543 123.017 277.421 123.043C277.299 123.071 277.144 123.085 276.957 123.085C276.673 123.085 276.394 123.024 276.121 122.902C275.852 122.78 275.627 122.594 275.448 122.344C275.272 122.094 275.184 121.778 275.184 121.398V114.886Z" fill="#F7F8F8"/>
<path d="M331.415 92.2727L334.006 99.6193H334.108L336.699 92.2727H337.807L334.602 101H333.511L330.307 92.2727H331.415ZM341.165 101.136C340.534 101.136 339.99 100.997 339.533 100.719C339.078 100.438 338.727 100.045 338.48 99.5426C338.236 99.0369 338.114 98.4489 338.114 97.7784C338.114 97.108 338.236 96.517 338.48 96.0057C338.727 95.4915 339.071 95.0909 339.511 94.804C339.955 94.5142 340.472 94.3693 341.062 94.3693C341.403 94.3693 341.74 94.4261 342.072 94.5398C342.405 94.6534 342.707 94.8381 342.98 95.0938C343.253 95.3466 343.47 95.6818 343.632 96.0994C343.794 96.517 343.875 97.0312 343.875 97.642V98.0682H338.83V97.1989H342.852C342.852 96.8295 342.778 96.5 342.631 96.2102C342.486 95.9205 342.278 95.6918 342.009 95.5241C341.741 95.3565 341.426 95.2727 341.062 95.2727C340.662 95.2727 340.315 95.3722 340.023 95.571C339.733 95.767 339.51 96.0227 339.354 96.3381C339.197 96.6534 339.119 96.9915 339.119 97.3523V97.9318C339.119 98.4261 339.205 98.8452 339.375 99.1889C339.548 99.5298 339.788 99.7898 340.095 99.9688C340.402 100.145 340.759 100.233 341.165 100.233C341.429 100.233 341.668 100.196 341.881 100.122C342.097 100.045 342.283 99.9318 342.439 99.7812C342.595 99.6278 342.716 99.4375 342.801 99.2102L343.773 99.483C343.67 99.8125 343.499 100.102 343.257 100.352C343.016 100.599 342.717 100.793 342.362 100.932C342.007 101.068 341.608 101.136 341.165 101.136ZM345.405 101V94.4545H346.376V95.4432H346.445C346.564 95.1193 346.78 94.8565 347.092 94.6548C347.405 94.4531 347.757 94.3523 348.149 94.3523C348.223 94.3523 348.315 94.3537 348.426 94.3565C348.537 94.3594 348.621 94.3636 348.678 94.3693V95.392C348.643 95.3835 348.565 95.3707 348.443 95.3537C348.324 95.3338 348.197 95.3239 348.064 95.3239C347.746 95.3239 347.462 95.3906 347.212 95.5241C346.964 95.6548 346.768 95.8366 346.624 96.0696C346.482 96.2997 346.411 96.5625 346.411 96.858V101H345.405ZM349.87 101V94.4545H350.875V101H349.87ZM350.381 93.3636C350.185 93.3636 350.016 93.2969 349.874 93.1634C349.735 93.0298 349.665 92.8693 349.665 92.6818C349.665 92.4943 349.735 92.3338 349.874 92.2003C350.016 92.0668 350.185 92 350.381 92C350.577 92 350.745 92.0668 350.884 92.2003C351.026 92.3338 351.097 92.4943 351.097 92.6818C351.097 92.8693 351.026 93.0298 350.884 93.1634C350.745 93.2969 350.577 93.3636 350.381 93.3636ZM355.632 94.4545V95.3068H352.104V94.4545H355.632ZM353.161 101V93.5511C353.161 93.1761 353.249 92.8636 353.425 92.6136C353.601 92.3636 353.83 92.1761 354.111 92.0511C354.392 91.9261 354.689 91.8636 355.001 91.8636C355.249 91.8636 355.45 91.8835 355.607 91.9233C355.763 91.9631 355.879 92 355.956 92.0341L355.666 92.9034C355.615 92.8864 355.544 92.8651 355.453 92.8395C355.365 92.8139 355.249 92.8011 355.104 92.8011C354.771 92.8011 354.531 92.8849 354.384 93.0526C354.239 93.2202 354.166 93.4659 354.166 93.7898V101H353.161ZM357.042 101V94.4545H358.047V101H357.042ZM357.553 93.3636C357.357 93.3636 357.188 93.2969 357.046 93.1634C356.907 93.0298 356.837 92.8693 356.837 92.6818C356.837 92.4943 356.907 92.3338 357.046 92.2003C357.188 92.0668 357.357 92 357.553 92C357.749 92 357.917 92.0668 358.056 92.2003C358.198 92.3338 358.269 92.4943 358.269 92.6818C358.269 92.8693 358.198 93.0298 358.056 93.1634C357.917 93.2969 357.749 93.3636 357.553 93.3636ZM362.634 101.136C362.003 101.136 361.459 100.997 361.001 100.719C360.547 100.438 360.196 100.045 359.949 99.5426C359.705 99.0369 359.582 98.4489 359.582 97.7784C359.582 97.108 359.705 96.517 359.949 96.0057C360.196 95.4915 360.54 95.0909 360.98 94.804C361.423 94.5142 361.94 94.3693 362.531 94.3693C362.872 94.3693 363.209 94.4261 363.541 94.5398C363.874 94.6534 364.176 94.8381 364.449 95.0938C364.722 95.3466 364.939 95.6818 365.101 96.0994C365.263 96.517 365.344 97.0312 365.344 97.642V98.0682H360.298V97.1989H364.321C364.321 96.8295 364.247 96.5 364.099 96.2102C363.955 95.9205 363.747 95.6918 363.477 95.5241C363.21 95.3565 362.895 95.2727 362.531 95.2727C362.131 95.2727 361.784 95.3722 361.491 95.571C361.202 95.767 360.979 96.0227 360.822 96.3381C360.666 96.6534 360.588 96.9915 360.588 97.3523V97.9318C360.588 98.4261 360.673 98.8452 360.844 99.1889C361.017 99.5298 361.257 99.7898 361.564 99.9688C361.871 100.145 362.227 100.233 362.634 100.233C362.898 100.233 363.136 100.196 363.349 100.122C363.565 100.045 363.751 99.9318 363.908 99.7812C364.064 99.6278 364.185 99.4375 364.27 99.2102L365.241 99.483C365.139 99.8125 364.967 100.102 364.726 100.352C364.484 100.599 364.186 100.793 363.831 100.932C363.476 101.068 363.077 101.136 362.634 101.136ZM369.345 101.136C368.8 101.136 368.318 100.999 367.901 100.723C367.483 100.445 367.156 100.053 366.92 99.5469C366.685 99.0384 366.567 98.4375 366.567 97.7443C366.567 97.0568 366.685 96.4602 366.92 95.9545C367.156 95.4489 367.484 95.0582 367.905 94.7827C368.325 94.5071 368.811 94.3693 369.362 94.3693C369.788 94.3693 370.125 94.4403 370.372 94.5824C370.622 94.7216 370.813 94.8807 370.943 95.0597C371.077 95.2358 371.18 95.3807 371.254 95.4943H371.339V92.2727H372.345V101H371.374V99.9943H371.254C371.18 100.114 371.075 100.264 370.939 100.446C370.803 100.625 370.608 100.786 370.355 100.928C370.102 101.067 369.766 101.136 369.345 101.136ZM369.482 100.233C369.885 100.233 370.226 100.128 370.504 99.9176C370.783 99.7045 370.994 99.4105 371.139 99.0355C371.284 98.6577 371.357 98.2216 371.357 97.7273C371.357 97.2386 371.286 96.8111 371.143 96.4446C371.001 96.0753 370.791 95.7884 370.513 95.5838C370.234 95.3764 369.891 95.2727 369.482 95.2727C369.055 95.2727 368.7 95.3821 368.416 95.6009C368.135 95.8168 367.923 96.1108 367.781 96.483C367.642 96.8523 367.572 97.267 367.572 97.7273C367.572 98.1932 367.643 98.6165 367.786 98.9972C367.93 99.375 368.143 99.6761 368.425 99.9006C368.709 100.122 369.061 100.233 369.482 100.233ZM377.702 101V94.4545H378.707V101H377.702ZM378.213 93.3636C378.017 93.3636 377.848 93.2969 377.706 93.1634C377.567 93.0298 377.497 92.8693 377.497 92.6818C377.497 92.4943 377.567 92.3338 377.706 92.2003C377.848 92.0668 378.017 92 378.213 92C378.409 92 378.577 92.0668 378.716 92.2003C378.858 92.3338 378.929 92.4943 378.929 92.6818C378.929 92.8693 378.858 93.0298 378.716 93.1634C378.577 93.2969 378.409 93.3636 378.213 93.3636ZM381.555 97.0625V101H380.549V94.4545H381.521V95.4773H381.606C381.76 95.1449 381.993 94.8778 382.305 94.6761C382.618 94.4716 383.021 94.3693 383.515 94.3693C383.958 94.3693 384.346 94.4602 384.679 94.642C385.011 94.821 385.27 95.0938 385.454 95.4602C385.639 95.8239 385.731 96.2841 385.731 96.8409V101H384.725V96.9091C384.725 96.3949 384.592 95.9943 384.325 95.7074C384.058 95.4176 383.691 95.2727 383.225 95.2727C382.904 95.2727 382.618 95.3423 382.365 95.4815C382.115 95.6207 381.917 95.8239 381.772 96.0909C381.627 96.358 381.555 96.6818 381.555 97.0625Z" fill="#8A8F98"/>
<path d="M330.58 115.21V114.273H337.125V115.21H334.381V123H333.324V115.21H330.58ZM338.756 123V114.273H344.023V115.21H339.813V118.159H343.75V119.097H339.813V122.062H344.091V123H338.756ZM345.928 123V114.273H351.195V115.21H346.985V118.159H350.922V119.097H346.985V122.062H351.263V123H345.928Z" fill="#F7F8F8"/>
<line x1="40" y1="151.5" x2="383" y2="151.5" stroke="white" stroke-opacity="0.08"/>
<path d="M45.6037 182.672C45.5639 182.3 45.3963 182.01 45.1009 181.803C44.8082 181.595 44.4276 181.491 43.9588 181.491C43.6293 181.491 43.3466 181.541 43.1108 181.641C42.875 181.74 42.6946 181.875 42.5696 182.045C42.4446 182.216 42.3807 182.411 42.3778 182.629C42.3778 182.811 42.419 182.969 42.5014 183.102C42.5866 183.236 42.7017 183.349 42.8466 183.443C42.9915 183.534 43.152 183.611 43.3281 183.673C43.5043 183.736 43.6818 183.788 43.8608 183.831L44.679 184.036C45.0085 184.112 45.3253 184.216 45.6293 184.347C45.9361 184.477 46.2102 184.642 46.4517 184.841C46.696 185.04 46.8892 185.28 47.0312 185.561C47.1733 185.842 47.2443 186.172 47.2443 186.55C47.2443 187.061 47.1136 187.511 46.8523 187.901C46.5909 188.287 46.2131 188.589 45.7188 188.808C45.2273 189.024 44.6321 189.132 43.9332 189.132C43.2543 189.132 42.6648 189.027 42.1648 188.817C41.6676 188.607 41.2784 188.3 40.9972 187.896C40.7188 187.493 40.5682 187.001 40.5455 186.422H42.1009C42.1236 186.726 42.2173 186.979 42.3821 187.18C42.5469 187.382 42.7614 187.533 43.0256 187.632C43.2926 187.732 43.5909 187.781 43.9205 187.781C44.2642 187.781 44.5653 187.73 44.8239 187.628C45.0852 187.523 45.2898 187.378 45.4375 187.193C45.5852 187.006 45.6605 186.787 45.6634 186.537C45.6605 186.31 45.5938 186.122 45.4631 185.974C45.3324 185.824 45.1491 185.699 44.9134 185.599C44.6804 185.497 44.4077 185.406 44.0952 185.327L43.1023 185.071C42.3835 184.886 41.8153 184.607 41.3977 184.232C40.983 183.854 40.7756 183.352 40.7756 182.727C40.7756 182.213 40.9148 181.763 41.1932 181.376C41.4744 180.99 41.8565 180.69 42.3395 180.477C42.8224 180.261 43.3693 180.153 43.9801 180.153C44.5994 180.153 45.142 180.261 45.608 180.477C46.0767 180.69 46.4446 180.987 46.7116 181.368C46.9787 181.746 47.1165 182.18 47.125 182.672H45.6037ZM51.854 182.455V183.648H48.0913V182.455H51.854ZM49.0202 180.886H50.5629V187.031C50.5629 187.239 50.5941 187.398 50.6566 187.509C50.7219 187.616 50.8072 187.69 50.9123 187.73C51.0174 187.77 51.1339 187.79 51.2617 187.79C51.3583 187.79 51.4464 187.783 51.5259 187.768C51.6083 187.754 51.6708 187.741 51.7134 187.73L51.9734 188.936C51.891 188.964 51.7731 188.996 51.6197 189.03C51.4691 189.064 51.2844 189.084 51.0657 189.089C50.6793 189.101 50.3313 189.043 50.0217 188.915C49.712 188.784 49.4663 188.582 49.2844 188.31C49.1055 188.037 49.0174 187.696 49.0202 187.287V180.886ZM55.0277 189.132C54.6129 189.132 54.2393 189.058 53.907 188.911C53.5774 188.76 53.3161 188.538 53.1229 188.246C52.9325 187.953 52.8374 187.592 52.8374 187.163C52.8374 186.794 52.9055 186.489 53.0419 186.247C53.1783 186.006 53.3643 185.812 53.6001 185.668C53.8359 185.523 54.1016 185.413 54.397 185.339C54.6953 185.263 55.0036 185.207 55.3217 185.173C55.7053 185.134 56.0163 185.098 56.255 185.067C56.4936 185.033 56.6669 184.982 56.7749 184.913C56.8857 184.842 56.9411 184.733 56.9411 184.585V184.56C56.9411 184.239 56.8459 183.99 56.6555 183.814C56.4652 183.638 56.1911 183.55 55.8331 183.55C55.4553 183.55 55.1555 183.632 54.9339 183.797C54.7152 183.962 54.5675 184.156 54.4908 184.381L53.0504 184.176C53.1641 183.778 53.3516 183.446 53.6129 183.179C53.8743 182.909 54.1939 182.707 54.5717 182.574C54.9496 182.438 55.3672 182.369 55.8246 182.369C56.1399 182.369 56.4538 182.406 56.7663 182.48C57.0788 182.554 57.3643 182.676 57.6229 182.847C57.8814 183.014 58.0888 183.243 58.245 183.533C58.4041 183.822 58.4837 184.185 58.4837 184.619V189H57.0007V188.101H56.9496C56.8558 188.283 56.7237 188.453 56.5533 188.612C56.3857 188.768 56.174 188.895 55.9183 188.991C55.6655 189.085 55.3686 189.132 55.0277 189.132ZM55.4283 187.999C55.7379 187.999 56.0064 187.937 56.2337 187.815C56.4609 187.69 56.6357 187.526 56.7578 187.321C56.8828 187.116 56.9453 186.893 56.9453 186.652V185.881C56.897 185.92 56.8146 185.957 56.6982 185.991C56.5845 186.026 56.4567 186.055 56.3146 186.081C56.1726 186.107 56.032 186.129 55.8928 186.149C55.7536 186.169 55.6328 186.186 55.5305 186.2C55.3004 186.232 55.0945 186.283 54.9126 186.354C54.7308 186.425 54.5874 186.524 54.4822 186.652C54.3771 186.777 54.3246 186.939 54.3246 187.138C54.3246 187.422 54.4283 187.636 54.6357 187.781C54.843 187.926 55.1072 187.999 55.4283 187.999ZM63.3033 182.455V183.648H59.5405V182.455H63.3033ZM60.4695 180.886H62.0121V187.031C62.0121 187.239 62.0433 187.398 62.1058 187.509C62.1712 187.616 62.2564 187.69 62.3615 187.73C62.4666 187.77 62.5831 187.79 62.7109 187.79C62.8075 187.79 62.8956 187.783 62.9751 187.768C63.0575 187.754 63.12 187.741 63.1626 187.73L63.4226 188.936C63.3402 188.964 63.2223 188.996 63.0689 189.03C62.9183 189.064 62.7337 189.084 62.5149 189.089C62.1286 189.101 61.7805 189.043 61.4709 188.915C61.1612 188.784 60.9155 188.582 60.7337 188.31C60.5547 188.037 60.4666 187.696 60.4695 187.287V180.886ZM68.7653 186.247V182.455H70.3079V189H68.8121V187.837H68.744C68.5962 188.203 68.3533 188.503 68.0153 188.736C67.68 188.969 67.2667 189.085 66.7752 189.085C66.3462 189.085 65.967 188.99 65.6374 188.8C65.3107 188.607 65.055 188.327 64.8704 187.96C64.6857 187.591 64.5934 187.145 64.5934 186.622V182.455H66.136V186.384C66.136 186.798 66.2496 187.128 66.4769 187.372C66.7042 187.616 67.0025 187.739 67.3718 187.739C67.5991 187.739 67.8192 187.683 68.0323 187.572C68.2454 187.462 68.4201 187.297 68.5565 187.078C68.6957 186.857 68.7653 186.58 68.7653 186.247ZM75.1626 182.455V183.648H71.3999V182.455H75.1626ZM72.3288 180.886H73.8714V187.031C73.8714 187.239 73.9027 187.398 73.9652 187.509C74.0305 187.616 74.1158 187.69 74.2209 187.73C74.326 187.77 74.4425 187.79 74.5703 187.79C74.6669 187.79 74.755 187.783 74.8345 187.768C74.9169 187.754 74.9794 187.741 75.022 187.73L75.282 188.936C75.1996 188.964 75.0817 188.996 74.9283 189.03C74.7777 189.064 74.593 189.084 74.3743 189.089C73.9879 189.101 73.6399 189.043 73.3303 188.915C73.0206 188.784 72.7749 188.582 72.593 188.31C72.4141 188.037 72.326 187.696 72.3288 187.287V180.886ZM79.2802 189.128C78.6239 189.128 78.0572 188.991 77.5799 188.719C77.1055 188.443 76.7404 188.054 76.4847 187.551C76.229 187.045 76.1012 186.45 76.1012 185.766C76.1012 185.092 76.229 184.501 76.4847 183.993C76.7433 183.482 77.104 183.084 77.5671 182.8C78.0302 182.513 78.5742 182.369 79.1992 182.369C79.6026 182.369 79.9833 182.435 80.3413 182.565C80.7021 182.693 81.0202 182.892 81.2958 183.162C81.5742 183.432 81.793 183.776 81.9521 184.193C82.1112 184.608 82.1907 185.102 82.1907 185.676V186.149H76.8256V185.109H80.712C80.7092 184.814 80.6452 184.551 80.5202 184.321C80.3952 184.088 80.2205 183.905 79.9961 183.771C79.7745 183.638 79.516 183.571 79.2205 183.571C78.9052 183.571 78.6282 183.648 78.3896 183.801C78.1509 183.952 77.9648 184.151 77.8313 184.398C77.7006 184.642 77.6339 184.911 77.631 185.203V186.111C77.631 186.491 77.7006 186.818 77.8398 187.091C77.979 187.361 78.1737 187.568 78.4237 187.713C78.6737 187.855 78.9663 187.926 79.3015 187.926C79.5259 187.926 79.729 187.895 79.9109 187.832C80.0927 187.767 80.2504 187.672 80.3839 187.547C80.5174 187.422 80.6183 187.267 80.6864 187.082L82.1268 187.244C82.0359 187.625 81.8626 187.957 81.6069 188.241C81.354 188.523 81.0302 188.741 80.6353 188.898C80.2404 189.051 79.7887 189.128 79.2802 189.128ZM88.669 184.185L87.2628 184.338C87.223 184.196 87.1534 184.062 87.054 183.938C86.9574 183.812 86.8267 183.712 86.6619 183.635C86.4972 183.558 86.2955 183.52 86.0568 183.52C85.7358 183.52 85.4659 183.589 85.2472 183.729C85.0312 183.868 84.9247 184.048 84.9276 184.27C84.9247 184.46 84.9943 184.615 85.1364 184.734C85.2813 184.854 85.5199 184.952 85.8523 185.028L86.9688 185.267C87.5881 185.401 88.0483 185.612 88.3494 185.902C88.6534 186.192 88.8068 186.571 88.8097 187.04C88.8068 187.452 88.6861 187.815 88.4474 188.131C88.2116 188.443 87.8835 188.687 87.4631 188.864C87.0426 189.04 86.5597 189.128 86.0142 189.128C85.2131 189.128 84.5682 188.96 84.0795 188.625C83.5909 188.287 83.2997 187.817 83.206 187.214L84.7102 187.07C84.7784 187.365 84.9233 187.588 85.1449 187.739C85.3665 187.889 85.6548 187.964 86.0099 187.964C86.3764 187.964 86.6705 187.889 86.892 187.739C87.1165 187.588 87.2287 187.402 87.2287 187.18C87.2287 186.993 87.1563 186.838 87.0114 186.716C86.8693 186.594 86.6477 186.5 86.3466 186.435L85.2301 186.2C84.6023 186.07 84.1378 185.849 83.8366 185.54C83.5355 185.227 83.3864 184.832 83.3892 184.355C83.3864 183.952 83.4957 183.602 83.7173 183.307C83.9418 183.009 84.2528 182.778 84.6506 182.616C85.0511 182.452 85.5128 182.369 86.0355 182.369C86.8026 182.369 87.4063 182.533 87.8466 182.859C88.2898 183.186 88.5639 183.628 88.669 184.185ZM93.0412 189V187.858L96.071 184.888C96.3608 184.595 96.6023 184.335 96.7955 184.108C96.9886 183.881 97.1335 183.661 97.2301 183.447C97.3267 183.234 97.375 183.007 97.375 182.766C97.375 182.49 97.3125 182.254 97.1875 182.058C97.0625 181.859 96.8906 181.706 96.6719 181.598C96.4531 181.49 96.2045 181.436 95.9261 181.436C95.6392 181.436 95.3878 181.496 95.1719 181.615C94.956 181.732 94.7884 181.898 94.669 182.114C94.5526 182.33 94.4943 182.587 94.4943 182.885H92.9901C92.9901 182.331 93.1165 181.849 93.3693 181.44C93.6222 181.031 93.9702 180.714 94.4134 180.49C94.8594 180.266 95.3707 180.153 95.9474 180.153C96.5327 180.153 97.0469 180.263 97.4901 180.482C97.9332 180.7 98.277 181 98.5213 181.381C98.7685 181.761 98.892 182.196 98.892 182.685C98.892 183.011 98.8295 183.332 98.7045 183.648C98.5795 183.963 98.3594 184.312 98.044 184.696C97.7315 185.08 97.2926 185.544 96.7273 186.089L95.223 187.619V187.679H99.0241V189H93.0412Z" fill="#F7F8F8"/>
<path d="M42.1136 222.273V231H41.0568V222.273H42.1136ZM44.0962 231V224.455H45.0678V225.477H45.1531C45.2894 225.128 45.5096 224.857 45.8136 224.663C46.1175 224.467 46.4826 224.369 46.9087 224.369C47.3406 224.369 47.6999 224.467 47.9869 224.663C48.2766 224.857 48.5025 225.128 48.6644 225.477H48.7326C48.9002 225.139 49.1516 224.871 49.4869 224.672C49.8221 224.47 50.2241 224.369 50.6928 224.369C51.2781 224.369 51.7567 224.553 52.1289 224.919C52.5011 225.283 52.6871 225.849 52.6871 226.619V231H51.6815V226.619C51.6815 226.136 51.5494 225.791 51.2852 225.584C51.021 225.376 50.7099 225.273 50.3519 225.273C49.8917 225.273 49.5352 225.412 49.2823 225.69C49.0295 225.966 48.9031 226.315 48.9031 226.739V231H47.8803V226.517C47.8803 226.145 47.7596 225.845 47.5181 225.618C47.2766 225.388 46.9656 225.273 46.5849 225.273C46.3235 225.273 46.0792 225.342 45.8519 225.482C45.6275 225.621 45.4457 225.814 45.3065 226.061C45.1701 226.305 45.1019 226.588 45.1019 226.909V231H44.0962ZM54.5259 233.455V224.455H55.4975V225.494H55.6168C55.6907 225.381 55.793 225.236 55.9237 225.06C56.0572 224.881 56.2475 224.722 56.4947 224.582C56.7447 224.44 57.0827 224.369 57.5089 224.369C58.06 224.369 58.5458 224.507 58.9663 224.783C59.3867 225.058 59.7148 225.449 59.9506 225.955C60.1864 226.46 60.3043 227.057 60.3043 227.744C60.3043 228.438 60.1864 229.038 59.9506 229.547C59.7148 230.053 59.3881 230.445 58.9705 230.723C58.5529 230.999 58.0714 231.136 57.5259 231.136C57.1055 231.136 56.7688 231.067 56.516 230.928C56.2631 230.786 56.0685 230.625 55.9322 230.446C55.7958 230.264 55.6907 230.114 55.6168 229.994H55.5316V233.455H54.5259ZM55.5146 227.727C55.5146 228.222 55.587 228.658 55.7319 229.036C55.8768 229.411 56.0884 229.705 56.3668 229.918C56.6452 230.128 56.9862 230.233 57.3896 230.233C57.81 230.233 58.1609 230.122 58.4421 229.901C58.7262 229.676 58.9393 229.375 59.0813 228.997C59.2262 228.616 59.2987 228.193 59.2987 227.727C59.2987 227.267 59.2276 226.852 59.0856 226.483C58.9464 226.111 58.7347 225.817 58.4506 225.601C58.1694 225.382 57.8157 225.273 57.3896 225.273C56.9805 225.273 56.6367 225.376 56.3583 225.584C56.0799 225.788 55.8697 226.075 55.7276 226.445C55.5856 226.811 55.5146 227.239 55.5146 227.727ZM64.4975 231.136C63.9066 231.136 63.3881 230.996 62.9421 230.714C62.4989 230.433 62.1523 230.04 61.9023 229.534C61.6552 229.028 61.5316 228.437 61.5316 227.761C61.5316 227.08 61.6552 226.484 61.9023 225.976C62.1523 225.467 62.4989 225.072 62.9421 224.791C63.3881 224.51 63.9066 224.369 64.4975 224.369C65.0884 224.369 65.6055 224.51 66.0487 224.791C66.4947 225.072 66.8413 225.467 67.0884 225.976C67.3384 226.484 67.4634 227.08 67.4634 227.761C67.4634 228.437 67.3384 229.028 67.0884 229.534C66.8413 230.04 66.4947 230.433 66.0487 230.714C65.6055 230.996 65.0884 231.136 64.4975 231.136ZM64.4975 230.233C64.9464 230.233 65.3157 230.118 65.6055 229.888C65.8952 229.658 66.1097 229.355 66.2489 228.98C66.3881 228.605 66.4577 228.199 66.4577 227.761C66.4577 227.324 66.3881 226.916 66.2489 226.538C66.1097 226.161 65.8952 225.855 65.6055 225.622C65.3157 225.389 64.9464 225.273 64.4975 225.273C64.0487 225.273 63.6793 225.389 63.3896 225.622C63.0998 225.855 62.8853 226.161 62.7461 226.538C62.6069 226.916 62.5373 227.324 62.5373 227.761C62.5373 228.199 62.6069 228.605 62.7461 228.98C62.8853 229.355 63.0998 229.658 63.3896 229.888C63.6793 230.118 64.0487 230.233 64.4975 230.233ZM68.9986 231V224.455H69.9702V225.443H70.0384C70.1577 225.119 70.3736 224.857 70.6861 224.655C70.9986 224.453 71.3509 224.352 71.7429 224.352C71.8168 224.352 71.9091 224.354 72.0199 224.357C72.1307 224.359 72.2145 224.364 72.2713 224.369V225.392C72.2372 225.384 72.1591 225.371 72.0369 225.354C71.9176 225.334 71.7912 225.324 71.6577 225.324C71.3395 225.324 71.0554 225.391 70.8054 225.524C70.5582 225.655 70.3622 225.837 70.2173 226.07C70.0753 226.3 70.0043 226.562 70.0043 226.858V231H68.9986ZM76.7202 224.455V225.307H73.3281V224.455H76.7202ZM74.3168 222.886H75.3224V229.125C75.3224 229.409 75.3636 229.622 75.446 229.764C75.5313 229.903 75.6392 229.997 75.7699 230.045C75.9034 230.091 76.044 230.114 76.1918 230.114C76.3026 230.114 76.3935 230.108 76.4645 230.097C76.5355 230.082 76.5923 230.071 76.6349 230.062L76.8395 230.966C76.7713 230.991 76.6761 231.017 76.554 231.043C76.4318 231.071 76.277 231.085 76.0895 231.085C75.8054 231.085 75.527 231.024 75.2543 230.902C74.9844 230.78 74.7599 230.594 74.581 230.344C74.4048 230.094 74.3168 229.778 74.3168 229.398V222.886ZM80.1591 231.153C79.7443 231.153 79.3679 231.075 79.0298 230.919C78.6918 230.76 78.4233 230.531 78.2244 230.233C78.0256 229.932 77.9261 229.568 77.9261 229.142C77.9261 228.767 78 228.463 78.1477 228.23C78.2955 227.994 78.4929 227.81 78.7401 227.676C78.9872 227.543 79.2599 227.443 79.5582 227.378C79.8594 227.31 80.1619 227.256 80.4659 227.216C80.8636 227.165 81.1861 227.126 81.4332 227.101C81.6832 227.072 81.8651 227.026 81.9787 226.96C82.0952 226.895 82.1534 226.781 82.1534 226.619V226.585C82.1534 226.165 82.0384 225.838 81.8082 225.605C81.581 225.372 81.2358 225.256 80.7727 225.256C80.2926 225.256 79.9162 225.361 79.6435 225.571C79.3707 225.781 79.179 226.006 79.0682 226.244L78.1136 225.903C78.2841 225.506 78.5114 225.196 78.7955 224.974C79.0824 224.75 79.3949 224.594 79.733 224.506C80.0739 224.415 80.4091 224.369 80.7386 224.369C80.9489 224.369 81.1903 224.395 81.4631 224.446C81.7386 224.494 82.0043 224.595 82.2599 224.749C82.5185 224.902 82.733 225.134 82.9034 225.443C83.0739 225.753 83.1591 226.168 83.1591 226.688V231H82.1534V230.114H82.1023C82.0341 230.256 81.9205 230.408 81.7614 230.57C81.6023 230.732 81.3906 230.869 81.1264 230.983C80.8622 231.097 80.5398 231.153 80.1591 231.153ZM80.3125 230.25C80.7102 230.25 81.0455 230.172 81.3182 230.016C81.5938 229.859 81.8011 229.658 81.9403 229.411C82.0824 229.163 82.1534 228.903 82.1534 228.631V227.71C82.1108 227.761 82.017 227.808 81.8722 227.851C81.7301 227.891 81.5653 227.926 81.3778 227.957C81.1932 227.986 81.0128 228.011 80.8366 228.034C80.6634 228.054 80.5227 228.071 80.4148 228.085C80.1534 228.119 79.9091 228.175 79.6818 228.251C79.4574 228.325 79.2756 228.437 79.1364 228.588C79 228.736 78.9318 228.937 78.9318 229.193C78.9318 229.543 79.0611 229.807 79.3196 229.986C79.581 230.162 79.9119 230.25 80.3125 230.25ZM86.0004 227.062V231H84.9947V224.455H85.9663V225.477H86.0515C86.2049 225.145 86.4379 224.878 86.7504 224.676C87.0629 224.472 87.4663 224.369 87.9606 224.369C88.4038 224.369 88.7915 224.46 89.1239 224.642C89.4563 224.821 89.7148 225.094 89.8995 225.46C90.0842 225.824 90.1765 226.284 90.1765 226.841V231H89.1708V226.909C89.1708 226.395 89.0373 225.994 88.7702 225.707C88.5032 225.418 88.1367 225.273 87.6708 225.273C87.3498 225.273 87.0629 225.342 86.81 225.482C86.56 225.621 86.3626 225.824 86.2177 226.091C86.0728 226.358 86.0004 226.682 86.0004 227.062ZM94.8608 224.455V225.307H91.4688V224.455H94.8608ZM92.4574 222.886H93.4631V229.125C93.4631 229.409 93.5043 229.622 93.5866 229.764C93.6719 229.903 93.7798 229.997 93.9105 230.045C94.044 230.091 94.1847 230.114 94.3324 230.114C94.4432 230.114 94.5341 230.108 94.6051 230.097C94.6761 230.082 94.733 230.071 94.7756 230.062L94.9801 230.966C94.9119 230.991 94.8168 231.017 94.6946 231.043C94.5724 231.071 94.4176 231.085 94.2301 231.085C93.946 231.085 93.6676 231.024 93.3949 230.902C93.125 230.78 92.9006 230.594 92.7216 230.344C92.5455 230.094 92.4574 229.778 92.4574 229.398V222.886Z" fill="#8A8F98"/>
<line x1="104" y1="226.5" x2="383" y2="226.5" stroke="white" stroke-opacity="0.08"/>
<path d="M54.4277 265.288V272.711L48 276.423L41.5723 272.711V265.288L48 261.576L54.4277 265.288Z" stroke="#8A8F98"/>
<path d="M72.0795 267H71.0227C70.9602 266.696 70.8509 266.429 70.6946 266.199C70.5412 265.969 70.3537 265.776 70.1321 265.619C69.9134 265.46 69.6705 265.341 69.4034 265.261C69.1364 265.182 68.858 265.142 68.5682 265.142C68.0398 265.142 67.5611 265.276 67.1321 265.543C66.706 265.81 66.3665 266.203 66.1136 266.723C65.8636 267.243 65.7386 267.881 65.7386 268.636C65.7386 269.392 65.8636 270.03 66.1136 270.55C66.3665 271.07 66.706 271.463 67.1321 271.73C67.5611 271.997 68.0398 272.131 68.5682 272.131C68.858 272.131 69.1364 272.091 69.4034 272.011C69.6705 271.932 69.9134 271.814 70.1321 271.658C70.3537 271.499 70.5412 271.304 70.6946 271.074C70.8509 270.841 70.9602 270.574 71.0227 270.273H72.0795C72 270.719 71.8551 271.118 71.6449 271.47C71.4347 271.822 71.1733 272.122 70.8608 272.369C70.5483 272.614 70.1974 272.8 69.8082 272.928C69.4219 273.055 69.0085 273.119 68.5682 273.119C67.8239 273.119 67.1619 272.938 66.5824 272.574C66.0028 272.21 65.5469 271.693 65.2145 271.023C64.8821 270.352 64.7159 269.557 64.7159 268.636C64.7159 267.716 64.8821 266.92 65.2145 266.25C65.5469 265.58 66.0028 265.062 66.5824 264.699C67.1619 264.335 67.8239 264.153 68.5682 264.153C69.0085 264.153 69.4219 264.217 69.8082 264.345C70.1974 264.473 70.5483 264.661 70.8608 264.908C71.1733 265.152 71.4347 265.45 71.6449 265.803C71.8551 266.152 72 266.551 72.0795 267ZM74.1452 273H73.0373L76.2418 264.273H77.3327L80.5373 273H79.4293L76.8214 265.653H76.7532L74.1452 273ZM74.5543 269.591H79.0202V270.528H74.5543V269.591ZM82.2546 273H81.1467L84.3512 264.273H85.4421L88.6467 273H87.5387L84.9308 265.653H84.8626L82.2546 273ZM82.6637 269.591H87.1296V270.528H82.6637V269.591ZM98.1538 266.455C98.1026 266.023 97.8952 265.688 97.5316 265.449C97.168 265.21 96.7219 265.091 96.1935 265.091C95.8072 265.091 95.4691 265.153 95.1793 265.278C94.8924 265.403 94.668 265.575 94.506 265.794C94.3469 266.013 94.2674 266.261 94.2674 266.54C94.2674 266.773 94.3228 266.973 94.4336 267.141C94.5472 267.305 94.6921 267.443 94.8683 267.554C95.0444 267.662 95.229 267.751 95.4222 267.822C95.6154 267.891 95.793 267.946 95.9549 267.989L96.8413 268.227C97.0685 268.287 97.3214 268.369 97.5998 268.474C97.881 268.58 98.1495 268.723 98.4052 268.905C98.6637 269.084 98.8768 269.314 99.0444 269.595C99.212 269.876 99.2958 270.222 99.2958 270.631C99.2958 271.102 99.1722 271.528 98.9251 271.909C98.6808 272.29 98.3228 272.592 97.8512 272.817C97.3825 273.041 96.8129 273.153 96.1424 273.153C95.5174 273.153 94.9762 273.053 94.5188 272.851C94.0643 272.649 93.7063 272.368 93.445 272.007C93.1864 271.646 93.0401 271.227 93.006 270.75H94.0969C94.1254 271.08 94.2362 271.352 94.4293 271.568C94.6254 271.781 94.8725 271.94 95.1708 272.045C95.4719 272.148 95.7958 272.199 96.1424 272.199C96.5458 272.199 96.908 272.134 97.229 272.003C97.5501 271.869 97.8043 271.685 97.9918 271.449C98.1793 271.21 98.2731 270.932 98.2731 270.614C98.2731 270.324 98.1921 270.088 98.0302 269.906C97.8683 269.724 97.6552 269.577 97.391 269.463C97.1268 269.349 96.8413 269.25 96.5344 269.165L95.4606 268.858C94.7788 268.662 94.239 268.382 93.8413 268.018C93.4435 267.655 93.2447 267.179 93.2447 266.591C93.2447 266.102 93.3768 265.676 93.641 265.312C93.908 264.946 94.266 264.662 94.7148 264.46C95.1665 264.256 95.6708 264.153 96.2276 264.153C96.7901 264.153 97.2901 264.254 97.7276 264.456C98.1651 264.655 98.5117 264.928 98.7674 265.274C99.0259 265.621 99.1623 266.014 99.1765 266.455H98.1538ZM103.641 273.136C103.011 273.136 102.467 272.997 102.009 272.719C101.555 272.438 101.204 272.045 100.957 271.543C100.712 271.037 100.59 270.449 100.59 269.778C100.59 269.108 100.712 268.517 100.957 268.006C101.204 267.491 101.548 267.091 101.988 266.804C102.431 266.514 102.948 266.369 103.539 266.369C103.88 266.369 104.217 266.426 104.549 266.54C104.881 266.653 105.184 266.838 105.457 267.094C105.729 267.347 105.947 267.682 106.109 268.099C106.271 268.517 106.352 269.031 106.352 269.642V270.068H101.306V269.199H105.329C105.329 268.83 105.255 268.5 105.107 268.21C104.962 267.92 104.755 267.692 104.485 267.524C104.218 267.357 103.903 267.273 103.539 267.273C103.138 267.273 102.792 267.372 102.499 267.571C102.21 267.767 101.987 268.023 101.83 268.338C101.674 268.653 101.596 268.991 101.596 269.352V269.932C101.596 270.426 101.681 270.845 101.852 271.189C102.025 271.53 102.265 271.79 102.572 271.969C102.879 272.145 103.235 272.233 103.641 272.233C103.906 272.233 104.144 272.196 104.357 272.122C104.573 272.045 104.759 271.932 104.915 271.781C105.072 271.628 105.192 271.437 105.278 271.21L106.249 271.483C106.147 271.812 105.975 272.102 105.734 272.352C105.492 272.599 105.194 272.793 104.839 272.932C104.484 273.068 104.085 273.136 103.641 273.136ZM110.54 273.136C109.927 273.136 109.398 272.991 108.955 272.702C108.512 272.412 108.171 272.013 107.933 271.504C107.694 270.996 107.575 270.415 107.575 269.761C107.575 269.097 107.697 268.51 107.941 268.001C108.188 267.49 108.532 267.091 108.972 266.804C109.415 266.514 109.933 266.369 110.523 266.369C110.984 266.369 111.398 266.455 111.768 266.625C112.137 266.795 112.44 267.034 112.675 267.341C112.911 267.648 113.058 268.006 113.114 268.415H112.109C112.032 268.116 111.862 267.852 111.597 267.622C111.336 267.389 110.984 267.273 110.54 267.273C110.148 267.273 109.805 267.375 109.509 267.58C109.217 267.781 108.988 268.067 108.823 268.436C108.661 268.803 108.58 269.233 108.58 269.727C108.58 270.233 108.66 270.673 108.819 271.048C108.981 271.423 109.208 271.714 109.501 271.922C109.796 272.129 110.143 272.233 110.54 272.233C110.802 272.233 111.039 272.188 111.252 272.097C111.465 272.006 111.646 271.875 111.793 271.705C111.941 271.534 112.046 271.33 112.109 271.091H113.114C113.058 271.477 112.917 271.825 112.692 272.135C112.471 272.442 112.177 272.686 111.81 272.868C111.447 273.047 111.023 273.136 110.54 273.136ZM117.431 266.455V267.307H114.039V266.455H117.431ZM115.028 264.886H116.033V271.125C116.033 271.409 116.075 271.622 116.157 271.764C116.242 271.903 116.35 271.997 116.481 272.045C116.614 272.091 116.755 272.114 116.903 272.114C117.013 272.114 117.104 272.108 117.175 272.097C117.246 272.082 117.303 272.071 117.346 272.062L117.55 272.966C117.482 272.991 117.387 273.017 117.265 273.043C117.143 273.071 116.988 273.085 116.8 273.085C116.516 273.085 116.238 273.024 115.965 272.902C115.695 272.78 115.471 272.594 115.292 272.344C115.116 272.094 115.028 271.778 115.028 271.398V264.886ZM118.944 273V266.455H119.95V273H118.944ZM119.455 265.364C119.259 265.364 119.09 265.297 118.948 265.163C118.809 265.03 118.739 264.869 118.739 264.682C118.739 264.494 118.809 264.334 118.948 264.2C119.09 264.067 119.259 264 119.455 264C119.651 264 119.819 264.067 119.958 264.2C120.1 264.334 120.171 264.494 120.171 264.682C120.171 264.869 120.1 265.03 119.958 265.163C119.819 265.297 119.651 265.364 119.455 265.364ZM124.451 273.136C123.86 273.136 123.341 272.996 122.895 272.714C122.452 272.433 122.105 272.04 121.855 271.534C121.608 271.028 121.485 270.437 121.485 269.761C121.485 269.08 121.608 268.484 121.855 267.976C122.105 267.467 122.452 267.072 122.895 266.791C123.341 266.51 123.86 266.369 124.451 266.369C125.042 266.369 125.559 266.51 126.002 266.791C126.448 267.072 126.794 267.467 127.042 267.976C127.292 268.484 127.417 269.08 127.417 269.761C127.417 270.437 127.292 271.028 127.042 271.534C126.794 272.04 126.448 272.433 126.002 272.714C125.559 272.996 125.042 273.136 124.451 273.136ZM124.451 272.233C124.9 272.233 125.269 272.118 125.559 271.888C125.848 271.658 126.063 271.355 126.202 270.98C126.341 270.605 126.411 270.199 126.411 269.761C126.411 269.324 126.341 268.916 126.202 268.538C126.063 268.161 125.848 267.855 125.559 267.622C125.269 267.389 124.9 267.273 124.451 267.273C124.002 267.273 123.632 267.389 123.343 267.622C123.053 267.855 122.838 268.161 122.699 268.538C122.56 268.916 122.49 269.324 122.49 269.761C122.49 270.199 122.56 270.605 122.699 270.98C122.838 271.355 123.053 271.658 123.343 271.888C123.632 272.118 124.002 272.233 124.451 272.233ZM129.957 269.062V273H128.952V266.455H129.923V267.477H130.009C130.162 267.145 130.395 266.878 130.707 266.676C131.02 266.472 131.423 266.369 131.918 266.369C132.361 266.369 132.749 266.46 133.081 266.642C133.413 266.821 133.672 267.094 133.857 267.46C134.041 267.824 134.134 268.284 134.134 268.841V273H133.128V268.909C133.128 268.395 132.994 267.994 132.727 267.707C132.46 267.418 132.094 267.273 131.628 267.273C131.307 267.273 131.02 267.342 130.767 267.482C130.517 267.621 130.32 267.824 130.175 268.091C130.03 268.358 129.957 268.682 129.957 269.062ZM142.397 264.273V273H141.341V265.381H141.289L139.159 266.795V265.722L141.341 264.273H142.397ZM147.754 273.119C147.112 273.119 146.565 272.945 146.113 272.595C145.662 272.243 145.316 271.733 145.078 271.065C144.839 270.395 144.72 269.585 144.72 268.636C144.72 267.693 144.839 266.888 145.078 266.22C145.319 265.55 145.666 265.038 146.118 264.686C146.572 264.331 147.118 264.153 147.754 264.153C148.39 264.153 148.934 264.331 149.386 264.686C149.841 265.038 150.187 265.55 150.426 266.22C150.667 266.888 150.788 267.693 150.788 268.636C150.788 269.585 150.669 270.395 150.43 271.065C150.191 271.733 149.846 272.243 149.395 272.595C148.943 272.945 148.396 273.119 147.754 273.119ZM147.754 272.182C148.39 272.182 148.885 271.875 149.237 271.261C149.589 270.648 149.765 269.773 149.765 268.636C149.765 267.881 149.684 267.237 149.522 266.706C149.363 266.175 149.133 265.77 148.832 265.491C148.534 265.213 148.174 265.074 147.754 265.074C147.123 265.074 146.63 265.385 146.275 266.007C145.92 266.626 145.743 267.503 145.743 268.636C145.743 269.392 145.822 270.034 145.981 270.562C146.14 271.091 146.369 271.493 146.667 271.768C146.968 272.044 147.331 272.182 147.754 272.182ZM152.446 273L156.349 265.278V265.21H151.849V264.273H157.44V265.261L153.554 273H152.446Z" fill="#F7F8F8"/>
<g clip-path="url(#clip1_696_32)">
<path d="M341 261C341.459 261 341.881 261.253 342.1 261.656L348.85 274.156C349.059 274.544 349.05 275.012 348.825 275.391C348.6 275.769 348.191 276 347.75 276H334.25C333.809 276 333.4 275.769 333.175 275.391C332.95 275.012 332.941 274.544 333.15 274.156L339.9 261.656C340.119 261.253 340.541 261 341 261ZM341 272C340.735 272 340.48 272.105 340.293 272.293C340.105 272.48 340 272.735 340 273C340 273.265 340.105 273.52 340.293 273.707C340.48 273.895 340.735 274 341 274C341.265 274 341.52 273.895 341.707 273.707C341.895 273.52 342 273.265 342 273C342 272.735 341.895 272.48 341.707 272.293C341.52 272.105 341.265 272 341 272ZM341 266C340.431 266 339.978 266.484 340.019 267.053L340.25 270.303C340.278 270.694 340.606 271 340.997 271C341.391 271 341.716 270.697 341.744 270.303L341.975 267.053C342.016 266.484 341.566 266 340.994 266H341Z" fill="#EAB308"/>
</g>
<path d="M368.75 273.119C368.108 273.119 367.561 272.945 367.109 272.595C366.658 272.243 366.313 271.733 366.074 271.065C365.835 270.395 365.716 269.585 365.716 268.636C365.716 267.693 365.835 266.888 366.074 266.22C366.315 265.55 366.662 265.038 367.114 264.686C367.568 264.331 368.114 264.153 368.75 264.153C369.386 264.153 369.93 264.331 370.382 264.686C370.837 265.038 371.183 265.55 371.422 266.22C371.663 266.888 371.784 267.693 371.784 268.636C371.784 269.585 371.665 270.395 371.426 271.065C371.188 271.733 370.842 272.243 370.391 272.595C369.939 272.945 369.392 273.119 368.75 273.119ZM368.75 272.182C369.386 272.182 369.881 271.875 370.233 271.261C370.585 270.648 370.761 269.773 370.761 268.636C370.761 267.881 370.68 267.237 370.518 266.706C370.359 266.175 370.129 265.77 369.828 265.491C369.53 265.213 369.17 265.074 368.75 265.074C368.119 265.074 367.626 265.385 367.271 266.007C366.916 266.626 366.739 267.503 366.739 268.636C366.739 269.392 366.818 270.034 366.977 270.562C367.136 271.091 367.365 271.493 367.663 271.768C367.964 272.044 368.327 272.182 368.75 272.182ZM373.42 273V266.455H374.392V267.477H374.477C374.614 267.128 374.834 266.857 375.138 266.663C375.442 266.467 375.807 266.369 376.233 266.369C376.665 266.369 377.024 266.467 377.311 266.663C377.601 266.857 377.827 267.128 377.989 267.477H378.057C378.224 267.139 378.476 266.871 378.811 266.672C379.146 266.47 379.548 266.369 380.017 266.369C380.602 266.369 381.081 266.553 381.453 266.919C381.825 267.283 382.011 267.849 382.011 268.619V273H381.006V268.619C381.006 268.136 380.874 267.791 380.609 267.584C380.345 267.376 380.034 267.273 379.676 267.273C379.216 267.273 378.859 267.412 378.607 267.69C378.354 267.966 378.227 268.315 378.227 268.739V273H377.205V268.517C377.205 268.145 377.084 267.845 376.842 267.618C376.601 267.388 376.29 267.273 375.909 267.273C375.648 267.273 375.403 267.342 375.176 267.482C374.952 267.621 374.77 267.814 374.631 268.061C374.494 268.305 374.426 268.588 374.426 268.909V273H373.42Z" fill="#8A8F98"/>
<path d="M48.4205 310.636C48.4205 311.557 48.2543 312.352 47.9219 313.023C47.5895 313.693 47.1335 314.21 46.554 314.574C45.9744 314.938 45.3125 315.119 44.5682 315.119C43.8239 315.119 43.1619 314.938 42.5824 314.574C42.0028 314.21 41.5469 313.693 41.2145 313.023C40.8821 312.352 40.7159 311.557 40.7159 310.636C40.7159 309.716 40.8821 308.92 41.2145 308.25C41.5469 307.58 42.0028 307.062 42.5824 306.699C43.1619 306.335 43.8239 306.153 44.5682 306.153C45.3125 306.153 45.9744 306.335 46.554 306.699C47.1335 307.062 47.5895 307.58 47.9219 308.25C48.2543 308.92 48.4205 309.716 48.4205 310.636ZM47.3977 310.636C47.3977 309.881 47.2713 309.243 47.0185 308.723C46.7685 308.203 46.429 307.81 46 307.543C45.5739 307.276 45.0966 307.142 44.5682 307.142C44.0398 307.142 43.5611 307.276 43.1321 307.543C42.706 307.81 42.3665 308.203 42.1136 308.723C41.8636 309.243 41.7386 309.881 41.7386 310.636C41.7386 311.392 41.8636 312.03 42.1136 312.55C42.3665 313.07 42.706 313.463 43.1321 313.73C43.5611 313.997 44.0398 314.131 44.5682 314.131C45.0966 314.131 45.5739 313.997 46 313.73C46.429 313.463 46.7685 313.07 47.0185 312.55C47.2713 312.03 47.3977 311.392 47.3977 310.636ZM52.9077 308.455V309.307H49.5156V308.455H52.9077ZM50.5043 306.886H51.5099V313.125C51.5099 313.409 51.5511 313.622 51.6335 313.764C51.7188 313.903 51.8267 313.997 51.9574 314.045C52.0909 314.091 52.2315 314.114 52.3793 314.114C52.4901 314.114 52.581 314.108 52.652 314.097C52.723 314.082 52.7798 314.071 52.8224 314.062L53.027 314.966C52.9588 314.991 52.8636 315.017 52.7415 315.043C52.6193 315.071 52.4645 315.085 52.277 315.085C51.9929 315.085 51.7145 315.024 51.4418 314.902C51.1719 314.78 50.9474 314.594 50.7685 314.344C50.5923 314.094 50.5043 313.778 50.5043 313.398V306.886ZM55.5668 311.062V315H54.5611V306.273H55.5668V309.477H55.652C55.8054 309.139 56.0355 308.871 56.3423 308.672C56.652 308.47 57.0639 308.369 57.5781 308.369C58.0241 308.369 58.4148 308.459 58.75 308.638C59.0852 308.814 59.3452 309.085 59.5298 309.452C59.7173 309.815 59.8111 310.278 59.8111 310.841V315H58.8054V310.909C58.8054 310.389 58.6705 309.987 58.4006 309.703C58.1335 309.416 57.7628 309.273 57.2884 309.273C56.9588 309.273 56.6634 309.342 56.402 309.482C56.1435 309.621 55.9389 309.824 55.7884 310.091C55.6406 310.358 55.5668 310.682 55.5668 311.062ZM64.3952 315.136C63.7646 315.136 63.2205 314.997 62.7631 314.719C62.3086 314.438 61.9577 314.045 61.7106 313.543C61.4663 313.037 61.3441 312.449 61.3441 311.778C61.3441 311.108 61.4663 310.517 61.7106 310.006C61.9577 309.491 62.3015 309.091 62.7418 308.804C63.185 308.514 63.7021 308.369 64.293 308.369C64.6339 308.369 64.9705 308.426 65.3029 308.54C65.6353 308.653 65.9379 308.838 66.2106 309.094C66.4833 309.347 66.7006 309.682 66.8626 310.099C67.0245 310.517 67.1055 311.031 67.1055 311.642V312.068H62.06V311.199H66.0827C66.0827 310.83 66.0089 310.5 65.8612 310.21C65.7163 309.92 65.5089 309.692 65.239 309.524C64.9719 309.357 64.6566 309.273 64.293 309.273C63.8924 309.273 63.5458 309.372 63.2532 309.571C62.9634 309.767 62.7404 310.023 62.5842 310.338C62.4279 310.653 62.3498 310.991 62.3498 311.352V311.932C62.3498 312.426 62.435 312.845 62.6055 313.189C62.7788 313.53 63.0188 313.79 63.3256 313.969C63.6325 314.145 63.989 314.233 64.3952 314.233C64.6594 314.233 64.8981 314.196 65.1112 314.122C65.3271 314.045 65.5131 313.932 65.6694 313.781C65.8256 313.628 65.9464 313.437 66.0316 313.21L67.0032 313.483C66.9009 313.812 66.729 314.102 66.4876 314.352C66.2461 314.599 65.9478 314.793 65.5927 314.932C65.2376 315.068 64.8384 315.136 64.3952 315.136ZM68.6353 315V308.455H69.6069V309.443H69.6751C69.7944 309.119 70.0103 308.857 70.3228 308.655C70.6353 308.453 70.9876 308.352 71.3796 308.352C71.4535 308.352 71.5458 308.354 71.6566 308.357C71.7674 308.359 71.8512 308.364 71.908 308.369V309.392C71.8739 309.384 71.7958 309.371 71.6737 309.354C71.5543 309.334 71.4279 309.324 71.2944 309.324C70.9762 309.324 70.6921 309.391 70.4421 309.524C70.195 309.655 69.9989 309.837 69.854 310.07C69.712 310.3 69.641 310.562 69.641 310.858V315H68.6353Z" fill="#8A8F98"/>
<line x1="81" y1="310.5" x2="383" y2="310.5" stroke="white" stroke-opacity="0.08"/>
<path d="M54.4277 349.288V356.711L48 360.423L41.5723 356.711V349.288L48 345.576L54.4277 349.288Z" stroke="#8A8F98"/>
<path d="M65.0568 348.273H66.3182L69.2841 355.517H69.3864L72.3523 348.273H73.6136V357H72.625V350.369H72.5398L69.8125 357H68.858L66.1307 350.369H66.0455V357H65.0568V348.273ZM83.0962 352.636C83.0962 353.557 82.93 354.352 82.5977 355.023C82.2653 355.693 81.8093 356.21 81.2298 356.574C80.6502 356.938 79.9883 357.119 79.244 357.119C78.4996 357.119 77.8377 356.938 77.2582 356.574C76.6786 356.21 76.2227 355.693 75.8903 355.023C75.5579 354.352 75.3917 353.557 75.3917 352.636C75.3917 351.716 75.5579 350.92 75.8903 350.25C76.2227 349.58 76.6786 349.062 77.2582 348.699C77.8377 348.335 78.4996 348.153 79.244 348.153C79.9883 348.153 80.6502 348.335 81.2298 348.699C81.8093 349.062 82.2653 349.58 82.5977 350.25C82.93 350.92 83.0962 351.716 83.0962 352.636ZM82.0735 352.636C82.0735 351.881 81.9471 351.243 81.6942 350.723C81.4442 350.203 81.1048 349.81 80.6758 349.543C80.2496 349.276 79.7724 349.142 79.244 349.142C78.7156 349.142 78.2369 349.276 77.8079 349.543C77.3817 349.81 77.0423 350.203 76.7894 350.723C76.5394 351.243 76.4144 351.881 76.4144 352.636C76.4144 353.392 76.5394 354.03 76.7894 354.55C77.0423 355.07 77.3817 355.463 77.8079 355.73C78.2369 355.997 78.7156 356.131 79.244 356.131C79.7724 356.131 80.2496 355.997 80.6758 355.73C81.1048 355.463 81.4442 355.07 81.6942 354.55C81.9471 354.03 82.0735 353.392 82.0735 352.636ZM87.5664 357H84.8732V348.273H87.6857C88.5323 348.273 89.2567 348.447 89.859 348.797C90.4613 349.143 90.9229 349.642 91.244 350.293C91.565 350.94 91.7255 351.716 91.7255 352.619C91.7255 353.528 91.5636 354.311 91.2397 354.967C90.9158 355.621 90.4442 356.124 89.8249 356.476C89.2056 356.825 88.4528 357 87.5664 357ZM85.93 356.062H87.4982C88.2198 356.062 88.8178 355.923 89.2923 355.645C89.7667 355.366 90.1204 354.97 90.3533 354.456C90.5863 353.942 90.7028 353.33 90.7028 352.619C90.7028 351.915 90.5877 351.308 90.3576 350.8C90.1275 350.288 89.7837 349.896 89.3263 349.624C88.869 349.348 88.2994 349.21 87.6175 349.21H85.93V356.062ZM96.8732 357V348.273H99.8221C100.504 348.273 101.064 348.389 101.501 348.622C101.939 348.852 102.262 349.169 102.473 349.572C102.683 349.976 102.788 350.435 102.788 350.949C102.788 351.463 102.683 351.919 102.473 352.317C102.262 352.714 101.94 353.027 101.505 353.254C101.071 353.479 100.515 353.591 99.8391 353.591H97.4528V352.636H99.805C100.271 352.636 100.646 352.568 100.93 352.432C101.217 352.295 101.424 352.102 101.552 351.852C101.683 351.599 101.748 351.298 101.748 350.949C101.748 350.599 101.683 350.294 101.552 350.033C101.422 349.771 101.213 349.57 100.926 349.428C100.639 349.283 100.26 349.21 99.788 349.21H97.93V357H96.8732ZM100.981 353.08L103.129 357H101.902L99.788 353.08H100.981ZM111.913 352.636C111.913 353.557 111.746 354.352 111.414 355.023C111.082 355.693 110.626 356.21 110.046 356.574C109.467 356.938 108.805 357.119 108.06 357.119C107.316 357.119 106.654 356.938 106.075 356.574C105.495 356.21 105.039 355.693 104.707 355.023C104.374 354.352 104.208 353.557 104.208 352.636C104.208 351.716 104.374 350.92 104.707 350.25C105.039 349.58 105.495 349.062 106.075 348.699C106.654 348.335 107.316 348.153 108.06 348.153C108.805 348.153 109.467 348.335 110.046 348.699C110.626 349.062 111.082 349.58 111.414 350.25C111.746 350.92 111.913 351.716 111.913 352.636ZM110.89 352.636C110.89 351.881 110.763 351.243 110.511 350.723C110.261 350.203 109.921 349.81 109.492 349.543C109.066 349.276 108.589 349.142 108.06 349.142C107.532 349.142 107.053 349.276 106.624 349.543C106.198 349.81 105.859 350.203 105.606 350.723C105.356 351.243 105.231 351.881 105.231 352.636C105.231 353.392 105.356 354.03 105.606 354.55C105.859 355.07 106.198 355.463 106.624 355.73C107.053 355.997 107.532 356.131 108.06 356.131C108.589 356.131 109.066 355.997 109.492 355.73C109.921 355.463 110.261 355.07 110.511 354.55C110.763 354.03 110.89 353.392 110.89 352.636ZM113.69 357V348.273H118.957V349.21H114.746V352.159H118.684V353.097H114.746V356.062H119.025V357H113.69ZM129.452 350.455L127.032 357H126.009L123.589 350.455H124.68L126.487 355.67H126.555L128.362 350.455H129.452ZM130.558 355.21V354.341L134.393 348.273H135.024V349.619H134.598L131.7 354.205V354.273H136.865V355.21H130.558ZM134.666 357V354.946V354.541V348.273H135.672V357H134.666ZM138.802 357.068C138.592 357.068 138.411 356.993 138.261 356.842C138.11 356.692 138.035 356.511 138.035 356.301C138.035 356.091 138.11 355.911 138.261 355.76C138.411 355.609 138.592 355.534 138.802 355.534C139.012 355.534 139.192 355.609 139.343 355.76C139.494 355.911 139.569 356.091 139.569 356.301C139.569 356.44 139.533 356.568 139.462 356.685C139.394 356.801 139.302 356.895 139.185 356.966C139.072 357.034 138.944 357.068 138.802 357.068ZM141.357 357V356.233L144.237 353.08C144.575 352.71 144.854 352.389 145.072 352.116C145.291 351.841 145.453 351.582 145.558 351.341C145.666 351.097 145.72 350.841 145.72 350.574C145.72 350.267 145.646 350.001 145.499 349.777C145.354 349.553 145.155 349.379 144.902 349.257C144.649 349.135 144.365 349.074 144.05 349.074C143.714 349.074 143.422 349.143 143.172 349.283C142.925 349.419 142.733 349.611 142.597 349.858C142.463 350.105 142.396 350.395 142.396 350.727H141.391C141.391 350.216 141.509 349.767 141.744 349.381C141.98 348.994 142.301 348.693 142.707 348.477C143.116 348.261 143.575 348.153 144.084 348.153C144.595 348.153 145.048 348.261 145.443 348.477C145.838 348.693 146.148 348.984 146.372 349.351C146.597 349.717 146.709 350.125 146.709 350.574C146.709 350.895 146.651 351.209 146.534 351.516C146.42 351.82 146.222 352.159 145.938 352.534C145.656 352.906 145.266 353.361 144.766 353.898L142.805 355.994V356.062H146.862V357H141.357Z" fill="#F7F8F8"/>
<path d="M362.972 348.273V357H361.915V349.381H361.864L359.733 350.795V349.722L361.915 348.273H362.972ZM368.209 357.119C367.709 357.119 367.259 357.02 366.858 356.821C366.457 356.622 366.136 356.349 365.895 356.003C365.653 355.656 365.521 355.261 365.499 354.818H366.521C366.561 355.213 366.74 355.54 367.058 355.798C367.379 356.054 367.763 356.182 368.209 356.182C368.567 356.182 368.885 356.098 369.163 355.93C369.445 355.763 369.665 355.533 369.824 355.24C369.986 354.945 370.067 354.611 370.067 354.239C370.067 353.858 369.983 353.518 369.815 353.22C369.651 352.919 369.423 352.682 369.134 352.509C368.844 352.335 368.513 352.247 368.141 352.244C367.874 352.241 367.599 352.283 367.318 352.368C367.037 352.45 366.805 352.557 366.624 352.688L365.635 352.568L366.163 348.273H370.697V349.21H367.05L366.743 351.784H366.794C366.973 351.642 367.197 351.524 367.467 351.43C367.737 351.337 368.018 351.29 368.311 351.29C368.845 351.29 369.321 351.418 369.739 351.673C370.159 351.926 370.489 352.273 370.727 352.713C370.969 353.153 371.089 353.656 371.089 354.222C371.089 354.778 370.964 355.276 370.714 355.713C370.467 356.148 370.126 356.491 369.692 356.744C369.257 356.994 368.763 357.119 368.209 357.119ZM372.799 357V350.455H373.771V351.477H373.856C373.993 351.128 374.213 350.857 374.517 350.663C374.821 350.467 375.186 350.369 375.612 350.369C376.044 350.369 376.403 350.467 376.69 350.663C376.98 350.857 377.206 351.128 377.368 351.477H377.436C377.603 351.139 377.855 350.871 378.19 350.672C378.525 350.47 378.927 350.369 379.396 350.369C379.981 350.369 380.46 350.553 380.832 350.919C381.204 351.283 381.39 351.849 381.39 352.619V357H380.385V352.619C380.385 352.136 380.252 351.791 379.988 351.584C379.724 351.376 379.413 351.273 379.055 351.273C378.595 351.273 378.238 351.412 377.985 351.69C377.733 351.966 377.606 352.315 377.606 352.739V357H376.583V352.517C376.583 352.145 376.463 351.845 376.221 351.618C375.98 351.388 375.669 351.273 375.288 351.273C375.027 351.273 374.782 351.342 374.555 351.482C374.331 351.621 374.149 351.814 374.01 352.061C373.873 352.305 373.805 352.588 373.805 352.909V357H372.799Z" fill="#8A8F98"/>
</g>
<defs>
<filter id="filter0_d_696_32" x="0" y="0" width="423" height="402" filterUnits="userSpaceOnUse" color-interpolation-filters="sRGB">
<feFlood flood-opacity="0" result="BackgroundImageFix"/>
<feColorMatrix in="SourceAlpha" type="matrix" values="0 0 0 0 0 0 0 0 0 0 0 0 0 0 0 0 0 0 127 0" result="hardAlpha"/>
<feOffset/>
<feGaussianBlur stdDeviation="4"/>
<feComposite in2="hardAlpha" operator="out"/>
<feColorMatrix type="matrix" values="0 0 0 0 0 0 0 0 0 0 0 0 0 0 0 0 0 0 0.25 0"/>
<feBlend mode="normal" in2="BackgroundImageFix" result="effect1_dropShadow_696_32"/>
<feBlend mode="normal" in="SourceGraphic" in2="effect1_dropShadow_696_32" result="shape"/>
</filter>
<clipPath id="clip0_696_32">
<rect width="16" height="16" fill="white" transform="translate(40 44)"/>
</clipPath>
<clipPath id="clip1_696_32">
<rect width="16" height="16" fill="white" transform="translate(333 261)"/>
</clipPath>
</defs>
</svg>
