<svg width="127" height="14" viewBox="0 0 127 14" fill="none" xmlns="http://www.w3.org/2000/svg">
<path d="M9.15522 11.8586L4.06986 10.7485C3.83997 10.6959 3.63376 10.5691 3.48303 10.3877C3.3323 10.2063 3.24542 9.98042 3.23578 9.74479V4.26704C3.24565 4.03126 3.33257 3.80521 3.48323 3.62357C3.63389 3.44192 3.83997 3.3147 4.06986 3.26141L9.15522 2.15718L9.70142 5.6271e-07H3.77409C2.77775 -0.00054327 1.82165 0.393124 1.11455 1.09505C0.407446 1.79698 0.00677062 2.75016 0 3.74648L0 10.2437C0.00417359 11.2417 0.403704 12.1974 1.11109 12.9015C1.81847 13.6055 2.77605 14.0005 3.77409 14H9.70142L9.15522 11.8586ZM13.4834 11.8586L18.5707 10.7485C18.8003 10.6955 19.006 10.5686 19.1564 10.3872C19.3067 10.2059 19.3933 9.98016 19.4028 9.74479V4.26704C19.3931 4.03152 19.3064 3.80568 19.1562 3.62407C19.0059 3.44246 18.8003 3.31507 18.5707 3.26141L13.4834 2.15718L12.9392 5.6271e-07H18.8645C19.8609 -0.00054327 20.817 0.393124 21.5241 1.09505C22.2312 1.79698 22.6319 2.75016 22.6386 3.74648V10.2437C22.6345 11.2417 22.2349 12.1974 21.5275 12.9015C20.8202 13.6055 19.8626 14.0005 18.8645 14H12.949L13.4834 11.8586Z" fill="#F7F8F8"/>
<path d="M9.15515 6.73941H13.4833V7.27969H9.15515V6.73941ZM106.286 13.7059H104.943C104.134 13.7048 103.358 13.3829 102.786 12.8107C102.213 12.2385 101.892 11.4627 101.891 10.6535V6.70983C101.889 6.30832 101.968 5.91055 102.121 5.53931C102.274 5.16806 102.498 4.83064 102.782 4.54636C103.065 4.26209 103.402 4.03654 103.773 3.88265C104.144 3.72876 104.541 3.64955 104.943 3.64955H106.286C107.095 3.64955 107.871 3.97081 108.444 4.54276C109.017 5.11471 109.339 5.89059 109.34 6.69997V10.6436C109.341 11.0453 109.262 11.443 109.109 11.8143C108.956 12.1855 108.731 12.523 108.447 12.8073C108.164 13.0917 107.827 13.3174 107.456 13.4716C107.085 13.6257 106.687 13.7054 106.286 13.7059ZM104.943 5.40448C104.598 5.405 104.267 5.54228 104.023 5.78623C103.779 6.03018 103.642 6.36089 103.642 6.70589V10.6495C103.642 10.9944 103.779 11.3249 104.023 11.5685C104.267 11.8121 104.598 11.949 104.943 11.949H106.286C106.457 11.9492 106.626 11.9158 106.784 11.8507C106.942 11.7855 107.086 11.6899 107.207 11.5692C107.328 11.4485 107.424 11.3052 107.489 11.1474C107.555 10.9896 107.589 10.8205 107.589 10.6495V6.70589C107.589 6.36055 107.451 6.02954 107.207 5.78553C106.962 5.54153 106.631 5.40448 106.286 5.40448H104.943ZM39.1014 0.327017H40.8504V13.4752H39.1014V0.327017ZM42.9011 3.87828H44.6521V13.4752H42.9011V3.87828ZM43.7766 0.327017C43.5422 0.325063 43.3125 0.392787 43.1167 0.521594C42.9208 0.650401 42.7676 0.834486 42.6766 1.05049C42.5855 1.26649 42.5607 1.50468 42.6052 1.73482C42.6497 1.96497 42.7616 2.1767 42.9267 2.34314C43.0917 2.50959 43.3025 2.62325 43.5323 2.66971C43.7621 2.71616 44.0004 2.69332 44.2172 2.60407C44.434 2.51482 44.6193 2.36319 44.7498 2.16842C44.8802 1.97365 44.9498 1.74453 44.9499 1.51011C44.9499 1.19804 44.8266 0.898597 44.6068 0.677004C44.3871 0.455412 44.0887 0.329617 43.7766 0.327017ZM32.8231 0.327017H30.6915C29.885 1.75462 27.9586 5.6687 25.9828 13.4752H27.8048C28.1143 12.2921 28.416 11.1898 28.7177 10.1862H35.1084C35.4055 11.1879 35.7092 12.2842 36.0194 13.4752H37.8414C35.8696 5.6687 33.9411 1.75462 33.1327 0.327017H32.8231ZM29.2738 8.41152C29.9476 6.25181 30.7753 4.14314 31.7504 2.10166H32.0876C33.0666 4.14167 33.895 6.25059 34.5662 8.41152H29.2738ZM98.5226 0.315186H100.27V13.4772H98.5226V0.315186ZM46.7028 0.327017H48.4518V13.4752H46.7028V0.327017Z" fill="#F7F8F8"/>
<path d="M50.711 13.7062C49.6133 13.6853 48.521 13.5452 47.4536 13.2882L47.8637 11.5865C50.5907 12.2451 51.8488 11.8842 52.2017 11.6102C52.5547 11.3361 52.5783 10.8707 52.5783 10.3364V7.35889H54.3274V10.3304C54.3274 10.922 54.3274 12.1564 53.2862 12.9806C52.675 13.4637 51.8231 13.7042 50.7229 13.7042" fill="#F7F8F8"/>
<path d="M54.3239 9.8451H52.5749V6.8696C52.5749 6.36482 52.5512 5.95862 52.2476 5.72003C51.9755 5.5051 51.031 5.08313 48.1324 5.78313L47.7222 4.08144C50.4394 3.42482 52.2732 3.51158 53.3321 4.34566C54.3279 5.13439 54.318 6.31749 54.318 6.87355L54.3239 9.8451ZM96.4246 11.3713C95.1961 11.8564 92.8141 12.2192 90.795 11.7203C89.6789 11.4423 89.5961 10.5747 89.5941 10.415V3.60228C89.5941 3.44256 89.6789 2.57496 90.795 2.2989C92.8437 1.79411 95.2572 2.1727 96.4719 2.66763L96.9017 0.960029C95.6257 0.520389 94.2839 0.302313 92.9344 0.31524C92.0716 0.307935 91.211 0.403922 90.371 0.601155C88.3617 1.09608 87.8372 2.78397 87.8392 3.60623V10.411C87.8392 11.2352 88.3617 12.9212 90.371 13.4181C91.211 13.6153 92.0716 13.7113 92.9344 13.704C94.2674 13.715 95.5929 13.5037 96.8564 13.0789L96.4246 11.3713ZM116.35 3.87834H118.101V13.4752H116.35V3.87834Z" fill="#F7F8F8"/>
<path d="M114.406 13.7065C113.295 13.7065 112.446 13.4659 111.842 12.9828C110.793 12.1586 110.797 10.9243 110.797 10.3327V3.86707H112.548V10.3347C112.548 10.8671 112.574 11.3324 112.925 11.6085C113.276 11.8845 114.264 12.2434 116.989 11.5848L117.401 13.2845C116.422 13.5421 115.417 13.6838 114.406 13.7065ZM125.077 0.327637H126.826V13.4758H125.077V0.327637Z" fill="#F7F8F8"/>
<path d="M123.169 13.7062C122.059 13.7062 121.209 13.4656 120.606 12.9845C119.559 12.1583 119.563 10.924 119.563 10.3324V7.35889H121.314V10.3344C121.314 10.8668 121.339 11.3321 121.688 11.6082C122.037 11.8842 123.029 12.2431 125.754 11.5845L126.164 13.2862C125.186 13.5424 124.181 13.6834 123.169 13.7062Z" fill="#F7F8F8"/>
<path d="M121.305 9.8452H119.554V6.87365C119.554 6.30971 119.554 5.1345 120.54 4.34576C121.599 3.51168 123.434 3.42689 126.15 4.08154L125.739 5.78323C122.841 5.0852 121.896 5.50717 121.624 5.7221C121.321 5.96267 121.297 6.36689 121.299 6.86971L121.305 9.8452ZM62.0847 4.27872C60.3535 3.04041 57.1197 3.96126 56.3369 4.21365L56.7667 5.91337C57.7842 5.56633 60.1681 5.05957 61.0653 5.70238C61.227 5.81872 61.4163 6.01985 61.4163 6.55422V13.4753H63.1653V6.55422C63.1653 5.31196 62.5738 4.63168 62.0847 4.27872Z" fill="#F7F8F8"/>
<path d="M58.9099 13.706C57.1353 13.706 55.9364 12.872 55.6288 11.4207C55.5311 11.0341 55.5145 10.6315 55.5799 10.2382C55.6454 9.84488 55.7917 9.46938 56.0094 9.13534C56.4885 8.42943 57.3049 7.97788 58.4288 7.79055C59.7717 7.55988 61.1498 7.64631 62.4533 8.04295L61.8756 9.69337C60.8503 9.39992 59.7722 9.33995 58.7206 9.51788C58.2849 9.58886 57.713 9.75253 57.4587 10.1232C57.3 10.408 57.2597 10.7436 57.3463 11.0579C57.3995 11.3044 57.5435 11.9531 58.9237 11.9531C59.8722 11.9531 61.3609 11.7737 61.844 11.61L62.408 13.2644C61.6705 13.5089 59.9747 13.706 58.9099 13.706ZM80.6041 4.27872C78.8767 3.04041 75.641 3.96126 74.8581 4.21365L75.288 5.91337C76.3055 5.56633 78.6894 5.05957 79.5866 5.70238C79.7483 5.81872 79.9356 6.01985 79.9356 6.55422V13.4753H81.6866V6.55422C81.6866 5.31196 81.095 4.63168 80.6041 4.27872Z" fill="#F7F8F8"/>
<path d="M77.4259 13.7065C75.6513 13.7065 74.4544 12.8724 74.1468 11.4212C74.0487 11.0347 74.0318 10.6322 74.0969 10.2389C74.1621 9.84556 74.308 9.46999 74.5253 9.1358C75.0065 8.42989 75.8228 7.97834 76.9468 7.79102C78.2896 7.56049 79.6677 7.64692 80.9713 8.04341L80.3916 9.69383C79.3663 9.40018 78.2882 9.34021 77.2366 9.51834C76.8008 9.58932 76.227 9.75299 75.9746 10.1237C75.815 10.4081 75.7746 10.7442 75.8622 11.0583C75.9135 11.3048 76.0594 11.9535 77.4299 11.9535C78.3803 11.9535 79.869 11.7741 80.3501 11.6105L80.9141 13.2648C80.1885 13.5093 78.4907 13.7065 77.4259 13.7065ZM65.2222 0.327637H66.9713V13.4758H65.2222V0.327637Z" fill="#F7F8F8"/>
<path d="M69.2292 13.7062C68.1315 13.6851 67.0393 13.5449 65.9717 13.2882L66.3839 11.5865C69.1109 12.2451 70.3689 11.8842 70.7219 11.6102C71.0748 11.3361 71.1005 10.8707 71.1005 10.3364V7.35889H72.8515V10.3304C72.8515 10.922 72.8515 12.1564 71.8084 12.9806C71.1971 13.4637 70.3472 13.7042 69.245 13.7042" fill="#F7F8F8"/>
<path d="M72.8426 9.84528H71.0916V6.86979C71.0916 6.365 71.068 5.95881 70.7643 5.72021C70.4922 5.50528 69.5477 5.08331 66.6491 5.78331L66.239 4.08162C68.9561 3.425 70.7899 3.51176 71.8468 4.34585C72.8446 5.13458 72.8328 6.31768 72.8328 6.87373L72.8426 9.84528Z" fill="#F7F8F8"/>
</svg>
