<svg width="34" height="20" viewBox="0 0 34 20" fill="none" xmlns="http://www.w3.org/2000/svg">
<path d="M9.46674 7.26337C9.46674 7.67492 9.51143 8.00862 9.58963 8.25333C9.67902 8.49803 9.79074 8.76499 9.94716 9.05419C10.003 9.14317 10.0254 9.23216 10.0254 9.31002C10.0254 9.42125 9.95833 9.53248 9.81309 9.64371L9.10921 10.1109C9.00866 10.1776 8.9081 10.211 8.81872 10.211C8.707 10.211 8.59527 10.1554 8.48354 10.0553C8.32713 9.88842 8.19305 9.71045 8.08133 9.53248C7.9696 9.34339 7.85788 9.13205 7.73498 8.87622C6.86351 9.89954 5.76859 10.4112 4.45022 10.4112C3.51172 10.4112 2.76315 10.1442 2.21569 9.61034C1.66823 9.07643 1.38892 8.36456 1.38892 7.47471C1.38892 6.52925 1.7241 5.76175 2.40563 5.18336C3.08716 4.60496 3.99214 4.31575 5.14292 4.31575C5.52279 4.31575 5.91384 4.34912 6.32722 4.40474C6.74061 4.46035 7.16517 4.54934 7.61208 4.64945V3.83746C7.61208 2.99211 7.43331 2.40259 7.08696 2.05777C6.72944 1.71295 6.12612 1.54611 5.26582 1.54611C4.87478 1.54611 4.47256 1.5906 4.05918 1.69071C3.64579 1.79082 3.24357 1.91317 2.85253 2.06889C2.67377 2.14675 2.5397 2.19125 2.46149 2.21349C2.38328 2.23574 2.32742 2.24686 2.28273 2.24686C2.12631 2.24686 2.0481 2.13563 2.0481 1.90205V1.35702C2.0481 1.17905 2.07045 1.04557 2.12631 0.967708C2.18217 0.889846 2.28273 0.811985 2.43914 0.734123C2.83019 0.533908 3.29944 0.367062 3.8469 0.233585C4.39436 0.0889847 4.97533 0.0222462 5.58983 0.0222462C6.91937 0.0222462 7.89139 0.322569 8.51706 0.923215C9.13156 1.52386 9.44439 2.43595 9.44439 3.65949V7.26337H9.46674ZM4.93064 8.95408C5.29934 8.95408 5.67921 8.88734 6.08143 8.75386C6.48364 8.62039 6.84117 8.37568 7.14283 8.04199C7.32159 7.83065 7.45566 7.59706 7.5227 7.33011C7.58973 7.06316 7.63442 6.74059 7.63442 6.3624V5.89523C7.31042 5.81737 6.96406 5.75063 6.60654 5.70614C6.24901 5.66165 5.90266 5.6394 5.55631 5.6394C4.80774 5.6394 4.26028 5.784 3.89159 6.08432C3.52289 6.38465 3.34413 6.80732 3.34413 7.36348C3.34413 7.88626 3.4782 8.27557 3.75752 8.54253C4.02566 8.8206 4.4167 8.95408 4.93064 8.95408ZM13.9023 10.1554C13.7012 10.1554 13.5671 10.122 13.4777 10.0441C13.3883 9.9774 13.3101 9.82168 13.2431 9.61034L10.6175 1.0122C10.5505 0.789739 10.517 0.645139 10.517 0.567277C10.517 0.389308 10.6063 0.2892 10.7851 0.2892H11.88C12.0923 0.2892 12.2376 0.322569 12.3158 0.400431C12.4051 0.467169 12.4722 0.622892 12.5392 0.834231L14.4162 8.19771L16.1591 0.834231C16.215 0.611769 16.282 0.467169 16.3714 0.400431C16.4608 0.333692 16.6172 0.2892 16.8183 0.2892H17.7121C17.9244 0.2892 18.0697 0.322569 18.159 0.400431C18.2484 0.467169 18.3266 0.622892 18.3713 0.834231L20.1366 8.28669L22.0695 0.834231C22.1365 0.611769 22.2147 0.467169 22.2929 0.400431C22.3823 0.333692 22.5276 0.2892 22.7287 0.2892H23.7677C23.9465 0.2892 24.047 0.378185 24.047 0.567277C24.047 0.622892 24.0359 0.678508 24.0247 0.745246C24.0135 0.811985 23.9912 0.900969 23.9465 1.02332L21.2539 9.62146C21.1868 9.84392 21.1086 9.98853 21.0192 10.0553C20.9299 10.122 20.7846 10.1665 20.5947 10.1665H19.6338C19.4216 10.1665 19.2763 10.1331 19.1869 10.0553C19.0976 9.9774 19.0193 9.8328 18.9747 9.61034L17.2429 2.43595L15.5223 9.59922C15.4664 9.82168 15.3994 9.96628 15.31 10.0441C15.2206 10.122 15.0642 10.1554 14.8631 10.1554H13.9023ZM28.2591 10.4557C27.6781 10.4557 27.0972 10.389 26.5385 10.2555C25.9799 10.122 25.5442 9.9774 25.2537 9.81056C25.0749 9.71045 24.952 9.59922 24.9073 9.49911C24.8626 9.399 24.8403 9.28777 24.8403 9.18766V8.62039C24.8403 8.3868 24.9297 8.27557 25.0973 8.27557C25.1643 8.27557 25.2313 8.28669 25.2984 8.30894C25.3654 8.33119 25.466 8.37568 25.5777 8.42017C25.9576 8.58702 26.3709 8.72049 26.8067 8.80948C27.2536 8.89846 27.6893 8.94296 28.1362 8.94296C28.8401 8.94296 29.3876 8.8206 29.7674 8.57589C30.1473 8.33119 30.3484 7.97525 30.3484 7.5192C30.3484 7.20776 30.2478 6.95192 30.0467 6.74059C29.8456 6.52925 29.4658 6.34016 28.9183 6.16219L27.2983 5.66165C26.4827 5.40582 25.8793 5.02763 25.5106 4.52709C25.142 4.03768 24.952 3.49265 24.952 2.91425C24.952 2.44708 25.0526 2.03552 25.2537 1.67958C25.4548 1.32365 25.7229 1.0122 26.0581 0.767492C26.3933 0.511662 26.7732 0.322569 27.2201 0.189092C27.667 0.0556154 28.1362 0 28.6278 0C28.8736 0 29.1306 0.0111231 29.3764 0.0444923C29.6334 0.0778616 29.868 0.122354 30.1026 0.166846C30.3261 0.222462 30.5383 0.278077 30.7394 0.344815C30.9405 0.411554 31.097 0.478292 31.2087 0.545031C31.3651 0.634016 31.4768 0.723 31.5439 0.823108C31.6109 0.912093 31.6444 1.03445 31.6444 1.19017V1.71295C31.6444 1.94654 31.555 2.06889 31.3875 2.06889C31.2981 2.06889 31.1528 2.0244 30.9629 1.93542C30.3261 1.64622 29.611 1.50162 28.8177 1.50162C28.1809 1.50162 27.6781 1.60172 27.3318 1.81306C26.9854 2.0244 26.8067 2.34697 26.8067 2.80302C26.8067 3.11446 26.9184 3.38142 27.1419 3.59275C27.3653 3.80409 27.7787 4.01543 28.3708 4.20452L29.9574 4.70506C30.7618 4.96089 31.3428 5.31683 31.6891 5.77288C32.0355 6.22892 32.2031 6.75171 32.2031 7.33011C32.2031 7.8084 32.1025 8.2422 31.9126 8.62039C31.7115 8.99857 31.4433 9.33226 31.097 9.59922C30.7506 9.87729 30.3372 10.0775 29.8568 10.2221C29.354 10.3778 28.8289 10.4557 28.2591 10.4557Z" fill="#F7F8F8"/>
<path d="M30.3708 15.8622C26.695 18.5651 21.3545 20 16.7625 20C10.3271 20 4.5285 17.6308 0.148821 13.6932C-0.19753 13.3818 0.115304 12.9591 0.528691 13.2038C5.26589 15.9401 11.1092 17.5974 17.1536 17.5974C21.2316 17.5974 25.7118 16.7521 29.8345 15.0169C30.449 14.7388 30.9741 15.4173 30.3708 15.8622Z" fill="#F7F8F8"/>
<path d="M31.9013 14.1274C31.432 13.5268 28.7953 13.8382 27.5998 13.9828C27.2423 14.0273 27.1864 13.7159 27.5104 13.4823C29.6109 12.0141 33.0632 12.4367 33.4654 12.9261C33.8676 13.4267 33.3537 16.8637 31.3873 18.5099C31.0856 18.7658 30.7952 18.6323 30.9292 18.2986C31.3761 17.1974 32.3705 14.717 31.9013 14.1274Z" fill="#F7F8F8"/>
</svg>
