<svg width="16" height="16" viewBox="0 0 16 16" fill="none" xmlns="http://www.w3.org/2000/svg">
<path d="M7.99998 14C8.73636 14 9.33331 13.403 9.33331 12.6667C9.33331 11.9303 8.73636 11.3333 7.99998 11.3333C7.2636 11.3333 6.66665 11.9303 6.66665 12.6667C6.66665 13.403 7.2636 14 7.99998 14Z" stroke="#F7F8F8" stroke-linecap="round" stroke-linejoin="round"/>
<path d="M7.99998 4.66667C8.73636 4.66667 9.33331 4.06971 9.33331 3.33333C9.33331 2.59695 8.73636 2 7.99998 2C7.2636 2 6.66665 2.59695 6.66665 3.33333C6.66665 4.06971 7.2636 4.66667 7.99998 4.66667Z" stroke="#F7F8F8" stroke-linecap="round" stroke-linejoin="round"/>
<path d="M10.6666 9.33333C11.403 9.33333 12 8.73638 12 8C12 7.26362 11.403 6.66667 10.6666 6.66667C9.93027 6.66667 9.33331 7.26362 9.33331 8C9.33331 8.73638 9.93027 9.33333 10.6666 9.33333Z" stroke="#F7F8F8" stroke-linecap="round" stroke-linejoin="round"/>
<path d="M13.3333 14C14.0697 14 14.6666 13.403 14.6666 12.6667C14.6666 11.9303 14.0697 11.3333 13.3333 11.3333C12.5969 11.3333 12 11.9303 12 12.6667C12 13.403 12.5969 14 13.3333 14Z" stroke="#F7F8F8" stroke-linecap="round" stroke-linejoin="round"/>
<path d="M2.66665 14C3.40303 14 3.99998 13.403 3.99998 12.6667C3.99998 11.9303 3.40303 11.3333 2.66665 11.3333C1.93027 11.3333 1.33331 11.9303 1.33331 12.6667C1.33331 13.403 1.93027 14 2.66665 14Z" stroke="#F7F8F8" stroke-linecap="round" stroke-linejoin="round"/>
<path d="M5.33331 9.33333C6.06969 9.33333 6.66665 8.73638 6.66665 8C6.66665 7.26362 6.06969 6.66667 5.33331 6.66667C4.59693 6.66667 3.99998 7.26362 3.99998 8C3.99998 8.73638 4.59693 9.33333 5.33331 9.33333Z" stroke="#F7F8F8" stroke-linecap="round" stroke-linejoin="round"/>
</svg>
