<svg width="16" height="15" viewBox="0 0 16 15" fill="none" xmlns="http://www.w3.org/2000/svg">
<path d="M8.00065 0C8.46002 0 8.8819 0.253125 9.10065 0.65625L15.8506 13.1562C16.06 13.5437 16.0506 14.0125 15.8256 14.3906C15.6006 14.7688 15.1913 15 14.7506 15H1.25065C0.810021 15 0.400646 14.7688 0.175646 14.3906C-0.0493544 14.0125 -0.0587294 13.5437 0.150646 13.1562L6.90065 0.65625C7.1194 0.253125 7.54127 0 8.00065 0ZM8.00065 11C7.73543 11 7.48108 11.1054 7.29354 11.2929C7.106 11.4804 7.00065 11.7348 7.00065 12C7.00065 12.2652 7.106 12.5196 7.29354 12.7071C7.48108 12.8946 7.73543 13 8.00065 13C8.26586 13 8.52022 12.8946 8.70775 12.7071C8.89529 12.5196 9.00065 12.2652 9.00065 12C9.00065 11.7348 8.89529 11.4804 8.70775 11.2929C8.52022 11.1054 8.26586 11 8.00065 11ZM8.00065 5C7.4319 5 6.97877 5.48438 7.0194 6.05312L7.25065 9.30313C7.27877 9.69375 7.6069 10 7.99752 10C8.39127 10 8.71627 9.69688 8.7444 9.30313L8.97565 6.05312C9.01627 5.48438 8.56627 5 7.9944 5H8.00065Z" fill="#EAB308"/>
</svg>
