<svg width="114" height="20" viewBox="0 0 114 20" fill="none" xmlns="http://www.w3.org/2000/svg">
<g clip-path="url(#clip0_526_513)">
<path d="M14.0571 6.03423H14.6975L16.5225 4.20669L16.6122 3.43078C15.5667 2.50672 14.3032 1.86481 12.941 1.56568C11.5789 1.26655 10.1631 1.32008 8.82736 1.72122C7.49162 2.12236 6.28006 2.85786 5.30712 3.85824C4.33418 4.85862 3.63197 6.09086 3.26685 7.43856C3.47017 7.35511 3.69539 7.34157 3.90722 7.40008L7.55734 6.79731C7.55734 6.79731 7.74305 6.48951 7.8391 6.50875C8.62121 5.64863 9.70206 5.12039 10.8604 5.03218C12.0187 4.94396 13.1669 5.30244 14.0699 6.03423H14.0571Z" fill="#F7F8F8"/>
<path d="M19.1225 7.4385C18.703 5.89158 17.8417 4.50092 16.6442 3.43713L14.0827 6.00211C14.6166 6.4389 15.0444 6.99138 15.3339 7.61788C15.6234 8.24437 15.7671 8.92852 15.7541 9.61873V10.074C16.0535 10.074 16.3499 10.1331 16.6265 10.2478C16.9031 10.3625 17.1544 10.5307 17.3661 10.7426C17.5778 10.9546 17.7457 11.2063 17.8603 11.4832C17.9749 11.7602 18.0338 12.0571 18.0338 12.3568C18.0338 12.6566 17.9749 12.9535 17.8603 13.2304C17.7457 13.5074 17.5778 13.7591 17.3661 13.971C17.1544 14.183 16.9031 14.3512 16.6265 14.4659C16.3499 14.5806 16.0535 14.6397 15.7541 14.6397H11.1947L10.74 15.1014V17.8395L11.1947 18.2948H15.7541C17.0273 18.3047 18.2699 17.904 19.2981 17.1519C20.3262 16.3999 21.0853 15.3364 21.4631 14.1188C21.8409 12.9012 21.8172 11.5942 21.3957 10.3912C20.9742 9.18807 20.1771 8.15281 19.1225 7.4385Z" fill="#F7F8F8"/>
<path d="M6.62881 18.2692H11.1883V14.6141H6.62881C6.30397 14.6141 5.98294 14.5441 5.68747 14.4089L5.04709 14.6077L3.20923 16.4353L3.04913 17.0765C4.07977 17.8558 5.33736 18.2748 6.62881 18.2692Z" fill="#F7F8F8"/>
<path d="M6.6288 6.41251C5.39341 6.4199 4.19117 6.81348 3.19 7.53828C2.18883 8.26308 1.43872 9.28291 1.04446 10.4553C0.650189 11.6277 0.631446 12.8942 0.990845 14.0778C1.35024 15.2613 2.06984 16.303 3.04912 17.0572L5.69386 14.4088C5.35776 14.2568 5.06353 14.0253 4.8364 13.7344C4.60927 13.4434 4.45602 13.1016 4.3898 12.7383C4.32358 12.375 4.34637 12.0011 4.45622 11.6485C4.56607 11.296 4.75969 10.9754 5.02047 10.7143C5.28125 10.4531 5.60141 10.2592 5.95347 10.1492C6.30553 10.0393 6.67899 10.0164 7.04179 10.0827C7.4046 10.149 7.74593 10.3025 8.03649 10.5299C8.32705 10.7574 8.55816 11.052 8.71001 11.3886L11.3547 8.74023C10.7996 8.01354 10.0842 7.4253 9.26433 7.02149C8.44448 6.61768 7.54246 6.40925 6.6288 6.41251Z" fill="#F7F8F8"/>
<path d="M33.8702 15.717C33.0852 15.727 32.3063 15.5782 31.58 15.2796C30.8538 14.981 30.1952 14.5387 29.6438 13.9792C29.0749 13.4434 28.6235 12.7951 28.3182 12.0754C28.0128 11.3556 27.8602 10.5802 27.8699 9.7983C27.8606 9.01642 28.0134 8.24112 28.3187 7.52144C28.6241 6.80177 29.0753 6.15341 29.6438 5.61738C30.1925 5.05206 30.8499 4.60382 31.5763 4.29966C32.3026 3.99549 33.0829 3.8417 33.8702 3.84755C34.6204 3.83754 35.3651 3.97694 36.0609 4.25765C36.7568 4.53837 37.39 4.95479 37.9238 5.48272L36.7839 6.64337C36.0033 5.88796 34.9557 5.47294 33.8702 5.48913C33.3072 5.48221 32.7488 5.59265 32.2307 5.81344C31.7125 6.03423 31.2459 6.36053 30.8605 6.77162C30.4599 7.16956 30.1439 7.64457 29.9315 8.16803C29.7191 8.6915 29.6147 9.25259 29.6246 9.81753C29.6199 10.376 29.7268 10.9298 29.939 11.4463C30.1513 11.9628 30.4646 12.4315 30.8605 12.825C31.6535 13.6163 32.7236 14.0665 33.8431 14.0797C34.9626 14.0929 36.043 13.668 36.8544 12.8955C37.3567 12.3447 37.6648 11.6442 37.7317 10.9012H33.8894V9.25965H39.3262C39.3796 9.59026 39.4011 9.92526 39.3902 10.26C39.4241 10.9528 39.3172 11.6453 39.0762 12.2956C38.8351 12.9458 38.4649 13.5404 37.9878 14.0433C37.4574 14.5963 36.8166 15.0312 36.1071 15.3195C35.3977 15.6079 34.6355 15.7433 33.8702 15.717ZM46.5112 14.6269C45.7815 15.3272 44.8099 15.7182 43.7992 15.7182C42.7885 15.7182 41.8169 15.3272 41.0872 14.6269C40.7241 14.2743 40.4381 13.8499 40.2473 13.3808C40.0566 12.9116 39.9654 12.4079 39.9794 11.9016C39.9658 11.3953 40.0572 10.8917 40.2479 10.4226C40.4386 9.9535 40.7244 9.52912 41.0872 9.17629C41.8176 8.4774 42.789 8.08739 43.7992 8.08739C44.8094 8.08739 45.7808 8.4774 46.5112 9.17629C46.874 9.52912 47.1598 9.9535 47.3505 10.4226C47.5412 10.8917 47.6326 11.3953 47.619 11.9016C47.6322 12.4084 47.5399 12.9124 47.3481 13.3816C47.1563 13.8507 46.8691 14.2748 46.5048 14.6269H46.5112ZM42.2847 13.556C42.4788 13.7635 42.7133 13.929 42.9738 14.0421C43.2344 14.1552 43.5153 14.2135 43.7992 14.2135C44.0831 14.2135 44.3641 14.1552 44.6246 14.0421C44.8851 13.929 45.1196 13.7635 45.3137 13.556C45.5253 13.337 45.691 13.0778 45.801 12.7936C45.9109 12.5095 45.963 12.2062 45.9541 11.9016C45.9635 11.5959 45.9117 11.2915 45.8017 11.0063C45.6917 10.721 45.5258 10.4607 45.3137 10.2408C45.117 10.0353 44.8809 9.87189 44.6196 9.76022C44.3582 9.64856 44.077 9.591 43.7928 9.591C43.5086 9.591 43.2274 9.64856 42.966 9.76022C42.7047 9.87189 42.4686 10.0353 42.2719 10.2408C42.0598 10.4607 41.8939 10.721 41.7839 11.0063C41.6739 11.2915 41.6221 11.5959 41.6315 11.9016C41.6235 12.2066 41.6765 12.5102 41.7876 12.7944C41.8987 13.0785 42.0656 13.3375 42.2783 13.556H42.2847ZM54.8488 14.6269C54.1192 15.3272 53.1476 15.7182 52.1368 15.7182C51.1261 15.7182 50.1545 15.3272 49.4249 14.6269C49.0617 14.2743 48.7757 13.8499 48.585 13.3808C48.3943 12.9116 48.303 12.4079 48.317 11.9016C48.3034 11.3953 48.3948 10.8917 48.5855 10.4226C48.7762 9.9535 49.062 9.52912 49.4249 9.17629C50.1545 8.47593 51.1261 8.08492 52.1368 8.08492C53.1476 8.08492 54.1192 8.47593 54.8488 9.17629C55.2117 9.52912 55.4975 9.9535 55.6882 10.4226C55.8788 10.8917 55.9703 11.3953 55.9567 11.9016C55.9707 12.4079 55.8794 12.9116 55.6887 13.3808C55.498 13.8499 55.212 14.2743 54.8488 14.6269ZM50.6224 13.556C50.8164 13.7635 51.051 13.929 51.3115 14.0421C51.572 14.1552 51.8529 14.2135 52.1368 14.2135C52.4208 14.2135 52.7017 14.1552 52.9622 14.0421C53.2227 13.929 53.4573 13.7635 53.6513 13.556C53.8629 13.337 54.0286 13.0778 54.1386 12.7936C54.2486 12.5095 54.3006 12.2062 54.2917 11.9016C54.3011 11.5959 54.2493 11.2915 54.1393 11.0063C54.0294 10.721 53.8634 10.4607 53.6513 10.2408C53.4547 10.0353 53.2186 9.87189 52.9572 9.76022C52.6958 9.64856 52.4146 9.591 52.1304 9.591C51.8463 9.591 51.5651 9.64856 51.3037 9.76022C51.0423 9.87189 50.8062 10.0353 50.6096 10.2408C50.3975 10.4607 50.2315 10.721 50.1215 11.0063C50.0116 11.2915 49.9597 11.5959 49.9692 11.9016C49.9611 12.2066 50.0142 12.5102 50.1252 12.7944C50.2363 13.0785 50.4032 13.3375 50.616 13.556H50.6224ZM60.3304 19.1412C59.5629 19.1657 58.8102 18.9257 58.198 18.4615C57.6544 18.0523 57.2263 17.5087 56.9556 16.884L58.4157 16.2749C58.5746 16.6482 58.8232 16.9764 59.1393 17.2303C59.4777 17.5035 59.9023 17.6467 60.3368 17.6343C60.6123 17.6511 60.8882 17.6082 61.1457 17.5086C61.4032 17.409 61.6362 17.2551 61.8289 17.0572C62.2147 16.5912 62.4052 15.9936 62.3604 15.3899V14.8385H62.3028C62.0587 15.1287 61.7505 15.358 61.4026 15.5083C61.0547 15.6586 60.6767 15.7256 60.2984 15.7042C59.8176 15.7056 59.3417 15.6072 58.9008 15.4152C58.4599 15.2231 58.0636 14.9416 57.7369 14.5884C57.3824 14.238 57.1025 13.8192 56.9143 13.3574C56.7261 12.8956 56.6334 12.4003 56.6419 11.9016C56.633 11.3999 56.7255 10.9017 56.9136 10.4367C57.1018 9.97166 57.3818 9.54951 57.7369 9.19553C58.0628 8.84085 58.4588 8.55793 58.8998 8.36474C59.3408 8.17155 59.8171 8.07232 60.2984 8.07335C60.7057 8.07263 61.1082 8.16243 61.4767 8.33626C61.7955 8.47566 62.0797 8.68365 62.3092 8.94544H62.3668V8.33626H63.9549V15.1655C63.9967 15.7057 63.928 16.2488 63.7529 16.7615C63.5778 17.2743 63.3001 17.7458 62.9367 18.1473C62.5906 18.4789 62.1816 18.7377 61.734 18.9084C61.2864 19.0791 60.8091 19.1583 60.3304 19.1412ZM60.4457 14.2165C60.7191 14.2225 60.9905 14.1682 61.2407 14.0573C61.4908 13.9465 61.7135 13.7819 61.8929 13.5752C62.288 13.1218 62.4963 12.535 62.4757 11.9336C62.4994 11.3221 62.2912 10.7242 61.8929 10.26C61.7137 10.053 61.4911 9.88812 61.2409 9.77727C60.9907 9.66641 60.7192 9.61228 60.4457 9.61875C60.1648 9.61297 59.8858 9.66717 59.6275 9.77773C59.3691 9.8883 59.1372 10.0527 58.9472 10.26C58.5236 10.7075 58.2935 11.3044 58.3068 11.9208C58.3003 12.2232 58.3535 12.5239 58.4634 12.8056C58.5733 13.0873 58.7377 13.3445 58.9472 13.5624C59.1363 13.7717 59.3677 13.9383 59.6261 14.051C59.8845 14.1638 60.1638 14.2202 60.4457 14.2165ZM66.779 4.27718V15.4861H65.1076V4.27718H66.779ZM71.364 15.717C70.8635 15.7299 70.3657 15.6391 69.9018 15.4504C69.4379 15.2618 69.0179 14.9792 68.668 14.6205C68.3131 14.2643 68.0341 13.8397 67.8481 13.3723C67.6621 12.9049 67.5728 12.4046 67.5858 11.9016C67.5669 11.3974 67.6495 10.8945 67.8289 10.423C68.0082 9.95145 68.2805 9.52091 68.6296 9.15705C68.9586 8.80979 69.3564 8.53517 69.7974 8.35076C70.2385 8.16635 70.7132 8.07623 71.1911 8.08617C71.6306 8.08153 72.0663 8.16662 72.4719 8.33626C72.8371 8.48389 73.17 8.70174 73.4516 8.9775C73.6935 9.21128 73.9083 9.47155 74.092 9.75341C74.2406 9.99139 74.3671 10.2425 74.4698 10.5037L74.6427 10.9397L69.5197 13.0494C69.6747 13.4059 69.9338 13.707 70.2631 13.913C70.5923 14.1191 70.9761 14.2204 71.364 14.2036C71.7414 14.2047 72.1126 14.1077 72.4415 13.9223C72.7703 13.7369 73.0455 13.4693 73.2403 13.1456L74.521 14.0113C74.1942 14.4795 73.7759 14.8765 73.2915 15.1783C72.7155 15.5428 72.0453 15.7301 71.364 15.717ZM69.2252 11.7862L72.632 10.369C72.527 10.1191 72.3393 9.91306 72.1004 9.78547C71.833 9.63423 71.5303 9.55679 71.2231 9.56103C70.702 9.57455 70.2072 9.79347 69.8463 10.1702C69.6304 10.3772 69.4627 10.6293 69.3553 10.9086C69.248 11.188 69.2035 11.4876 69.2252 11.7862ZM83.3966 15.717C82.6858 15.7293 81.9798 15.5976 81.3211 15.3299C80.6624 15.0622 80.0645 14.6639 79.5633 14.159C79.0621 13.6542 78.6679 13.0531 78.4045 12.3919C78.1411 11.7307 78.0138 11.023 78.0303 10.3113C78.0138 9.5996 78.1411 8.89191 78.4045 8.23071C78.6679 7.5695 79.0621 6.96842 79.5633 6.46355C80.0645 5.95868 80.6624 5.56043 81.3211 5.29271C81.9798 5.02498 82.6858 4.89332 83.3966 4.9056C84.116 4.88308 84.8313 5.02364 85.4888 5.31678C86.1464 5.60992 86.7293 6.04807 87.194 6.59849L86.2719 7.49623C85.9307 7.06653 85.4931 6.72352 84.9946 6.4951C84.4961 6.26668 83.9508 6.15929 83.403 6.18168C82.8757 6.16978 82.3515 6.26476 81.8618 6.46091C81.372 6.65706 80.927 6.95033 80.5534 7.32309C80.1649 7.71426 79.8614 8.18164 79.6619 8.69588C79.4625 9.21012 79.3713 9.7601 79.3943 10.3113C79.3713 10.8625 79.4625 11.4125 79.6619 11.9267C79.8614 12.4409 80.1649 12.9083 80.5534 13.2995C80.927 13.6723 81.372 13.9655 81.8618 14.1617C82.3515 14.3578 82.8757 14.4528 83.403 14.4409C84.015 14.4478 84.6207 14.3164 85.175 14.0567C85.7293 13.7969 86.2181 13.4153 86.6049 12.9404L87.527 13.8638C87.0442 14.4419 86.438 14.9043 85.7532 15.2168C85.015 15.5581 84.2096 15.729 83.3966 15.717ZM90.0052 15.4861H88.6797V5.13004H90.0052V15.4861ZM92.1697 9.25324C92.8643 8.56249 93.8035 8.17482 94.7824 8.17482C95.7614 8.17482 96.7006 8.56249 97.3951 9.25324C97.7348 9.61235 98.0002 10.0352 98.176 10.4974C98.3519 10.9596 98.4347 11.4521 98.4197 11.9465C98.4347 12.4409 98.3519 12.9333 98.176 13.3955C98.0002 13.8578 97.7348 14.2806 97.3951 14.6397C96.7006 15.3304 95.7614 15.7181 94.7824 15.7181C93.8035 15.7181 92.8643 15.3304 92.1697 14.6397C91.83 14.2806 91.5647 13.8578 91.3888 13.3955C91.213 12.9333 91.1301 12.4409 91.1451 11.9465C91.1301 11.4521 91.213 10.9596 91.3888 10.4974C91.5647 10.0352 91.83 9.61235 92.1697 9.25324ZM93.1559 13.8061C93.3647 14.0271 93.6164 14.2032 93.8955 14.3235C94.1747 14.4438 94.4753 14.5058 94.7792 14.5058C95.0831 14.5058 95.3838 14.4438 95.6629 14.3235C95.942 14.2032 96.1937 14.0271 96.4026 13.8061C96.6343 13.5571 96.8142 13.2645 96.9318 12.9452C97.0494 12.626 97.1024 12.2864 97.0878 11.9465C97.1024 11.6065 97.0494 11.267 96.9318 10.9477C96.8142 10.6284 96.6343 10.3358 96.4026 10.0869C96.1937 9.86583 95.942 9.68977 95.6629 9.56946C95.3838 9.44914 95.0831 9.38708 94.7792 9.38708C94.4753 9.38708 94.1747 9.44914 93.8955 9.56946C93.6164 9.68977 93.3647 9.86583 93.1559 10.0869C92.9242 10.3358 92.7443 10.6284 92.6266 10.9477C92.509 11.267 92.456 11.6065 92.4707 11.9465C92.4577 12.2858 92.5121 12.6244 92.6309 12.9425C92.7496 13.2606 92.9302 13.552 93.1623 13.7997L93.1559 13.8061ZM105.765 15.4861H104.484V14.505H104.446C104.218 14.8777 103.895 15.183 103.511 15.3899C103.112 15.6214 102.659 15.7431 102.198 15.7426C101.824 15.7683 101.448 15.7089 101.1 15.569C100.752 15.4291 100.44 15.2123 100.187 14.9347C99.7021 14.3203 99.4583 13.5493 99.502 12.7673V8.4068H100.828V12.5236C100.828 13.8445 101.41 14.505 102.576 14.505C102.835 14.5131 103.092 14.4591 103.326 14.3476C103.56 14.2361 103.764 14.0702 103.921 13.8638C104.264 13.4278 104.447 12.8866 104.439 12.3312V8.4068H105.765V15.4861ZM110.267 15.717C109.817 15.7185 109.372 15.6224 108.963 15.4353C108.554 15.2482 108.191 14.9746 107.897 14.6333C107.233 13.899 106.878 12.9366 106.905 11.9465C106.878 10.9563 107.233 9.99392 107.897 9.25965C108.191 8.91833 108.554 8.64472 108.963 8.45763C109.372 8.27055 109.817 8.17445 110.267 8.17595C110.77 8.16798 111.268 8.28706 111.714 8.52222C112.106 8.7196 112.437 9.01854 112.674 9.3879H112.732L112.674 8.4068V5.13004H114V15.4861H112.719V14.505H112.662C112.424 14.8744 112.093 15.1733 111.701 15.3707C111.259 15.6038 110.766 15.7228 110.267 15.717ZM110.484 14.505C110.784 14.5094 111.081 14.4499 111.356 14.3305C111.631 14.2111 111.877 14.0345 112.079 13.8125C112.529 13.2991 112.759 12.6286 112.719 11.9465C112.759 11.2643 112.529 10.5939 112.079 10.0804C111.876 9.85719 111.629 9.67883 111.353 9.55679C111.077 9.43474 110.779 9.3717 110.478 9.3717C110.177 9.3717 109.878 9.43474 109.603 9.55679C109.327 9.67883 109.08 9.85719 108.877 10.0804C108.653 10.333 108.482 10.6272 108.372 10.9463C108.262 11.2654 108.216 11.6031 108.237 11.9401C108.216 12.277 108.262 12.6147 108.372 12.9338C108.482 13.2529 108.653 13.5471 108.877 13.7997C109.079 14.0257 109.327 14.2056 109.604 14.3273C109.881 14.449 110.182 14.5096 110.484 14.505Z" fill="#F7F8F8"/>
</g>
<defs>
<clipPath id="clip0_526_513">
<rect width="114" height="20" fill="white"/>
</clipPath>
</defs>
</svg>
