<svg width="98" height="16" viewBox="0 0 98 16" fill="none" xmlns="http://www.w3.org/2000/svg">
<mask id="mask0_526_520" style="mask-type:luminance" maskUnits="userSpaceOnUse" x="0" y="0" width="98" height="16">
<path d="M0 0H97.7116V16H0V0Z" fill="white"/>
</mask>
<g mask="url(#mask0_526_520)">
<path d="M0.134521 15.5774V14.1113H2.19613V2.38991H0.134521V0.923835H5.9997V2.38991H3.94077V14.1113H5.9997V15.5774H0.134521ZM9.21131 0.923835H15.2354C17.6524 0.923835 19.1185 2.42919 19.1185 4.72562C19.1185 6.9033 17.7318 7.65776 16.7801 7.8158V7.93455C17.8104 8.01312 19.6345 8.88366 19.6345 11.3408C19.6345 13.756 18.0086 15.5774 15.8702 15.5774H9.21131V0.923835ZM10.9952 7.25955H15.0372C16.4238 7.25955 17.2568 6.54794 17.2568 5.23991V4.5283C17.2568 3.22026 16.4238 2.50866 15.0372 2.50866H10.9952V7.25955ZM10.9952 14.0328H15.314C16.8193 14.0328 17.7711 13.2024 17.7711 11.7363V11.0238C17.7711 9.55866 16.8193 8.76491 15.314 8.76491H10.9952V14.0328ZM34.2988 3.26044H34.1792L32.9506 5.67473L29.4631 12.0524L25.9756 5.67473L24.747 3.26044H24.6283V15.5774H22.9256V0.923835H25.2238L29.4238 8.80419H29.5024L33.7051 0.923835H36.0042V15.5774H34.2988V3.26044ZM43.1372 8.36937C43.1372 3.41848 45.6738 0.686335 49.5961 0.686335C52.2908 0.686335 53.9961 1.79437 55.0667 4.13276L52.3327 5.55598C51.9354 4.33009 51.1836 3.49705 49.5961 3.49705C47.7354 3.49705 46.5068 4.76491 46.5068 7.06134V9.43991C46.5068 11.7363 47.7354 13.0042 49.5961 13.0042C51.1836 13.0042 52.0935 12.0131 52.531 10.8238L55.1068 12.3292C54.0363 14.5488 52.2908 15.8149 49.5961 15.8149C45.6738 15.8149 43.1372 13.3203 43.1372 8.36937ZM60.2577 15.5774C58.1176 15.5774 57.1676 14.5095 57.1676 12.5274V0.0515137H60.2577V13.1622H61.6444V15.5774H60.2577ZM62.8336 10.0729C62.8336 6.50776 64.7765 4.33009 67.9872 4.33009C71.2381 4.33009 73.139 6.50776 73.139 10.0729C73.139 13.597 71.2381 15.8149 67.9872 15.8149C64.7765 15.8149 62.8336 13.597 62.8336 10.0729ZM69.9274 11.1828V8.92294C69.9274 7.5783 69.2158 6.74526 67.9872 6.74526C66.7586 6.74526 66.0443 7.5783 66.0443 8.92294V11.1828C66.0443 12.5667 66.7586 13.3604 67.9872 13.3604C69.2158 13.3604 69.9274 12.5667 69.9274 11.1828ZM81.8595 13.7167H81.7381C81.3827 14.8256 80.4702 15.8149 78.6488 15.8149C76.4292 15.8149 75.2399 14.2301 75.2399 11.4595V4.56758H78.3319V11.222C78.3319 12.5274 78.7676 13.3203 79.9167 13.3203C80.8685 13.3203 81.8595 12.7667 81.8595 11.697V4.56758H84.9497V15.5774H81.8595V13.7167ZM94.5801 13.7167H94.5006C94.1845 14.9051 92.956 15.8149 91.5301 15.8149C88.7542 15.8149 87.2881 13.7953 87.2881 10.0729C87.2881 6.31044 88.7542 4.33009 91.5301 4.33009C92.956 4.33009 94.1845 5.20062 94.5006 6.38901H94.5801V0.0515137H97.7113V15.5774H94.5801V13.7167ZM94.5801 11.697V8.44884C94.5801 7.41758 93.7497 6.82473 92.5604 6.82473C91.3711 6.82473 90.5381 7.73633 90.5381 9.12026V11.0238C90.5381 12.4087 91.3711 13.3203 92.5604 13.3203C93.7497 13.3203 94.5801 12.6854 94.5801 11.697Z" fill="#F7F8F8"/>
</g>
</svg>
