<svg width="14" height="14" viewBox="0 0 14 14" fill="none" xmlns="http://www.w3.org/2000/svg">
<path d="M0 2C0 0.896875 0.896875 0 2 0H12C13.1031 0 14 0.896875 14 2V12C14 13.1031 13.1031 14 12 14H2C0.896875 14 0 13.1031 0 12V2ZM4.5 2.125C3.74062 2.125 3.125 2.74062 3.125 3.5V5C3.125 5.75938 3.74062 6.375 4.5 6.375H5.5C6.25938 6.375 6.875 5.75938 6.875 5V3.5C6.875 2.74062 6.25938 2.125 5.5 2.125H4.5ZM4.375 3.5C4.375 3.43125 4.43125 3.375 4.5 3.375H5.5C5.56875 3.375 5.625 3.43125 5.625 3.5V5C5.625 5.06875 5.56875 5.125 5.5 5.125H4.5C4.43125 5.125 4.375 5.06875 4.375 5V3.5ZM8.75 2.125C8.40625 2.125 8.125 2.40625 8.125 2.75C8.125 3.05312 8.34062 3.30313 8.625 3.3625V5.75C8.625 6.09375 8.90625 6.375 9.25 6.375C9.59375 6.375 9.875 6.09375 9.875 5.75V2.75C9.875 2.40625 9.59375 2.125 9.25 2.125H8.75ZM4.125 8.25C4.125 8.55313 4.34062 8.80313 4.625 8.8625V11.25C4.625 11.5938 4.90625 11.875 5.25 11.875C5.59375 11.875 5.875 11.5938 5.875 11.25V8.25C5.875 7.90625 5.59375 7.625 5.25 7.625H4.75C4.40625 7.625 4.125 7.90625 4.125 8.25ZM7.125 9V10.5C7.125 11.2594 7.74062 11.875 8.5 11.875H9.5C10.2594 11.875 10.875 11.2594 10.875 10.5V9C10.875 8.24063 10.2594 7.625 9.5 7.625H8.5C7.74062 7.625 7.125 8.24063 7.125 9ZM8.5 8.875H9.5C9.56875 8.875 9.625 8.93125 9.625 9V10.5C9.625 10.5688 9.56875 10.625 9.5 10.625H8.5C8.43125 10.625 8.375 10.5688 8.375 10.5V9C8.375 8.93125 8.43125 8.875 8.5 8.875Z" fill="#F7F8F8"/>
</svg>
