<svg width="24" height="24" viewBox="0 0 24 24" fill="none" xmlns="http://www.w3.org/2000/svg">
<path d="M4.7055 15.9555L9.423 13.3085L9.502 13.0775L9.423 12.95H9.192L8.403 12.9015L5.707 12.829L3.37 12.7315L1.105 12.61L0.5345 12.489L0 11.7845L0.055 11.4325L0.5345 11.1105L1.2205 11.1715L2.7385 11.2745L5.015 11.4325L6.6665 11.5295L9.1135 11.7845H9.502L9.5565 11.6265L9.423 11.5295L9.3195 11.4325L6.964 9.8355L4.414 8.148L3.0785 7.1765L2.356 6.6845L1.991 6.223L1.833 5.2155L2.489 4.493L3.369 4.5535L3.594 4.6145L4.487 5.3L6.3935 6.775L8.8825 8.6085L9.247 8.9125L9.3925 8.809L9.4105 8.736L9.247 8.463L7.893 6.016L6.448 3.527L5.8045 2.495L5.6345 1.8755C5.5735 1.6205 5.531 1.408 5.531 1.147L6.278 0.1335L6.691 0L7.686 0.1335L8.1055 0.498L8.7245 1.9125L9.7265 4.1405L11.2805 7.1705L11.736 8.069L11.979 8.9005L12.07 9.1555H12.228V9.01L12.3555 7.304L12.592 5.209L12.823 2.514L12.9015 1.7545L13.278 0.844L14.025 0.352L14.608 0.6315L15.0875 1.3175L15.0205 1.7605L14.7355 3.6125L14.1765 6.5145L13.8125 8.4575H14.025L14.268 8.2145L15.2515 6.9095L16.903 4.8445L17.6315 4.0255L18.4815 3.1205L19.0275 2.6895H20.06L20.819 3.819L20.479 4.9845L19.4165 6.3325L18.536 7.474L17.273 9.174L16.484 10.534L16.5565 10.643L16.745 10.625L19.5985 10.0175L21.1405 9.7385L22.9805 9.4225L23.812 9.811L23.903 10.206L23.575 11.0135L21.608 11.499L19.301 11.9605L15.8645 12.774L15.822 12.804L15.8705 12.865L17.419 13.011L18.0805 13.0475H19.7015L22.719 13.272L23.5085 13.794L23.982 14.4315L23.903 14.9175L22.6885 15.5365L21.0495 15.148L17.2245 14.2375L15.913 13.9095H15.731V14.0185L16.824 15.0875L18.8275 16.8965L21.335 19.228L21.4625 19.8045L21.1405 20.26L20.8005 20.2115L18.5965 18.554L17.7465 17.8075L15.822 16.186H15.6945V16.356L16.1375 17.006L18.4815 20.5275L18.6025 21.6075L18.4325 21.96L17.8255 22.1725L17.1575 22.051L15.7855 20.1265L14.371 17.959L13.2295 16.0165L13.09 16.095L12.416 23.35L12.1005 23.7205L11.372 24L10.7645 23.5385L10.443 22.7915L10.7645 21.3165L11.153 19.3915L11.469 17.8615L11.754 15.9615L11.924 15.33L11.912 15.2875L11.7725 15.3055L10.3395 17.273L8.16 20.2175L6.436 22.063L6.023 22.227L5.3065 21.857L5.3735 21.195L5.774 20.606L8.16 17.5705L9.599 15.688L10.528 14.6015L10.522 14.4435H10.467L4.1285 18.56L2.9995 18.7055L2.5135 18.2505L2.5745 17.5035L2.805 17.2605L4.7115 15.95L4.7055 15.9555Z" fill="#D97757"/>
</svg>
