<svg width="18" height="16" viewBox="0 0 18 16" fill="none" xmlns="http://www.w3.org/2000/svg">
<path d="M11.2742 0.0374825C10.743 -0.115643 10.1898 0.193733 10.0367 0.724983L6.03672 14.725C5.88359 15.2562 6.19297 15.8094 6.72422 15.9625C7.25547 16.1156 7.80859 15.8062 7.96172 15.275L11.9617 1.27498C12.1148 0.743732 11.8055 0.190607 11.2742 0.0374825ZM13.293 4.29061C12.9023 4.68123 12.9023 5.31561 13.293 5.70623L15.5867 7.99998L13.293 10.2937C12.9023 10.6844 12.9023 11.3187 13.293 11.7094C13.6836 12.1 14.318 12.1 14.7086 11.7094L17.7086 8.70936C18.0992 8.31873 18.0992 7.68436 17.7086 7.29373L14.7086 4.29373C14.318 3.90311 13.6836 3.90311 13.293 4.29373V4.29061ZM4.70859 4.29061C4.31797 3.89998 3.68359 3.89998 3.29297 4.29061L0.292969 7.29061C-0.0976562 7.68123 -0.0976562 8.31561 0.292969 8.70623L3.29297 11.7062C3.68359 12.0969 4.31797 12.0969 4.70859 11.7062C5.09922 11.3156 5.09922 10.6812 4.70859 10.2906L2.41484 7.99998L4.70547 5.70623C5.09609 5.31561 5.09609 4.68123 4.70547 4.29061H4.70859Z" fill="#F7F8F8"/>
</svg>
