<svg width="20" height="14" viewBox="0 0 20 14" fill="none" xmlns="http://www.w3.org/2000/svg">
<path d="M5.99687 3C5.99687 2.44688 6.44375 2 6.99687 2C7.55 2 7.99687 2.44688 7.99687 3V3.24375C7.99687 4.10938 7.92187 4.97188 7.775 5.82188L5.1375 6.6125C3.86875 6.99375 3 8.1625 3 9.4875V10.5H0.75C0.334375 10.5 0 10.8344 0 11.25C0 11.6656 0.334375 12 0.75 12H3.01562C3.14687 13.125 4.10313 14 5.26562 14C6.07812 14 6.82812 13.5656 7.23125 12.8594L7.66562 12.1C8.50312 10.6313 9.11875 9.04688 9.49062 7.39688L12.4406 6.5125L12.05 7.68437C11.9469 7.99062 12 8.325 12.1875 8.58438C12.375 8.84375 12.675 9 12.9969 9H16.9969C17.55 9 17.9969 8.55313 17.9969 8C17.9969 7.44688 17.55 7 16.9969 7H14.3844L14.9469 5.31563C15.0656 4.9625 14.975 4.57188 14.7156 4.30312C14.4563 4.03437 14.0687 3.93438 13.7094 4.04063L9.88437 5.19063C9.95937 4.54375 9.99687 3.89688 9.99687 3.24375V3C9.99687 1.34375 8.65312 0 6.99687 0C5.34062 0 3.99688 1.34375 3.99688 3V4C3.99688 4.55312 4.44375 5 4.99687 5C5.55 5 5.99687 4.55312 5.99687 4V3ZM5.70937 8.53125L7.24062 8.07187C6.91563 9.12812 6.475 10.1469 5.925 11.1094L5.49062 11.8687C5.44375 11.95 5.35625 12.0031 5.25937 12.0031C5.1125 12.0031 4.99375 11.8844 4.99375 11.7375V9.49063C4.99375 9.05 5.28437 8.65938 5.70625 8.53125H5.70937ZM19.2469 12C19.6625 12 19.9969 11.6656 19.9969 11.25C19.9969 10.8344 19.6625 10.5 19.2469 10.5H10.0938C9.89062 11.0094 9.66562 11.5094 9.41875 12H19.2469Z" fill="#F7F8F8"/>
</svg>
