<svg width="130" height="18" viewBox="0 0 130 18" fill="none" xmlns="http://www.w3.org/2000/svg">
<path d="M0 2.47671L7.38134 1.4621V8.58512H0.00048367L0 2.47671ZM7.38134 9.49669V16.5391L0.00100011 15.5259L0.0004918 9.49701H7.38135L7.38134 9.49669ZM8.19784 1.3501L18.0197 0V8.58511H8.19784V1.3501ZM18.0197 9.49669V18L8.19784 16.6511V9.49669H18.0197Z" fill="#F7F8F8"/>
<path d="M34.694 14.3208H32.9878V7.72327C32.9878 7.18255 33.0216 6.52201 33.0891 5.73946H33.0604C32.954 6.18488 32.8601 6.50467 32.7786 6.69959L29.6842 14.3208H28.4985L25.3968 6.75663C25.3102 6.53428 25.2184 6.19498 25.1223 5.74017H25.0937C25.1326 6.14805 25.1517 6.81366 25.1517 7.73771V14.3208H23.5608V4.12598H25.9827L28.7085 10.9156C28.9155 11.4368 29.0506 11.8259 29.113 12.0815H29.149C29.3274 11.5458 29.472 11.1473 29.5829 10.8867L32.3594 4.12598H34.6947L34.694 14.3208Z" fill="#F7F8F8"/>
<path d="M37.8974 5.51175C37.6228 5.51175 37.3872 5.4244 37.1926 5.24897C36.9973 5.07355 36.8997 4.85047 36.8997 4.58047C36.8997 4.31048 36.9973 4.08525 37.1926 3.90477C37.3879 3.72501 37.6228 3.63477 37.8974 3.63477C38.1815 3.63477 38.423 3.72501 38.6205 3.90477C38.8179 4.08525 38.9171 4.30975 38.9171 4.58047C38.9171 4.83603 38.8179 5.0555 38.6205 5.23814C38.4222 5.42079 38.1815 5.51175 37.8974 5.51175ZM38.7284 14.3205H37.0516V7.04003H38.7284V14.3205Z" fill="#F7F8F8"/>
<path d="M46.2257 13.9866C45.6333 14.323 44.9314 14.4912 44.1216 14.4912C43.0226 14.4912 42.1358 14.1534 41.4611 13.4784C40.7865 12.8034 40.4488 11.9277 40.4488 10.8514C40.4488 9.65225 40.8114 8.68921 41.5368 7.96152C42.2621 7.23384 43.2319 6.87 44.4469 6.87C45.1215 6.87 45.7169 6.98622 46.2323 7.21868V8.75419C45.7162 8.37519 45.167 8.18533 44.5841 8.18533C43.8757 8.18533 43.2951 8.42139 42.8421 8.8928C42.3891 9.36421 42.1623 9.98145 42.1623 10.7445C42.1623 11.4982 42.3752 12.093 42.8017 12.5291C43.2282 12.9651 43.8008 13.1831 44.5188 13.1831C45.1215 13.1831 45.6897 12.9723 46.2249 12.5507L46.2257 13.9866Z" fill="#F7F8F8"/>
<path d="M52.1901 8.61222C51.9875 8.45556 51.696 8.3776 51.315 8.3776C50.8188 8.3776 50.404 8.59778 50.0714 9.03887C49.7389 9.47924 49.5723 10.0792 49.5723 10.8372V14.3211H47.8947V7.04061H49.5723V8.54075H49.6009C49.7646 8.02891 50.0164 7.6297 50.3563 7.3431C50.6962 7.0565 51.0757 6.91284 51.4949 6.91284C51.7988 6.91284 52.0301 6.95832 52.1894 7.04784L52.1901 8.61222Z" fill="#F7F8F8"/>
<path d="M56.6725 14.4912C55.5302 14.4912 54.6184 14.1512 53.9357 13.4712C53.2537 12.7911 52.9123 11.8895 52.9123 10.7662C52.9123 9.54325 53.2676 8.58815 53.979 7.90088C54.6903 7.21362 55.6477 6.87 56.8531 6.87C58.0101 6.87 58.9109 7.20424 59.5569 7.87273C60.203 8.54122 60.5252 9.46744 60.5252 10.6521C60.5252 11.8137 60.1773 12.7435 59.4806 13.4423C58.7846 14.1418 57.8486 14.4912 56.6725 14.4912ZM56.7518 8.18533C56.0962 8.18533 55.5779 8.41056 55.1976 8.86032C54.8166 9.31079 54.6265 9.93164 54.6265 10.7229C54.6265 11.4859 54.8196 12.0865 55.205 12.5247C55.5904 12.9629 56.1065 13.1824 56.7526 13.1824C57.4133 13.1824 57.9206 12.9666 58.2744 12.5356C58.6283 12.1039 58.8059 11.4902 58.8059 10.694C58.8059 9.89337 58.629 9.2747 58.2744 8.83866C57.9198 8.40334 57.4125 8.18533 56.7518 8.18533Z" fill="#F7F8F8"/>
<path d="M61.7771 14.0937V12.5654C62.404 13.0347 63.0955 13.2693 63.8517 13.2693C64.864 13.2693 65.3699 12.9755 65.3699 12.3879C65.3699 12.2218 65.3265 12.081 65.2399 11.9648C65.1533 11.8486 65.0366 11.7453 64.8891 11.6558C64.7415 11.5663 64.5682 11.4855 64.3685 11.414C64.1681 11.3425 63.9456 11.2624 63.6997 11.1721C63.3958 11.0538 63.1227 10.9281 62.879 10.7953C62.6353 10.6625 62.4333 10.5123 62.2718 10.3441C62.1103 10.1759 61.9885 9.98532 61.907 9.77163C61.8248 9.55867 61.7844 9.30961 61.7844 9.02518C61.7844 8.67433 61.8688 8.36534 62.0377 8.09751C62.2065 7.82968 62.4326 7.60445 62.7167 7.42253C63.0015 7.23988 63.3239 7.10272 63.6858 7.01031C64.047 6.91791 64.4207 6.8717 64.8061 6.8717C65.4903 6.8717 66.1025 6.9735 66.6421 7.17708V8.62018C66.1216 8.26933 65.524 8.0939 64.8494 8.0939C64.6372 8.0939 64.4456 8.11557 64.2746 8.15744C64.1035 8.20003 63.9574 8.25922 63.837 8.33502C63.7166 8.41082 63.6227 8.50179 63.5551 8.60863C63.4876 8.71548 63.4538 8.83243 63.4538 8.96021C63.4538 9.11686 63.4876 9.2497 63.5551 9.3587C63.6227 9.46771 63.7225 9.56372 63.8554 9.64674C63.9875 9.72976 64.1468 9.80556 64.3326 9.87414C64.5183 9.94273 64.7312 10.0178 64.9727 10.0979C65.2906 10.2257 65.5761 10.3564 65.8294 10.4892C66.0827 10.6221 66.2986 10.7722 66.477 10.9404C66.6554 11.1086 66.7927 11.3028 66.8888 11.5237C66.985 11.7439 67.0334 12.006 67.0334 12.3092C67.0334 12.6788 66.9468 13.0008 66.7728 13.2758C66.5995 13.5509 66.3676 13.7783 66.0791 13.958C65.7898 14.1385 65.4558 14.272 65.0777 14.3594C64.6989 14.4475 64.3003 14.4908 63.8811 14.4908C63.0706 14.4915 62.3695 14.3594 61.7771 14.0937Z" fill="#F7F8F8"/>
<path d="M71.9131 14.4912C70.7708 14.4912 69.8582 14.1512 69.1762 13.4712C68.4942 12.7911 68.1535 11.8895 68.1535 10.7662C68.1535 9.54325 68.5089 8.58815 69.2202 7.90088C69.9309 7.21362 70.889 6.87 72.0937 6.87C73.2507 6.87 74.1514 7.20424 74.7975 7.87273C75.4435 8.54122 75.7665 9.46744 75.7665 10.6521C75.7665 11.8137 75.4185 12.7435 74.7218 13.4423C74.0251 14.1418 73.0884 14.4912 71.9131 14.4912ZM71.9923 8.18533C71.3367 8.18533 70.8185 8.41056 70.4375 8.86032C70.0565 9.31079 69.8663 9.93164 69.8663 10.7229C69.8663 11.4859 70.0594 12.0865 70.4448 12.5247C70.8303 12.9629 71.3463 13.1824 71.9923 13.1824C72.6523 13.1824 73.1596 12.9666 73.5142 12.5356C73.8688 12.1039 74.0457 11.4902 74.0457 10.694C74.0457 9.89337 73.8688 9.2747 73.5142 8.83866C73.1596 8.40334 72.6523 8.18533 71.9923 8.18533Z" fill="#F7F8F8"/>
<path d="M81.6665 4.887C81.4403 4.75923 81.182 4.69497 80.8927 4.69497C80.0778 4.69497 79.6711 5.14761 79.6711 6.05289V7.04119H81.392V8.33486H79.6784V14.321H78.001V8.33486H76.7361V7.04119H78.001V5.86087C78.001 5.09275 78.2564 4.48778 78.7674 4.04453C79.2783 3.60127 79.917 3.37964 80.6835 3.37964C81.0982 3.37964 81.4257 3.42441 81.6665 3.51465V4.887Z" fill="#F7F8F8"/>
<path d="M86.5028 14.2425C86.1754 14.4035 85.7438 14.4843 85.2086 14.4843C83.7726 14.4843 83.0546 13.8065 83.0546 12.4514V8.33507H81.8183V7.04141H83.0546V5.35645L84.7321 4.88721V7.04141H86.5035V8.33507H84.7321V11.975C84.7321 12.406 84.8114 12.7142 84.9707 12.899C85.1301 13.0838 85.395 13.1762 85.7657 13.1762C86.0498 13.1762 86.2958 13.0961 86.5028 12.9344V14.2425Z" fill="#F7F8F8"/>
<path d="M100.731 14.3208H98.8439L97.9116 11.7256H93.8342L92.9378 14.3208H91.0577L94.9398 4.12598H96.8772L100.731 14.3208ZM97.4557 10.3467L96.0175 6.28016C95.9742 6.14733 95.928 5.93437 95.8802 5.64055H95.8516C95.8082 5.91054 95.7599 6.12423 95.707 6.28016L94.2827 10.3467H97.4557Z" fill="#F7F8F8"/>
<path d="M107.441 7.73068L103.443 13.0339H107.426V14.321H101.093V13.7024L105.177 8.3277H101.483V7.04053H107.441V7.73068Z" fill="#F7F8F8"/>
<path d="M115.313 14.321H113.636V13.1689H113.608C113.121 14.0503 112.364 14.4914 111.338 14.4914C109.588 14.4914 108.713 13.4584 108.713 11.3915V7.04053H110.391V11.2211C110.391 12.5292 110.904 13.1833 111.931 13.1833C112.427 13.1833 112.835 13.0035 113.156 12.6433C113.477 12.2831 113.637 11.8117 113.637 11.2284V7.04053H115.314L115.313 14.321Z" fill="#F7F8F8"/>
<path d="M121.799 8.61222C121.596 8.45556 121.305 8.3776 120.924 8.3776C120.428 8.3776 120.013 8.59778 119.68 9.03887C119.348 9.47924 119.181 10.0792 119.181 10.8372V14.3211H117.504V7.04061H119.181V8.54075H119.21C119.373 8.02891 119.625 7.6297 119.965 7.3431C120.305 7.0565 120.685 6.91284 121.104 6.91284C121.407 6.91284 121.639 6.95832 121.798 7.04784L121.799 8.61222Z" fill="#F7F8F8"/>
<path d="M129.267 11.1286H124.22C124.24 11.8014 124.45 12.3204 124.853 12.6857C125.256 13.0503 125.808 13.2329 126.512 13.2329C127.303 13.2329 128.028 13.0005 128.688 12.5363V13.8653C128.014 14.2826 127.122 14.4912 126.013 14.4912C124.924 14.4912 124.07 14.1606 123.45 13.4993C122.831 12.8381 122.522 11.9082 122.522 10.7091C122.522 9.57645 122.862 8.65312 123.545 7.93987C124.227 7.22662 125.074 6.87 126.087 6.87C127.099 6.87 127.882 7.1898 128.436 7.82942C128.99 8.46903 129.268 9.35771 129.268 10.4955L129.267 11.1286ZM127.647 9.96267C127.64 9.36998 127.501 8.90941 127.221 8.58021C126.941 8.25102 126.556 8.08642 126.064 8.08642C125.582 8.08642 125.173 8.25967 124.839 8.60547C124.504 8.95127 124.298 9.40392 124.22 9.9634H127.647V9.96267Z" fill="#F7F8F8"/>
</svg>
