<svg width="132" height="132" viewBox="0 0 132 132" fill="none" xmlns="http://www.w3.org/2000/svg">
<path d="M55.7259 5.66675C55.927 3.66613 57.791 2.02128 59.7993 2.06769C63.9346 2.05996 68.07 2.05996 72.2053 2.06769C74.2884 2.01871 76.191 3.81308 76.2916 5.88847C76.3457 7.68542 76.2916 9.48496 76.3148 11.2845C80.976 12.1533 85.5187 13.6435 89.801 15.675C90.84 14.2674 91.8506 12.8417 92.8999 11.4443C94.1528 9.74277 96.7903 9.35089 98.4944 10.5961C101.908 13.0118 105.321 15.4327 108.722 17.8639C110.426 19.0756 110.893 21.6486 109.717 23.3759C108.712 24.8583 107.603 26.266 106.595 27.7458C109.836 31.167 112.589 35.0419 114.835 39.1824C116.539 38.69 118.214 38.1073 119.919 37.6226C121.961 37.0374 124.289 38.3316 124.9 40.3606C126.008 43.7379 127.096 47.1204 128.197 50.5003C128.432 51.2661 128.741 52.0163 128.875 52.8103C129.174 54.6408 128.035 56.5873 126.294 57.2293C124.621 57.8454 122.902 58.3224 121.226 58.9231C121.844 63.6127 121.824 68.3822 121.233 73.0718C122.853 73.6184 124.482 74.1366 126.098 74.6961C128.091 75.3509 129.303 77.6918 128.687 79.6976C127.57 83.2142 126.41 86.7153 125.281 90.2267C124.946 91.2115 124.719 92.2918 124 93.0858C122.963 94.295 121.2 94.8003 119.684 94.3104C118.034 93.8025 116.407 93.2225 114.76 92.712C112.507 96.8679 109.725 100.735 106.51 104.2C107.533 105.641 108.595 107.057 109.598 108.513C110.485 109.826 110.485 111.651 109.622 112.976C109.139 113.768 108.333 114.265 107.603 114.799C104.906 116.75 102.209 118.702 99.5153 120.656C98.8064 121.167 98.1103 121.747 97.2517 121.984C95.6301 122.451 93.7532 121.816 92.7813 120.429C91.7784 119.068 90.7987 117.689 89.7984 116.325C85.5161 118.359 80.976 119.844 76.3148 120.716C76.2916 122.513 76.3457 124.309 76.2916 126.106C76.2039 128.184 74.291 129.968 72.213 129.932C68.0751 129.943 63.9372 129.94 59.7993 129.932C57.7162 129.968 55.7826 128.179 55.7053 126.088C55.6563 124.297 55.7078 122.505 55.6846 120.716C51.026 119.836 46.4807 118.359 42.1985 116.325C41.1182 117.779 40.0818 119.264 38.9835 120.705C37.7177 122.358 35.1421 122.729 33.456 121.507C30.0581 119.06 26.6653 116.606 23.2828 114.139C21.5786 112.932 21.0991 110.364 22.2721 108.634C23.2931 107.168 24.3656 105.737 25.4097 104.288C22.1974 100.825 19.4053 96.9736 17.1649 92.8151C15.4788 93.3256 13.803 93.8747 12.1117 94.3671C10.0621 94.973 7.71347 93.6788 7.09987 91.6369C5.92941 88.0739 4.78472 84.5032 3.6194 80.9377C3.37964 80.1875 3.08058 79.4372 3.07542 78.638C3.05737 76.9828 4.12472 75.3406 5.69737 74.7708C7.37573 74.1804 9.08503 73.6751 10.766 73.0899C10.1395 68.3874 10.1962 63.6127 10.8356 58.9153C9.12112 58.343 7.39894 57.8042 5.69737 57.1957C3.74316 56.4403 2.66034 54.0375 3.37706 52.0704C4.65839 48.1311 5.92425 44.1865 7.22105 40.2523C7.85784 38.3007 10.1163 37.0683 12.1014 37.6329C13.8185 38.1486 15.5149 38.7364 17.219 39.2907C19.4671 35.1321 22.2489 31.2624 25.4716 27.8C24.4223 26.315 23.3189 24.8661 22.3005 23.3578C21.1635 21.5841 21.7282 19.0189 23.4735 17.8561C26.8251 15.4327 30.1664 12.9989 33.5205 10.5884C34.9643 9.54683 37.086 9.65253 38.4524 10.7766C39.8936 12.2384 40.912 14.0637 42.1778 15.675C46.4653 13.6332 51.0157 12.1533 55.6846 11.2845C55.7182 9.41277 55.6331 7.53589 55.7259 5.66675ZM59.771 6.19011C59.7503 7.97417 59.8096 9.76081 59.7426 11.5449C59.6317 13.3393 58.2009 14.9196 56.44 15.2445C52.1603 16.0953 47.9889 17.472 44.0573 19.3618C42.3686 20.2228 40.1282 19.7485 38.981 18.2248C37.9214 16.8326 36.9262 15.3914 35.8872 13.9864C32.5563 16.4227 29.1815 18.8023 25.8815 21.2825C26.9257 22.6566 27.9389 24.0539 28.9289 25.4668C30.0014 26.9982 29.8106 29.2257 28.5267 30.574C25.4896 33.8225 22.8548 37.4447 20.7124 41.3403C19.841 42.9825 17.7914 43.8694 16.0047 43.3332C14.3341 42.8098 12.6996 42.1859 11.0367 41.6445C9.75276 45.5607 8.47659 49.4794 7.20042 53.3982C8.81691 53.9344 10.4437 54.4371 12.055 54.994C13.3183 55.4168 14.3521 56.4713 14.7131 57.7603C14.9709 58.5879 14.8471 59.4619 14.7569 60.305C14.2774 64.4248 14.3676 68.5936 14.8549 72.7083C15.056 74.5027 13.9139 76.3254 12.2175 76.939C10.5597 77.5294 8.87362 78.0476 7.20042 78.6019C8.47659 82.4923 9.75534 86.3827 11.0341 90.2731C12.6996 89.7523 14.3418 89.1568 16.0125 88.6643C17.7991 88.1281 19.8435 89.0201 20.7124 90.6572C22.8316 94.5012 25.4149 98.0822 28.4081 101.292C29.7616 102.635 30.0091 104.919 28.9134 106.492C27.9234 107.936 26.8612 109.328 25.8428 110.751C29.1738 113.128 32.5073 115.5 35.846 117.867C36.7999 116.573 37.7435 115.268 38.6922 113.969C39.7879 112.252 42.1675 111.558 43.9928 112.491C47.9322 114.366 52.1036 115.748 56.3859 116.585C58.2112 116.89 59.7091 118.522 59.789 120.378C59.8483 122.188 59.7942 124 59.8122 125.813C63.9501 125.813 68.0906 125.815 72.2285 125.81C72.2439 124.088 72.2027 122.363 72.2439 120.641C72.2697 118.785 73.7212 117.093 75.5414 116.761C79.8107 115.902 83.9744 114.538 87.9009 112.654C89.5947 111.769 91.8506 112.236 93.0107 113.765C94.0729 115.16 95.0681 116.603 96.1122 118.014C99.4483 115.595 102.787 113.18 106.115 110.751C105.107 109.349 104.066 107.969 103.086 106.549C102.026 105.015 102.243 102.79 103.537 101.457C106.525 98.2575 109.114 94.6868 111.23 90.8557C112.084 89.1671 114.157 88.2183 115.984 88.7649C117.655 89.2625 119.302 89.8271 120.963 90.3582C122.244 86.4729 123.523 82.5903 124.799 78.705C123.167 78.1559 121.527 77.6403 119.898 77.0886C118.106 76.5007 116.897 74.5878 117.15 72.716C117.683 68.341 117.691 63.9066 117.152 59.5315C116.889 57.6778 118.052 55.752 119.828 55.1461C121.473 54.5686 123.144 54.0659 124.796 53.5039C123.528 49.5748 122.244 45.6483 120.96 41.7244C119.308 42.271 117.658 42.8356 115.99 43.3357C114.205 43.8694 112.164 42.9825 111.292 41.348C109.279 37.7361 106.878 34.3329 104.079 31.2856C103.548 30.6978 102.962 30.1228 102.666 29.3726C102.127 28.1093 102.284 26.5831 103.076 25.459C104.03 24.0926 105.038 22.7649 106.01 21.4088C102.676 18.9802 99.3452 16.5516 96.0065 14.1333C94.9985 15.4971 94.0162 16.8842 92.9953 18.2403C92.1419 19.4107 90.6543 20.0759 89.2157 19.898C88.2567 19.7897 87.4162 19.287 86.5474 18.908C83.2216 17.4204 79.7385 16.2809 76.1704 15.5461C75.397 15.3837 74.5952 15.2084 73.9378 14.7418C72.8266 13.9889 72.1382 12.6689 72.1537 11.3232C72.1305 9.61128 72.1537 7.89941 72.146 6.19011C68.021 6.18753 63.896 6.18753 59.771 6.19011Z" fill="#ffffff"/>
<path d="M49.2062 25.9953C57.384 22.5587 66.6292 21.7517 75.2839 23.6827C81.1388 24.9666 86.6844 27.5267 91.5313 31.0484C90.8455 29.0633 90.152 27.0833 89.4739 25.0981C90.7656 24.6289 92.0546 24.1468 93.3463 23.6801C94.7823 27.6582 96.2492 31.6233 97.6543 35.6091C98.1184 36.893 96.9892 38.3651 95.6305 38.2697C91.4617 38.2878 87.2903 38.2723 83.1214 38.2775C83.1163 36.9008 83.1188 35.5266 83.1188 34.1525C85.0267 34.1473 86.9319 34.1576 88.8371 34.1473C82.5749 29.6846 74.9849 27.1194 67.2969 26.8899C59.0598 26.6115 50.7556 28.9937 43.9417 33.6343C37.566 37.9294 32.5077 44.1479 29.6202 51.2738C26.6656 58.4926 25.9386 66.6059 27.5809 74.2346C28.4806 78.5246 30.1435 82.6418 32.3994 86.3956C31.2315 87.0943 30.0559 87.7775 28.8803 88.4633C24.9203 81.9535 22.7082 74.3893 22.5845 66.7683C22.4195 58.4487 24.7192 50.1008 29.1329 43.047C33.8509 35.4751 40.9613 29.4087 49.2062 25.9953Z" fill="#ffffff"/>
<path d="M99.5177 45.6947C100.717 44.9728 101.918 44.2535 103.127 43.5497C107.786 51.2402 109.962 60.4055 109.219 69.3696C108.456 79.2619 104.161 88.837 97.2541 95.963C90.1024 103.447 80.1843 108.199 69.8692 109.07C59.5103 110.032 48.8781 107.049 40.4915 100.905C41.2108 102.906 41.9507 104.899 42.67 106.899C41.381 107.376 40.0867 107.838 38.7925 108.297C37.3694 104.334 35.8999 100.387 34.4974 96.4167C34.0153 95.1947 35.0259 93.7148 36.3356 93.72C40.5689 93.7019 44.8047 93.6865 49.038 93.7277C49.0122 95.0941 49.0328 96.4631 49.0225 97.8295C47.125 97.8295 45.2249 97.8373 43.3274 97.8244C49.3371 102.068 56.5661 104.566 63.9164 104.914C71.6662 105.316 79.5217 103.347 86.1527 99.3145C92.928 95.2282 98.4091 89.0381 101.629 81.8116C104.493 75.4308 105.605 68.2765 104.803 61.3259C104.184 55.819 102.356 50.4565 99.5177 45.6947Z" fill="#ffffff"/>
<path d="M57.8112 52.5784C58.1876 48.9149 61.302 45.7773 64.9629 45.3828C68.6935 44.8363 72.571 47.2262 73.7672 50.7995C75.0228 54.1407 73.7466 58.1342 70.8849 60.2302C73.1949 60.8851 75.2316 62.3701 76.6031 64.3372C77.5699 63.4142 78.7275 62.7052 80.0037 62.2927C77.9231 60.5783 76.879 57.6908 77.5287 55.0534C78.2067 51.8539 81.285 49.397 84.5592 49.4563C87.7638 49.3995 90.7957 51.7508 91.546 54.8652C92.2807 57.5438 91.2521 60.5293 89.1277 62.285C92.3684 63.2982 94.7918 66.4461 94.8614 69.8518C94.8949 73.1209 94.8588 76.3925 94.8795 79.6616C94.8717 80.3216 94.9207 81.0512 94.5005 81.6106C94.0803 82.2449 93.3042 82.5413 92.5643 82.5001C87.8515 82.5027 83.1361 82.4975 78.4233 82.5001C78.315 83.5649 77.4771 84.5755 76.3453 84.5497C69.4489 84.5703 62.5498 84.5703 55.6533 84.5497C54.5215 84.5781 53.6785 83.5674 53.5753 82.5001C48.762 82.4898 43.9512 82.5181 39.1378 82.4872C38.0679 82.4975 37.114 81.541 37.1346 80.4685C37.1166 76.9339 37.1166 73.3967 37.1346 69.8621C37.1939 66.4513 39.6303 63.2982 42.8761 62.2876C40.7904 60.5731 39.754 57.6753 40.4063 55.0379C41.0921 51.8385 44.1806 49.3867 47.4549 49.4563C50.6517 49.4099 53.6707 51.7585 54.421 54.8626C55.1583 57.5464 54.1245 60.5345 51.9949 62.2927C53.2685 62.7052 54.4287 63.4117 55.3929 64.3372C56.7671 62.3701 58.8038 60.8851 61.1163 60.2251C58.7677 58.49 57.4219 55.4865 57.8112 52.5784ZM65.2955 49.5594C63.2665 49.8662 61.6861 51.8694 61.8898 53.9164C61.9878 56.113 64.0941 57.9434 66.2829 57.732C68.5774 57.6367 70.4543 55.3473 70.0805 53.076C69.8381 50.8278 67.5127 49.1237 65.2955 49.5594ZM46.5061 53.7746C45.15 54.1794 44.209 55.5974 44.3611 57.005C44.472 58.6473 46.0756 59.9853 47.7127 59.7945C49.4581 59.6863 50.8374 57.8893 50.4764 56.1749C50.2135 54.3985 48.2077 53.1713 46.5061 53.7746ZM83.6363 53.772C82.471 54.1252 81.5789 55.2261 81.4887 56.443C81.267 58.1909 82.8267 59.8719 84.5824 59.8049C86.3278 59.8461 87.8463 58.1729 87.6375 56.4352C87.5267 54.5455 85.4306 53.1327 83.6363 53.772ZM61.3948 64.4867C59.2188 65.4406 57.7235 67.7352 57.7519 70.1148C57.7442 73.554 57.7519 76.9958 57.7493 80.4376C63.2485 80.4376 68.7502 80.4376 74.2493 80.4376C74.2467 77.0009 74.2545 73.5643 74.2442 70.1277C74.2519 68.506 73.5867 66.8973 72.4369 65.7552C71.1762 64.461 69.3431 63.837 67.5539 63.935C65.5043 64.0485 63.3258 63.5999 61.3948 64.4867ZM43.6702 66.3688C42.2238 67.0056 41.2287 68.537 41.2545 70.1199C41.2416 72.8708 41.2545 75.6217 41.2493 78.3751C45.3743 78.3751 49.4993 78.3751 53.6243 78.3751C53.6192 75.6191 53.6346 72.8631 53.6192 70.107C53.6346 68.5988 52.7142 67.1525 51.3865 66.459C50.1748 65.799 48.7568 66.0439 47.4394 66.0001C46.1813 66.0465 44.8484 65.8145 43.6702 66.3688ZM80.8003 66.3662C79.354 67.0004 78.3588 68.5267 78.3795 70.1096C78.3666 72.8631 78.3795 75.6191 78.3743 78.3751C82.4993 78.3751 86.6243 78.3751 90.7493 78.3751C90.7442 75.6191 90.7596 72.8656 90.7442 70.1122C90.7622 68.5318 89.7542 67.0236 88.331 66.3688C87.1554 65.817 85.8251 66.0439 84.5721 66.0001C83.314 66.0465 81.9785 65.8145 80.8003 66.3662Z" fill="#ffffff"/>
</svg>
