<svg width="112" height="14" viewBox="0 0 112 14" fill="none" xmlns="http://www.w3.org/2000/svg">
<path d="M46.6216 9.10828H53.7576L49.9844 3.05456L43.0591 14H39.9073L48.3308 0.852185C48.697 0.320939 49.3074 0 49.9844 0C50.6391 0 51.2495 0.309876 51.6046 0.830041L60.0613 14H56.9095L55.4224 11.5541H48.1975L46.6216 9.10828ZM79.3608 11.5541V0.132812H76.6862V12.6719C76.6862 13.015 76.8194 13.347 77.0746 13.6016C77.3298 13.8561 77.6739 14 78.0512 14H90.2479L91.8238 11.5541H79.3608ZM35.113 9.50671C37.71 9.50671 39.8186 7.41502 39.8186 4.82529C39.8186 2.23558 37.71 0.132812 35.113 0.132812H23.4123V14H26.0859V2.57865H34.9354C36.1785 2.57865 37.1773 3.58575 37.1773 4.82529C37.1773 6.06481 36.1785 7.07194 34.9354 7.07194L27.3955 7.06086L35.3793 14H39.2637L33.8923 9.50669L35.113 9.50671ZM6.9541 14C3.1152 14 0 10.9012 0 7.07194C0 3.24269 3.11524 0.132812 6.95407 0.132812H15.0367C18.8766 0.132812 21.9896 3.24269 21.9896 7.07194C21.9896 10.9012 18.8766 14 15.0367 14H6.9541ZM14.8569 11.5541C17.344 11.5541 19.3583 9.55096 19.3583 7.07194C19.3583 4.59288 17.344 2.57865 14.8569 2.57865H7.13271C4.64676 2.57865 2.63131 4.59288 2.63131 7.07194C2.63131 9.55096 4.64676 11.5541 7.13271 11.5541H14.8569ZM65.6436 14C61.8037 14 58.6852 10.9012 58.6852 7.07194C58.6852 3.24269 61.8037 0.132812 65.6436 0.132812H75.2434L73.6786 2.57865H65.8212C63.3352 2.57865 61.3155 4.59288 61.3155 7.07194C61.3155 9.55096 63.3352 11.5541 65.8212 11.5541H75.4653L73.8895 14H65.6436ZM98.3495 11.5541C96.2963 11.5541 94.5539 10.1818 94.0212 8.28932H105.452L107.028 5.84346H94.0212C94.5539 3.96204 96.2963 2.57865 98.3495 2.57865H106.196L107.783 0.132812H98.1719C94.332 0.132812 91.2135 3.24269 91.2135 7.07194C91.2135 10.9012 94.332 14 98.1719 14H106.418L107.994 11.5541H98.3495ZM109.214 1.60475C109.214 1.44475 109.245 1.28623 109.306 1.13832C109.368 0.990411 109.457 0.856021 109.571 0.742882C109.684 0.629743 109.819 0.540087 109.967 0.479072C110.116 0.418057 110.275 0.386887 110.435 0.387354C111.123 0.387354 111.667 0.929646 111.667 1.60475C111.667 2.2909 111.123 2.83319 110.435 2.83319C109.758 2.83319 109.214 2.2909 109.214 1.60475ZM110.435 3.17627C111.301 3.17627 112 2.47904 112 1.61581C112 0.752564 111.301 0.0553338 110.435 0.0553338C109.581 0.0553338 108.881 0.752564 108.881 1.61581C108.881 2.47904 109.581 3.17627 110.435 3.17627ZM110.291 0.686167C110.535 0.686167 110.635 0.69723 110.746 0.741483C111.057 0.841105 111.09 1.11777 111.09 1.22846C111.09 1.25058 111.09 1.30592 111.068 1.37232C111.057 1.43873 111.012 1.57152 110.857 1.67113C110.835 1.68221 110.824 1.69327 110.779 1.71542L111.179 2.43477H110.79L110.435 1.77075H110.191V2.43477H109.847V0.686167H110.291ZM110.413 1.483C110.524 1.47194 110.635 1.47194 110.702 1.37232C110.735 1.32806 110.746 1.28379 110.746 1.2174C110.746 1.12885 110.69 1.05138 110.613 1.00711C110.535 0.973916 110.457 0.973916 110.291 0.973916H110.191V1.483H110.413Z" fill="#F7F8F8"/>
</svg>
