<svg width="16" height="16" viewBox="0 0 16 16" fill="none" xmlns="http://www.w3.org/2000/svg">
<path d="M2.05937 7.14062C2.475 4.23438 4.97812 2 8 2C9.65625 2 11.1562 2.67188 12.2437 3.75625C12.25 3.7625 12.2562 3.76875 12.2625 3.775L12.5 4H11.0031C10.45 4 10.0031 4.44688 10.0031 5C10.0031 5.55312 10.45 6 11.0031 6H15.0031C15.5562 6 16.0031 5.55312 16.0031 5V1C16.0031 0.446875 15.5562 0 15.0031 0C14.45 0 14.0031 0.446875 14.0031 1V2.66875L13.65 2.33437C12.2031 0.89375 10.2031 0 8 0C3.96875 0 0.634373 2.98125 0.0812484 6.85938C0.00312338 7.40625 0.381248 7.9125 0.928123 7.99062C1.475 8.06875 1.98125 7.6875 2.05937 7.14375V7.14062ZM15.9187 9.14062C15.9969 8.59375 15.6156 8.0875 15.0719 8.00937C14.5281 7.93125 14.0187 8.3125 13.9406 8.85625C13.525 11.7625 11.0219 13.9969 8 13.9969C6.34375 13.9969 4.84375 13.325 3.75625 12.2406C3.75 12.2344 3.74375 12.2281 3.7375 12.2219L3.5 11.9969H4.99687C5.55 11.9969 5.99687 11.55 5.99687 10.9969C5.99687 10.4437 5.55 9.99687 4.99687 9.99687L0.999998 10C0.734373 10 0.478123 10.1062 0.290623 10.2969C0.103123 10.4875 -0.00312662 10.7406 -1.61804e-06 11.0094L0.0312484 14.9781C0.0343734 15.5312 0.487498 15.975 1.04062 15.9688C1.59375 15.9625 2.0375 15.5125 2.03125 14.9594L2.01875 13.35L2.35312 13.6656C3.8 15.1062 5.79687 16 8 16C12.0312 16 15.3656 13.0188 15.9187 9.14062Z" fill="#F7F8F8"/>
</svg>
