<svg width="16" height="16" viewBox="0 0 16 16" fill="none" xmlns="http://www.w3.org/2000/svg">
<path d="M8 16C5.87827 16 3.84344 15.1571 2.34315 13.6569C0.842855 12.1566 0 10.1217 0 8C0 5.87827 0.842855 3.84344 2.34315 2.34315C3.84344 0.842855 5.87827 0 8 0C10.1217 0 12.1566 0.842855 13.6569 2.34315C15.1571 3.84344 16 5.87827 16 8C16 10.1217 15.1571 12.1566 13.6569 13.6569C12.1566 15.1571 10.1217 16 8 16ZM11.6875 4.55312C11.3531 4.30937 10.8844 4.38438 10.6406 4.71875L6.90938 9.85L5.28125 8.22188C4.9875 7.92813 4.5125 7.92813 4.22188 8.22188C3.93125 8.51562 3.92813 8.99063 4.22188 9.28125L6.47188 11.5312C6.62813 11.6875 6.84062 11.7656 7.05937 11.75C7.27812 11.7344 7.47812 11.6219 7.60625 11.4438L11.8531 5.6C12.0969 5.26562 12.0219 4.79688 11.6875 4.55312Z" fill="#F7F8F8"/>
</svg>
