<svg width="148" height="16" viewBox="0 0 148 16" fill="none" xmlns="http://www.w3.org/2000/svg">
<path d="M6.26451 5.8782C6.47234 4.87661 6.98937 3.96648 7.74193 3.27749C8.4945 2.58849 9.44421 2.15577 10.4558 2.04097C11.4673 1.92616 12.4891 2.13514 13.3756 2.63812C14.2621 3.14111 14.968 3.91244 15.3929 4.84223C15.3962 4.85312 15.4037 4.86225 15.4137 4.86768C15.4237 4.87311 15.4354 4.87441 15.4463 4.87129C16.0739 4.69666 16.7262 4.62846 17.3762 4.66952C17.4409 4.6745 17.4662 4.63742 17.445 4.57819C16.9372 3.13675 15.9655 1.90672 14.6838 1.08281C13.4022 0.258903 11.8837 -0.111811 10.3687 0.0293531C8.8538 0.170517 7.42899 0.815494 6.31986 1.86218C5.21072 2.90888 4.48062 4.29748 4.24513 5.80818C4.2466 5.80832 4.24808 5.80832 4.24954 5.80818C3.32129 5.96672 2.45475 6.3802 1.74576 7.00289C1.03676 7.62558 0.512927 8.43323 0.23219 9.33651C-0.0485473 10.2398 -0.0752508 11.2035 0.155033 12.1211C0.385316 13.0387 0.863614 13.8744 1.53703 14.5358C2.30935 15.2963 3.30781 15.7822 4.38035 15.9196C4.86169 15.9754 5.34571 16.0015 5.83023 15.9977C6.29287 16.0007 15.1175 15.9999 15.487 15.9999C16.2306 15.9999 16.7144 15.9993 17.2343 15.9611C18.4464 15.8936 19.5932 15.3873 20.4626 14.5358C21.1875 13.8241 21.6852 12.9117 21.8923 11.9147C22.0994 10.9178 22.0065 9.8814 21.6254 8.9377C21.2444 7.994 20.5924 7.18568 19.7526 6.61573C18.9128 6.04577 17.9233 5.73998 16.9099 5.73732C15.7296 5.73572 14.5872 6.1561 13.6869 6.92331C13.2829 7.25433 12.8591 7.65012 12.3254 8.17101C12.1486 8.344 8.65289 11.7525 6.35786 13.9911C6.03842 13.9897 5.57908 13.9852 5.17207 13.9717C4.34247 13.9815 3.54104 13.6694 2.93459 13.1004C2.49289 12.6675 2.18953 12.1121 2.06323 11.5051C1.93692 10.8982 1.99339 10.2671 2.22543 9.69257C2.45748 9.11801 2.85457 8.62595 3.36605 8.27918C3.87753 7.93241 4.4802 7.74665 5.09717 7.74561C5.87799 7.76242 6.6262 8.06357 7.20273 8.5931C7.59928 8.92301 8.47858 9.7002 8.86466 10.0498C8.87336 10.0586 8.88521 10.0637 8.89759 10.0638C8.90998 10.0639 8.92191 10.059 8.93075 10.0503L10.2925 8.71488C10.2979 8.71023 10.3022 8.70445 10.3051 8.69794C10.308 8.69144 10.3094 8.68438 10.3093 8.67725C10.3092 8.67013 10.3076 8.66311 10.3045 8.6567C10.3014 8.65029 10.2969 8.64464 10.2914 8.64015C9.63656 8.04508 8.70825 7.21254 8.1495 6.79433C7.58959 6.36363 6.94807 6.05193 6.26451 5.8782ZM19.0648 13.1004C18.4583 13.6693 17.6569 13.9813 16.8273 13.9714C16.3498 13.9855 15.872 13.9923 15.3942 13.9916H9.23119C11.4734 11.8023 13.4294 9.89311 13.6513 9.67667C13.8546 9.47823 14.3117 9.03843 14.7061 8.68167C15.5721 7.89811 16.3512 7.74063 16.9025 7.74561C17.5194 7.74671 18.1221 7.93251 18.6335 8.2793C19.145 8.62609 19.542 9.11815 19.774 9.6927C20.006 10.2673 20.0625 10.8983 19.9362 11.5052C19.8098 12.1121 19.5065 12.6675 19.0648 13.1004Z" fill="#F7F8F8"/>
<path d="M111.32 11.2955C111.321 11.276 111.315 11.2569 111.304 11.2407C111.293 11.2245 111.278 11.212 111.26 11.2049C111.241 11.1978 111.222 11.1965 111.203 11.201C111.184 11.2056 111.167 11.2159 111.154 11.2304C110.559 11.9111 109.827 12.4577 109.006 12.8342C108.186 13.2108 107.295 13.4087 106.393 13.4151C103.328 13.4151 101.348 11.2899 101.348 8.00152C101.348 4.65078 103.235 2.56915 106.272 2.56915C108.038 2.60261 109.724 3.31727 110.98 4.56489C110.993 4.57886 111.01 4.58851 111.029 4.59258C111.048 4.59665 111.067 4.59495 111.085 4.5877C111.103 4.58046 111.118 4.56801 111.129 4.55197C111.139 4.53593 111.145 4.51705 111.145 4.49778V2.80204C109.79 1.63167 108.059 0.99287 106.271 1.00364C105.4 0.97353 104.533 1.13064 103.728 1.46445C102.922 1.79825 102.197 2.30103 101.601 2.93906C100.464 4.19259 99.8632 5.94306 99.8632 8.00192C99.8632 12.1875 102.487 14.9998 106.393 14.9998C108.206 15.0133 109.96 14.3557 111.32 13.1527V11.2955ZM28 1.35277V2.80604H32.5799V14.6531H34.1649V2.80604H38.7448V1.35277H28ZM146.419 5.89752C145.6 5.00591 144.23 4.68194 143.244 4.68194C142.623 4.66897 142.007 4.78569 141.434 5.02467C140.861 5.26365 140.343 5.61966 139.915 6.07009C139.026 7.08834 138.559 8.40955 138.611 9.76237C138.611 13.3108 140.957 14.8995 143.282 14.8995C144.64 14.8995 145.761 14.4122 146.419 13.5493V14.6726H148V1.37355H146.42L146.419 5.89752ZM146.378 9.79992C146.378 11.6155 145.327 13.4539 143.319 13.4539C141.812 13.4539 140.189 12.3341 140.189 9.87542C140.189 8.06903 141.139 6.12482 143.226 6.12482C145.552 6.12482 146.378 8.10458 146.378 9.79992ZM113.418 1.37355H115.023V14.6726H113.418V1.37355ZM67.2326 12.2099C67.2329 12.1911 67.2277 12.1727 67.2176 12.1568C67.2076 12.141 67.1931 12.1285 67.176 12.1208C67.1589 12.1132 67.14 12.1107 67.1215 12.1138C67.1031 12.1168 67.0859 12.1252 67.0722 12.138C66.1764 12.9034 65.0592 13.3592 63.8854 13.4383C61.7582 13.4383 60.3842 12.007 60.3842 9.79193C60.3842 7.57648 61.7582 6.14519 63.8854 6.14519C65.0431 6.14881 66.1659 6.54273 67.0737 7.2637C67.0876 7.27601 67.1047 7.28401 67.123 7.28673C67.1413 7.28945 67.1601 7.28678 67.1769 7.27904C67.1937 7.2713 67.2079 7.25881 67.2178 7.24311C67.2277 7.22741 67.2328 7.20917 67.2326 7.1906V5.72535C66.1986 5.08371 65.0159 4.72367 63.801 4.68074C60.8634 4.68074 58.8891 6.7348 58.8891 9.79193C58.8891 12.8487 60.8634 14.9027 63.801 14.9027C65.0251 14.917 66.2236 14.5509 67.2322 13.8545L67.2326 12.2099ZM46.5147 11.8963C46.5148 11.8759 46.5085 11.8561 46.4966 11.8395C46.4847 11.823 46.468 11.8107 46.4487 11.8043C46.4294 11.7979 46.4086 11.7979 46.3892 11.8042C46.3699 11.8105 46.3531 11.8227 46.3411 11.8392C45.4572 12.8209 44.2307 13.4237 42.916 13.5226C42.0268 13.5604 41.1571 13.2543 40.4863 12.6673C39.868 12.0139 39.5291 11.1435 39.5421 10.2425H46.9573V10.1287C46.9573 8.02988 46.6007 6.83987 45.686 5.88434C45.277 5.47715 44.7879 5.15994 44.25 4.95292C43.7121 4.7459 43.1371 4.65361 42.5617 4.68194C39.7877 4.68194 37.9953 6.67408 37.9957 9.76117C38.0968 12.9729 39.9151 14.8903 42.859 14.8903C44.2108 14.9017 45.5168 14.3994 46.5147 13.4842V11.8963ZM45.4587 8.87476H39.5389L39.5413 8.84479C39.5864 8.08711 39.9213 7.37616 40.4761 6.86034C41.031 6.34453 41.7629 6.0637 42.5191 6.07648C44.247 6.07648 45.3731 7.13787 45.4567 8.84599L45.4587 8.87476ZM135.236 9.87582C135.236 12.5251 133.714 13.465 132.41 13.465C132.074 13.4791 131.738 13.4249 131.423 13.3056C131.108 13.1863 130.82 13.0044 130.576 12.7708C130.333 12.5372 130.139 12.2567 130.006 11.9461C129.873 11.6355 129.804 11.3012 129.803 10.9632V4.90884H128.295V10.936C128.295 13.2697 129.955 14.8995 132.333 14.8995C133.65 14.8995 134.677 14.4545 135.33 13.6073V14.6698H136.769V4.90884H135.236V9.87582ZM53.1871 4.68234C52.6455 4.65937 52.105 4.75008 51.6003 4.94866C51.0956 5.14724 50.6377 5.44933 50.2559 5.8356V4.90324H48.7585V14.6726H50.2894V9.10604C50.2691 8.70502 50.3284 8.30395 50.4639 7.92611C50.5993 7.54827 50.8081 7.20118 51.0783 6.90498C51.3497 6.63826 51.6745 6.43234 52.0311 6.30082C52.3876 6.1693 52.768 6.11517 53.1469 6.14199C53.4742 6.1381 53.7987 6.20183 54.1004 6.3292C54.4021 6.45656 54.6744 6.64486 54.9005 6.88236C55.1265 7.11987 55.3015 7.40151 55.4144 7.70977C55.5274 8.01803 55.576 8.34632 55.5571 8.67422V14.6726H57.0884V8.60192C57.1125 8.06858 57.0272 7.53595 56.8378 7.03707C56.6483 6.53819 56.3587 6.0837 55.987 5.70178C55.2224 5.00772 54.2173 4.64178 53.1871 4.68234ZM77.2327 11.8963C77.2328 11.8759 77.2265 11.8561 77.2146 11.8395C77.2027 11.823 77.1859 11.8107 77.1666 11.8043C77.1473 11.7979 77.1265 11.7979 77.1072 11.8042C77.0879 11.8105 77.0711 11.8227 77.0591 11.8392C76.1752 12.8209 74.9487 13.4237 73.6339 13.5226C72.7448 13.5604 71.875 13.2543 71.2043 12.6673C70.586 12.0139 70.2471 11.1435 70.2601 10.2425H77.6753V10.1287C77.6753 8.02988 77.319 6.83987 76.4043 5.88434C75.9953 5.4771 75.5062 5.15986 74.9682 4.95284C74.4302 4.74582 73.8552 4.65356 73.2797 4.68194C70.5061 4.68194 68.7137 6.67408 68.7137 9.76117C68.8148 12.9729 70.6331 14.8903 73.577 14.8903C74.9288 14.9017 76.2348 14.3994 77.2327 13.4842V11.8963ZM76.1767 8.87476H70.2573L70.2593 8.84479C70.3044 8.08711 70.6393 7.37616 71.1941 6.86034C71.7489 6.34453 72.4809 6.0637 73.2371 6.07648C74.9654 6.07648 76.0911 7.13787 76.1751 8.84599L76.1767 8.87476ZM83.8804 4.68234C83.3387 4.65932 82.7982 4.75 82.2934 4.94858C81.7886 5.14716 81.3306 5.44927 80.9488 5.8356V4.90324H79.4514V14.6726H80.9827V9.10604C80.9624 8.70502 81.0217 8.30395 81.1572 7.92611C81.2926 7.54827 81.5014 7.20118 81.7716 6.90498C82.043 6.63831 82.3677 6.43243 82.7242 6.30091C83.0807 6.16939 83.4609 6.11523 83.8398 6.14199C84.1671 6.13805 84.4917 6.20173 84.7934 6.32908C85.0951 6.45642 85.3675 6.6447 85.5936 6.88222C85.8197 7.11973 85.9947 7.40139 86.1077 7.70967C86.2207 8.01796 86.2693 8.34628 86.2504 8.67422V14.6726H87.7813V8.60192C87.8054 8.06858 87.7201 7.53595 87.5307 7.03707C87.3412 6.53819 87.0516 6.0837 86.6799 5.70178C85.9154 5.00782 84.9105 4.64188 83.8804 4.68234ZM92.7883 14.8025C93.4696 14.7377 94.1398 14.5849 94.7821 14.3479V12.8766C94.7822 12.8612 94.7786 12.8459 94.7716 12.8322C94.7646 12.8184 94.7544 12.8066 94.7419 12.7976C94.7294 12.7886 94.7149 12.7828 94.6996 12.7806C94.6844 12.7785 94.6689 12.78 94.6543 12.7851C94.1188 12.9757 93.5702 13.127 93.0128 13.2377C92.8528 13.2633 92.7119 13.2857 92.6068 13.1962C92.566 13.1565 92.5352 13.1077 92.517 13.0537C92.4988 12.9997 92.4937 12.9422 92.5021 12.8858V6.32295H95.3043V4.90124H92.5021V2.29831H90.9111V4.90124H89.3141V6.32255H90.9111V13.0396C90.8954 13.2859 90.9339 13.5327 91.024 13.7624C91.114 13.9921 91.2534 14.1991 91.4321 14.3686C91.817 14.6729 92.2986 14.8269 92.7879 14.8021L92.7883 14.8025ZM121.841 4.70111C119.018 4.70111 117.12 6.75038 117.12 9.79992C117.12 12.8495 119.018 14.8987 121.841 14.8987C124.664 14.8987 126.561 12.8495 126.561 9.79992C126.561 6.75038 124.664 4.70111 121.841 4.70111ZM118.585 9.78994L118.584 9.78594C118.59 7.62482 119.898 6.17355 121.84 6.17355C123.788 6.17355 125.096 7.63081 125.097 9.79992C125.096 11.9686 123.788 13.4263 121.841 13.4263C119.894 13.4263 118.587 11.9571 118.585 9.78994Z" fill="#F7F8F8"/>
</svg>
